<?xml version="1.0" encoding="UTF-8" standalone="no"?>
<svg
   width="186.6mm"
   height="100.2mm"
   viewBox="0 0 186.6 100.2"
   version="1.1"
   preserveAspectRatio="xMidYMid meet"
   id="svg43"
   xmlns="http://www.w3.org/2000/svg"
   xmlns:svg="http://www.w3.org/2000/svg">
  <defs
     id="defs47">
    <rect
       x="133.56522"
       y="48.468409"
       width="17.152863"
       height="15.895666"
       id="rect1086" />
  </defs>
  <g
     id="svgGroup"
     stroke-linecap="round"
     fill-rule="evenodd"
     font-size="9pt"
     stroke="#000"
     stroke-width="0.25mm"
     fill="none"
     style="stroke:#000;stroke-width:0.945;fill:none;stroke-dasharray:none">
    <path
       d="M 15.138 97.2 L 25.063 97.2 L 25.063 100.2 L 40.2 100.2 L 40.2 90.063 L 37.2 90.063 L 37.2 80.138 L 40.2 80.138 L 40.2 70 L 0 70 L 0 80.138 L 3 80.138 L 3 90.063 L 0 90.063 L 0 100.2 L 15.138 100.2 L 15.138 97.2 Z"
       id="front_outsideCutPath"
       stroke="#FF0000"
       stroke-width="0.1"
       style="stroke:#FF0000;stroke-width:0.945;stroke-dasharray:none"
       vector-effect="non-scaling-stroke" />
    <path
       d="M 57.963 97.2 L 67.888 97.2 L 67.888 100.2 L 78.213 100.2 L 78.213 97.2 L 88.138 97.2 L 88.138 100.2 L 98.463 100.2 L 98.463 97.2 L 108.388 97.2 L 108.388 100.2 L 118.713 100.2 L 118.713 97.2 L 128.638 97.2 L 128.638 100.2 L 140.4 100.2 L 140.4 90.263 L 143.4 90.263 L 143.4 79.938 L 140.4 79.938 L 140.4 70 L 46.2 70 L 46.2 79.938 L 43.2 79.938 L 43.2 90.263 L 46.2 90.263 L 46.2 100.2 L 57.963 100.2 L 57.963 97.2 Z"
       id="left_outsideCutPath"
       stroke="#FF0000"
       stroke-width="0.1"
       style="stroke:#FF0000;stroke-width:0.945;stroke-dasharray:none"
       vector-effect="non-scaling-stroke" />
    <path
       d="M 15.138 64 L 25.063 64 L 25.063 67 L 40.2 67 L 40.2 56.863 L 37.2 56.863 L 37.2 46.938 L 40.2 46.938 L 40.2 36.8 L 0 36.8 L 0 46.938 L 3 46.938 L 3 56.863 L 0 56.863 L 0 67 L 15.138 67 L 15.138 64 Z"
       id="back_outsideCutPath"
       stroke="#FF0000"
       stroke-width="0.1"
       style="stroke:#FF0000;stroke-width:0.945;stroke-dasharray:none"
       vector-effect="non-scaling-stroke" />
    <path
       d="M 57.963 64 L 67.888 64 L 67.888 67 L 78.213 67 L 78.213 64 L 88.138 64 L 88.138 67 L 98.463 67 L 98.463 64 L 108.388 64 L 108.388 67 L 118.713 67 L 118.713 64 L 128.638 64 L 128.638 67 L 140.4 67 L 140.4 57.063 L 143.4 57.063 L 143.4 46.738 L 140.4 46.738 L 140.4 36.8 L 46.2 36.8 L 46.2 46.738 L 43.2 46.738 L 43.2 57.063 L 46.2 57.063 L 46.2 67 L 57.963 67 L 57.963 64 Z"
       id="right_outsideCutPath"
       stroke="#FF0000"
       stroke-width="0.1"
       style="stroke:#FF0000;stroke-width:0.945;stroke-dasharray:none"
       vector-effect="non-scaling-stroke" />
    <path
       d="M 171.663 97.2 L 183.6 97.2 L 183.6 85.638 L 186.6 85.638 L 186.6 75.313 L 183.6 75.313 L 183.6 65.388 L 186.6 65.388 L 186.6 55.063 L 183.6 55.063 L 183.6 45.138 L 186.6 45.138 L 186.6 34.813 L 183.6 34.813 L 183.6 24.888 L 186.6 24.888 L 186.6 14.563 L 183.6 14.563 L 183.6 3 L 171.663 3 L 171.663 0 L 161.338 0 L 161.338 3 L 149.4 3 L 149.4 14.563 L 146.4 14.563 L 146.4 24.888 L 149.4 24.888 L 149.4 34.813 L 146.4 34.813 L 146.4 45.138 L 149.4 45.138 L 149.4 55.063 L 146.4 55.063 L 146.4 65.388 L 149.4 65.388 L 149.4 75.313 L 146.4 75.313 L 146.4 85.638 L 149.4 85.638 L 149.4 97.2 L 161.338 97.2 L 161.338 100.2 L 171.663 100.2 L 171.663 97.2 Z"
       id="bottom_outsideCutPath"
       stroke="#FF0000"
       stroke-width="0.1"
       style="stroke:#FF0000;stroke-width:0.945;stroke-dasharray:none"
       vector-effect="non-scaling-stroke" />
  </g>
  <circle
     style="fill:none;stroke:#000000;stroke-width:0.145;stroke-dasharray:none"
     id="path938"
     cx="158.19536"
     cy="50.042107"
     r="6" />
  <circle
     style="fill:none;stroke:#000000;stroke-width:0.145;stroke-dasharray:none"
     id="path938-3"
     cx="174.36948"
     cy="50.129456"
     r="6" />
  <circle
     style="fill:none;stroke:#000000;stroke-width:0.145;stroke-dasharray:none"
     id="path938-6"
     cx="158.28143"
     cy="25.057573"
     r="6" />
  <circle
     style="fill:none;stroke:#000000;stroke-width:0.145;stroke-dasharray:none"
     id="path938-3-7"
     cx="174.45555"
     cy="25.144922"
     r="6" />
  <circle
     style="fill:none;stroke:#000000;stroke-width:0.145;stroke-dasharray:none"
     id="path938-5"
     cx="158.20798"
     cy="75.00441"
     r="6" />
  <circle
     style="fill:none;stroke:#000000;stroke-width:0.145;stroke-dasharray:none"
     id="path938-3-3"
     cx="174.3821"
     cy="75.091759"
     r="6" />
  <text
     xml:space="preserve"
     transform="matrix(0.26458333,0,0,0.26458333,121.36604,20.751118)"
     id="text1084"
     style="white-space:pre;shape-inside:url(#rect1086);fill:none;stroke:#000000;stroke-width:0.548032;stroke-dasharray:none"><tspan
       x="133.56445"
       y="58.71675"
       id="tspan1223">Up</tspan></text>
  <text
     xml:space="preserve"
     style="font-size:3.175px;fill:none;stroke:#000000;stroke-width:0.145;stroke-dasharray:none"
     x="154.42647"
     y="61.717487"
     id="text1092"><tspan
       style="stroke-width:0.145"
       x="154.42647"
       y="61.717487"
       id="tspan1094">Down</tspan></text>
  <text
     xml:space="preserve"
     style="font-size:3.175px;fill:none;stroke:#000000;stroke-width:0.145;stroke-dasharray:none"
     x="171.28148"
     y="61.559902"
     id="text1150"><tspan
       id="tspan1148"
       style="stroke-width:0.145"
       x="171.28148"
       y="61.559902">Enter</tspan></text>
  <text
     xml:space="preserve"
     style="font-size:3.175px;fill:none;stroke:#000000;stroke-width:0.145;stroke-dasharray:none"
     x="171.17242"
     y="87.640953"
     id="text1154"><tspan
       id="tspan1152"
       style="stroke-width:0.145"
       x="171.17242"
       y="87.640953">Reset</tspan></text>
  <text
     xml:space="preserve"
     style="font-size:3.175px;fill:none;stroke:#000000;stroke-width:0.145;stroke-dasharray:none"
     x="152.53491"
     y="87.671089"
     id="text1158"><tspan
       id="tspan1156"
       style="stroke-width:0.145"
       x="152.53491"
       y="87.671089">Bluetooth</tspan></text>
  <text
     xml:space="preserve"
     style="font-size:3.175px;fill:none;stroke:#000000;stroke-width:0.145;stroke-dasharray:none"
     x="168.00323"
     y="36.245369"
     id="text1162"><tspan
       id="tspan1160"
       style="stroke-width:0.145"
       x="168.00323"
       y="36.245369">Start/Stop</tspan></text>
</svg>
