<?xml version="1.0" encoding="UTF-8" standalone="no"?>
<!-- Created with Inkscape (http://www.inkscape.org/) -->

<svg
   width="191.75621mm"
   height="197.28438mm"
   viewBox="0 0 191.75621 197.28438"
   version="1.1"
   id="svg3763"
   xmlns="http://www.w3.org/2000/svg"
   xmlns:svg="http://www.w3.org/2000/svg">
  <defs
     id="defs3760" />
  <path
     id="path3820"
     style="fill:none;fill-rule:evenodd;stroke:#000000;stroke-width:0.177452"
     d="m 93.114457,92.272028 c 2.47624,2.94907 -2.75358,4.79289 -4.901526,4.11568 -5.820801,-1.8352 -6.112399,-9.52123 -3.329811,-13.91879 4.977397,-7.86621 16.1225,-7.86723 22.93593,-2.54397 9.99899,7.81211 9.68295,22.816672 1.75809,31.953212 C 99.014547,124.05573 80.033092,123.4034 68.606812,112.85039 54.228004,99.570518 55.225468,76.562778 68.420438,62.862688 c 15.980876,-16.592597 43.040012,-15.245519 59.004732,0.59949 18.81387,18.67284 17.11465,49.798312 -1.38534,68.022092 -21.35899,21.04009 -56.560052,18.9872 -77.039137,-2.17119 C 25.731055,105.27155 28.138601,65.988328 51.957756,43.256529 78.679248,17.754945 122.04881,20.517837 147.03129,46.999452 174.76658,76.399178 171.64786,123.85863 142.50251,151.09039 110.42616,181.06072 58.874508,177.58582 29.394574,145.77576 -2.8118276,111.02372 1.0195234,55.377633 35.495075,23.65041 72.921973,-10.792893 132.6636,-6.6048826 166.63741,30.536771 203.31825,70.637958 198.77343,134.4767 158.96519,170.69652 116.19041,209.61545 48.253799,204.71368 9.7884544,162.23844 c -2.194142,-2.42287 -7.937506,-9.83817 -9.67064802,-12.60949 0,0 17.07514762,-13.20959 19.98607262,-15.69786" />
</svg>
