<?xml version="1.0" encoding="UTF-8" standalone="no"?>
<!-- Created with Inkscape (http://www.inkscape.org/) -->

<svg
   width="192.21742mm"
   height="270.7352mm"
   viewBox="0 0 192.21742 270.7352"
   version="1.1"
   id="svg1"
   inkscape:version="1.3 (0e150ed6c4, 2023-07-21)"
   sodipodi:docname="christmass_tree2_base.svg"
   xmlns:inkscape="http://www.inkscape.org/namespaces/inkscape"
   xmlns:sodipodi="http://sodipodi.sourceforge.net/DTD/sodipodi-0.dtd"
   xmlns="http://www.w3.org/2000/svg"
   xmlns:svg="http://www.w3.org/2000/svg">
  <sodipodi:namedview
     id="namedview1"
     pagecolor="#ffffff"
     bordercolor="#000000"
     borderopacity="0.25"
     inkscape:showpageshadow="2"
     inkscape:pageopacity="0.0"
     inkscape:pagecheckerboard="0"
     inkscape:deskcolor="#d1d1d1"
     inkscape:document-units="mm"
     inkscape:zoom="0.83962892"
     inkscape:cx="276.31254"
     inkscape:cy="631.23124"
     inkscape:window-width="2832"
     inkscape:window-height="1744"
     inkscape:window-x="337"
     inkscape:window-y="36"
     inkscape:window-maximized="0"
     inkscape:current-layer="layer1" />
  <defs
     id="defs1" />
  <g
     inkscape:label="Layer 1"
     inkscape:groupmode="layer"
     id="layer1"
     transform="translate(18.25625,38.629166)">
    <path
       d="m 81.442108,231.90962 -99.449269,-0.15911 4.9212,-14.30957 27.914948,0.0566 0.02216,-0.80153 -27.687966,0.0926 9.523748,-28.12418 13.912073,-40.0725 27.846267,-0.0541 0.02216,-0.80153 -27.652188,0.0794 c 4.957222,-14.14713 15.422688,-46.70928 20.495494,-60.818066 l 1.805154,0.0397 26.021019,-0.0575 0.02216,-0.80153 c -9.1986,-0.10507 -18.405384,0.0108 -27.606031,0.0439 7.109022,-20.81237 12.554863,-36.893647 17.73246,-52.048277 9.286838,0.168341 18.583457,0.03428 27.872914,0.01375 l 0.1093,-0.972008 c -9.198605,-0.10508 -18.502704,0.237413 -27.769728,0.0708 8.791433,-24.376846 14.2841,-41.9571685 24.376221,-71.649247 l 9.005366,0.01453 31.38739,100.886133 -25.132179,0.07471 -0.0253,0.94164 25.484359,-0.0302 16.23954,48.197176 -24.70406,-0.0626 -0.033,0.89549 25.10486,0.02 23.14859,66.71512 -25.24376,-0.19794 -0.0152,0.90779 c 8.56096,0.042 14.64021,0.13601 25.41853,0.15914 l 19.19619,51.7698 -90.86216,0.0353 -0.562856,-130.06016 -1.296595,-0.006 z"
       style="fill:none;stroke:#000000;stroke-width:0.3556"
       id="path1"
       sodipodi:nodetypes="ccccccccccccccccccccccccccccccccccccccc" />
  </g>
</svg>
