<?xml version="1.0" encoding="UTF-8" standalone="no"?>
<!-- Created with Inkscape (http://www.inkscape.org/) -->

<svg
   width="210mm"
   height="297mm"
   viewBox="0 0 210 297"
   version="1.1"
   id="svg1"
   xml:space="preserve"
   xmlns="http://www.w3.org/2000/svg"
   xmlns:svg="http://www.w3.org/2000/svg"><defs
     id="defs1" /><g
     id="layer1"><path
       style="fill:#000000;stroke-width:1.28637"
       d="m 144.11289,270.0903 c -1.2991,-0.65553 -2.36198,-1.38827 -2.36198,-1.6283 0,-0.24003 0.97331,-1.89665 2.16291,-3.6814 2.38407,-3.57677 7.6349,-13.10218 7.6349,-13.85028 0,-0.5228 -2.39024,-1.76083 -5.50386,-2.85074 -1.11068,-0.3888 -2.49186,-1.01083 -3.06922,-1.38232 -2.01679,-1.29758 -10.85726,-8.1024 -11.99745,-9.23488 -1.29756,-1.28877 -1.83713,-3.25311 -1.11856,-4.07221 0.36976,-0.42148 0.32532,-0.63553 -0.25831,-1.2442 -1.56652,-1.63375 -3.24698,-4.33396 -3.24698,-5.21736 0,-0.64412 0.3274,-1.17439 1.05992,-1.71674 1.03048,-0.76296 1.05045,-0.83027 0.71874,-2.42403 -0.63949,-3.07257 -1.07881,-6.01709 -1.07881,-7.23062 0,-0.99579 0.15978,-1.26891 0.89758,-1.53428 0.49368,-0.17756 1.32037,-0.32324 1.8371,-0.3237 0.85724,-7.9e-4 1.02199,-0.2254 1.88177,-2.56559 0.51824,-1.41059 1.10828,-3.44631 1.3112,-4.52383 0.50567,-2.6853 1.14488,-3.29404 3.21585,-3.06263 l 1.62017,0.18105 0.7418,-2.22357 c 0.40799,-1.22297 0.7418,-2.48746 0.7418,-2.81 0,-0.32253 0.24024,-1.02593 0.53387,-1.5631 0.61394,-1.12318 1.97192,-1.30852 3.63308,-0.49584 0.97772,0.47832 0.99201,0.47001 2.70481,-1.57245 0.94704,-1.12931 2.49508,-3.09608 3.44011,-4.3706 0.945,-1.27451 1.88517,-2.42674 2.08924,-2.56051 0.7035,-0.46113 2.07759,-0.25152 2.84972,0.43472 0.73459,0.65287 0.82997,0.66074 1.86573,0.15403 0.60037,-0.29371 2.37578,-1.51488 3.94538,-2.71371 4.79441,-3.6619 5.51784,-4.08714 6.95321,-4.08714 1.04392,0 1.50601,0.21354 2.23451,1.03261 l 0.91843,1.03259 2.87433,-1.01498 c 1.58088,-0.55824 4.16949,-1.32306 5.75246,-1.69962 3.64022,-0.86593 7.86696,-2.39933 9.59403,-3.48057 1.86816,-1.1696 2.30883,-1.07781 2.74275,0.57128 1.76605,6.71185 3.55926,10.72899 4.73065,10.59759 0.38492,-0.0432 1.03973,-0.006 1.45514,0.0815 0.79618,0.16863 0.70449,-0.17347 1.88664,7.03896 0.43101,2.62974 0.52669,2.79201 1.90705,3.23432 l 1.04977,0.33638 0.0178,4.45942 c 0.009,2.45269 0.12987,4.76878 0.26676,5.1469 0.15789,0.43613 0.72702,0.79919 1.55675,0.99312 1.18546,0.27704 1.31794,0.42017 1.41534,1.52894 0.0591,0.67279 -0.21646,2.21542 -0.61235,3.42803 -0.93065,2.85053 -0.91633,2.9986 0.32992,3.40961 1.39066,0.45862 1.35691,1.12252 -0.23527,4.62952 -0.85808,1.89002 -1.14875,2.87346 -0.87482,2.95985 0.72816,0.22962 0.4101,2.17778 -0.66068,4.04671 l -1.04316,1.82072 0.88209,0.72897 c 0.5,0.4132 0.88208,1.08572 0.88208,1.55259 0,0.45932 -0.92863,2.12385 -2.09953,3.76326 -1.15474,1.61681 -2.09952,3.09719 -2.09952,3.28975 0,0.19255 0.2362,0.53554 0.52488,0.76221 0.91123,0.71545 0.61638,1.85295 -0.74238,2.864 -1.62715,1.21077 -4.16696,3.6134 -5.31436,5.02732 -0.74751,0.92113 -0.82766,1.20954 -0.48179,1.73348 0.54899,0.83166 0.52762,2.12313 -0.0426,2.57081 -0.72305,0.56769 -4.423,1.37711 -6.29498,1.37711 -1.57475,0 -1.73707,0.0767 -2.10272,0.99312 l -0.39625,0.99312 h -3.43001 c -3.31909,0 -3.44289,0.0268 -3.82859,0.8276 -0.3176,0.65945 -0.65427,0.82761 -1.65693,0.82761 -0.69209,0 -1.80845,-0.15069 -2.48077,-0.33487 -0.67232,-0.18418 -2.24594,-0.48367 -3.49691,-0.66554 -3.74395,-0.54429 -9.24179,-2.54381 -11.59414,-4.21668 -1.14704,-0.81572 -2.13913,-1.42803 -2.20462,-1.36067 -0.28441,0.29247 -5.5205,10.42485 -7.3766,14.27447 -1.11928,2.32144 -2.20588,4.21648 -2.41468,4.2112 -0.20879,-0.005 -1.4425,-0.54594 -2.74158,-1.20147 z m 2.86056,-3.10801 c 1.74399,-3.8353 8.14002,-16.03978 8.52838,-16.27331 0.93757,-0.5638 2.13781,-0.19001 4.00137,1.24613 1.07722,0.83016 2.36569,1.7043 2.86326,1.94256 1.95966,0.93834 6.97111,2.47536 9.12781,2.79954 1.25098,0.18804 2.84868,0.43954 3.55046,0.55889 1.09831,0.18681 1.30864,0.11961 1.51074,-0.48282 0.21814,-0.6502 0.47996,-0.69984 3.69134,-0.69984 3.4262,0 3.46057,-0.008 3.91566,-0.91037 0.38834,-0.77002 0.70143,-0.92284 2.03114,-0.99134 2.0333,-0.10472 5.57044,-0.77052 5.77749,-1.08745 0.0884,-0.13542 -0.0737,-0.43033 -0.36017,-0.65532 -0.28657,-0.225 -0.52103,-0.62424 -0.52103,-0.88721 0,-1.00791 4.78807,-6.40114 6.56191,-7.39126 1.18419,-0.661 1.20225,-0.70117 0.59871,-1.33207 -0.88917,-0.92953 -0.30308,-2.52055 2.06817,-5.61436 1.86023,-2.42707 1.88798,-2.49611 1.23599,-3.07502 -0.91813,-0.81525 -0.85039,-2.66267 0.17393,-4.74389 0.82227,-1.67067 0.82449,-1.70238 0.15665,-2.24335 -0.37257,-0.30179 -0.61976,-0.65647 -0.5493,-0.78817 2.6421,-4.93895 3.05344,-6.36374 1.83723,-6.36374 -0.77538,0 -0.70408,-3.2671 0.12775,-5.8547 0.71498,-2.22405 0.61889,-2.42136 -1.17918,-2.42136 -1.15039,0 -1.38348,-1.04932 -1.39727,-6.28979 l -0.0119,-4.46906 -1.10654,-0.1016 c -1.0725,-0.0985 -1.12278,-0.17483 -1.63425,-2.48282 -0.29023,-1.30969 -0.6138,-3.28738 -0.71905,-4.39486 -0.26535,-2.79215 -0.44043,-3.12123 -1.55819,-2.92877 -0.51185,0.0881 -1.10716,0.0445 -1.32291,-0.097 -0.77459,-0.508 -2.72733,-4.62041 -3.65897,-7.7057 -0.63031,-2.08736 -1.10901,-3.1256 -1.42355,-3.08752 -0.26063,0.0316 -1.7336,0.51871 -3.27325,1.08251 -1.53967,0.56383 -4.35693,1.4025 -6.2606,1.86375 -1.90368,0.46124 -4.83372,1.35207 -6.51121,1.97962 -1.67749,0.62756 -3.18621,1.14102 -3.35272,1.14102 -0.16649,0 -0.85814,-0.60579 -1.53698,-1.34617 l -1.23428,-1.34618 -2.27449,1.77043 c -4.04267,3.14674 -6.50172,4.83555 -8.13226,5.58498 l -1.59588,0.73351 -0.95683,-0.71204 c -0.52626,-0.39162 -1.0872,-0.71203 -1.24653,-0.71203 -0.15933,0 -0.92235,0.88137 -1.69562,1.95862 -1.50206,2.09254 -5.57026,7.00783 -6.08557,7.35273 -0.47284,0.31648 -1.5176,-0.0354 -2.189,-0.73727 -0.84905,-0.88757 -1.49847,-0.78118 -1.71695,0.28128 -0.46247,2.24903 -0.89455,3.74655 -1.58386,5.4895 -0.81418,2.05867 -1.40119,2.31929 -2.99649,1.3304 -1.12861,-0.69958 -1.44155,-0.38907 -1.89623,1.88158 -0.19924,0.99501 -0.84968,3.18706 -1.44543,4.87124 l -1.08317,3.06213 h -1.74988 c -1.64634,0 -1.73693,0.0441 -1.53075,0.74486 0.12048,0.40966 0.39469,1.78762 0.60927,3.06212 0.21458,1.27452 0.68545,3.20279 1.0464,4.28506 0.83907,2.51587 0.84111,2.5013 -0.35064,2.5013 -2.03881,0 -1.95479,0.67288 0.48395,3.87618 2.41939,3.1779 2.68746,3.89964 1.57273,4.23435 -0.38491,0.11561 -0.69985,0.31742 -0.69985,0.44856 0,0.63403 8.24791,7.28073 12.25347,9.87465 0.86946,0.56304 2.90066,1.51712 4.5138,2.12017 6.22649,2.32775 6.38251,2.80525 3.03518,9.29021 -1.25445,2.4303 -3.31459,6.05624 -4.5781,8.05768 -2.09907,3.325 -2.24535,3.67488 -1.6955,4.05525 0.90772,0.62794 1.02035,0.5512 1.84143,-1.25444 z m -82.905202,-0.35136 c -1.25097,-0.74456 -2.724055,-1.74868 -3.273519,-2.23138 -1.540225,-1.35311 -3.654131,-4.45462 -5.36514,-7.87171 l -1.553599,-3.10273 h -1.880142 c -2.710996,0 -7.05523,-1.07178 -9.464789,-2.3351 -7.237443,-3.79453 -16.666113,-11.73149 -20.821589,-17.52741 -4.058981,-5.66132 -7.689719,-13.73838 -9.040847,-20.11255 -1.550748,-7.31591 -1.704917,-12.76973 -0.720346,-25.48276 0.519519,-6.70818 2.949395,-15.58425 6.096066,-22.26826 0.814299,-1.7297 1.857275,-4.07595 2.317725,-5.21392 0.615604,-1.52139 1.010949,-2.069 1.493716,-2.069 0.361093,0 2.015276,0.72641 3.675962,1.61425 1.660686,0.88784 4.119631,2.18111 5.464323,2.87392 3.186796,1.64193 8.280857,4.9424 12.240011,7.93039 2.809665,2.12045 6.555803,5.838 13.339022,13.23717 4.314405,4.7062 8.896524,12.37523 10.979435,18.37616 3.618833,10.42596 4.090459,19.35993 1.625065,30.78356 -1.795208,8.31826 -3.624711,12.3447 -7.298383,16.06257 l -2.62381,2.65538 0.657772,1.58422 c 1.519018,3.65846 5.058496,7.63985 8.34373,9.38545 0.966514,0.51357 1.757458,1.12383 1.757654,1.35615 5.83e-4,0.69174 -2.554096,3.71588 -3.136153,3.71248 -0.29572,-0.001 -1.561194,-0.61233 -2.812164,-1.35688 z m 2.948751,-1.51013 c 0.203073,-0.50066 -0.288416,-1.08438 -0.923898,-1.09728 -0.680415,-0.0138 -5.004318,-4.32238 -6.079527,-6.05796 -1.403964,-2.26625 -2.943764,-5.70122 -2.943764,-6.56692 0,-0.3235 0.544277,-0.98091 1.209504,-1.46093 1.920694,-1.38595 4.935666,-5.10707 5.891559,-7.27147 1.414492,-3.20277 2.95608,-8.3122 3.79544,-12.57958 0.616626,-3.13498 0.785285,-5.22877 0.799981,-9.93125 0.02141,-6.85181 -0.63624,-10.54427 -2.989793,-16.78644 -3.424191,-9.08178 -7.545541,-14.88484 -18.880042,-26.58398 -3.840426,-3.96396 -12.054833,-9.72262 -18.520246,-12.98348 -2.020799,-1.01921 -4.106134,-2.13589 -4.634077,-2.48153 -0.939565,-0.61514 -1.664518,-0.55904 -1.664518,0.12877 0,0.18989 -0.929895,2.37838 -2.066435,4.86333 -4.26424,9.3234 -5.787078,15.36248 -6.5653,26.03581 -0.647978,8.88705 -0.412787,14.05407 0.919166,20.19355 1.346198,6.20516 4.738243,13.70491 8.752196,19.35094 4.506722,6.33917 13.155454,13.66452 21.005455,17.7913 2.274664,1.19581 6.224222,2.08622 9.253748,2.08622 h 2.169464 l 0.963267,2.23453 c 2.224199,5.15957 4.710048,8.40757 8.07928,10.55636 2.006121,1.27944 2.125551,1.30698 2.42854,0.56001 z m 48.226381,-82.95244 c -2.11905,-4.96149 -4.06057,-9.57952 -4.31446,-10.2623 -0.2539,-0.68278 -0.5585,-1.24141 -0.67688,-1.24141 -0.11836,0 -0.5837,0.85658 -1.03406,1.90349 -1.23215,2.86439 -3.2969,4.95171 -6.8745,6.94964 -1.70944,0.95465 -3.469934,1.73674 -3.912193,1.73798 -0.44226,0.001 -1.161405,-0.39074 -1.598101,-0.87104 -0.733765,-0.80703 -0.886444,-0.8444 -2.012811,-0.49273 -2.721041,0.84958 -7.46031,1.42036 -13.279995,1.5994 -5.847492,0.17991 -6.37276,0.14306 -10.760099,-0.75471 -3.721252,-0.76147 -4.612501,-1.05282 -4.612501,-1.5078 0,-0.37294 1.392546,-1.31786 4.111582,-2.7899 4.087335,-2.21282 7.455841,-4.48566 9.98173,-6.73498 1.563078,-1.39194 1.293314,-1.62694 -1.910649,-1.66441 -2.505667,-0.0293 -5.674976,-0.64335 -12.48794,-2.41946 -3.000057,-0.7821 -5.458853,-1.59884 -5.559366,-1.84663 -0.10054,-0.24788 0.644194,-1.23408 1.68446,-2.23059 1.025576,-0.98243 1.795178,-1.8435 1.710227,-1.91346 -0.08495,-0.0699 -1.768474,-1.11201 -3.741158,-2.31569 -1.972686,-1.20366 -3.5867,-2.33106 -3.5867,-2.50532 0,-0.17426 0.493286,-0.68207 1.09619,-1.12845 l 1.096191,-0.81162 -4.945332,-5.33816 c -2.719931,-2.93598 -4.94533,-5.47764 -4.94533,-5.64816 0,-0.17051 0.118102,-0.37731 0.26244,-0.45958 0.227006,-0.12937 6.838973,0.36555 12.11024,0.90647 l 1.70006,0.17447 -0.234334,-1.47835 c -0.211533,-1.3345 -0.165755,-1.47834 0.47048,-1.47834 0.387649,0 2.609217,0.67036 4.936817,1.48969 2.327602,0.81933 4.382057,1.48969 4.565456,1.48969 0.183398,0 0.333452,-0.74952 0.333452,-1.6656 0,-1.19318 0.152592,-1.721 0.537976,-1.8609 0.922295,-0.33482 6.728901,2.22131 9.902663,4.35926 3.001016,2.02158 5.609168,3.1297 6.793015,2.88614 1.406712,-0.2894 0.556263,-1.74358 -5.161234,-8.82509 -7.174064,-8.88557 -6.766959,-8.27332 -6.020225,-9.05393 0.567851,-0.59361 0.528215,-0.74857 -0.802856,-3.13872 -0.770109,-1.38284 -1.400198,-2.74883 -1.400198,-3.03553 0,-0.70285 1.040202,-0.66918 5.11224,0.16546 1.842731,0.3777 3.402271,0.63768 3.465643,0.57774 0.06338,-0.0599 -0.501446,-2.34283 -1.255152,-5.07304 -0.753705,-2.73023 -1.371203,-5.24263 -1.372217,-5.58314 -0.0016,-0.55146 0.225462,-0.60356 2.078178,-0.47678 l 2.08002,0.14233 0.202814,-1.17844 c 0.234435,-1.36216 1.584839,-11.318399 1.585429,-11.689011 0.0011,-0.925959 1.599158,0.351446 5.486109,4.386311 2.455572,2.54903 4.558352,4.63459 4.672845,4.63459 0.114492,0 0.660741,-0.44691 1.2139,-0.99312 1.926504,-1.90234 2.268634,-1.59028 4.547134,4.14747 1.12277,2.82734 2.14918,5.09912 2.28093,5.0484 0.13173,-0.0506 1.39305,-1.32715 2.80289,-2.83648 1.52516,-1.63281 2.78665,-2.70417 3.11471,-2.64529 0.41452,0.0744 0.67349,0.89932 1.04342,3.32359 0.46223,3.02917 0.54176,3.22459 1.31221,3.22459 0.81578,0 0.81996,0.0208 0.78395,3.88975 -0.0199,2.13936 -0.14457,6.34772 -0.27702,9.35194 -0.2007,4.55218 -0.15294,5.61384 0.28661,6.37255 0.29008,0.5007 0.80688,0.91036 1.14842,0.91036 1.00542,0 2.88132,-2.82517 3.92247,-5.90739 1.20312,-3.56174 4.49477,-8.98948 5.45166,-8.98948 0.36627,0 1.08631,0.52138 1.60009,1.15863 0.51378,0.63727 1.03356,1.15592 1.15506,1.15259 0.12154,-0.003 1.40189,-1.71375 2.84533,-3.80091 1.65362,-2.39113 2.84759,-3.7971 3.22779,-3.80093 0.33185,-0.003 0.84764,0.44085 1.14622,0.98707 0.29856,0.54622 0.60127,0.99313 0.67266,0.99313 0.0714,0 2.31123,-1.78478 4.9774,-3.96616 2.66618,-2.18139 5.12316,-3.96902 5.45997,-3.97251 0.76706,-0.008 0.76654,0.0377 -0.0875,7.44209 -0.89977,7.80122 -0.96807,7.1174 0.71082,7.1174 0.81062,0 1.48254,0.17717 1.57962,0.41651 0.093,0.22907 -0.54993,2.1084 -1.42853,4.1763 -0.87861,2.06788 -1.55007,3.80444 -1.49214,3.85902 0.058,0.0545 1.27343,0.29804 2.70108,0.54105 1.42764,0.243 2.65264,0.604 2.72222,0.80221 0.28431,0.80985 -9.31658,11.49511 -11.96646,13.31802 -2.47048,1.69949 -2.79086,2.15498 -1.71211,2.43411 2.79555,0.72338 11.76727,0.59702 17.19615,-0.24222 0.95049,-0.14695 1.13724,-0.0721 1.13724,0.45557 0,1.00581 -5.43782,6.50165 -8.72041,8.81344 -3.23934,2.28133 -10.11014,5.84624 -13.49962,7.0043 -2.0019,0.68396 -2.10463,0.77377 -2.20917,1.93099 -0.1375,1.52239 -0.63782,1.72175 -5.09817,2.0315 -4.07571,0.28302 -7.02838,-0.2059 -9.4067,-1.55766 -0.91706,-0.52124 -1.72361,-0.94769 -1.79234,-0.94769 -0.0688,0 1.0538,2.56971 2.4945,5.71047 3.25585,7.09774 5.68736,13.09867 5.68839,14.03889 6.4e-4,0.5807 -0.40499,0.84409 -2.16669,1.40692 -1.19211,0.38086 -2.35279,0.69248 -2.5793,0.69248 -0.22649,0 -2.14559,-4.05941 -4.26465,-9.02089 z m 6.31458,6.51857 c 0.6269,-0.2276 -0.36347,-2.82114 -4.79188,-12.54871 -1.65491,-3.63521 -3.00893,-6.99445 -3.00893,-7.465 0,-1.98848 1.73893,-2.15904 4.65456,-0.45651 3.3338,1.94671 6.66573,2.41783 11.17941,1.58069 0.84208,-0.15619 0.96228,-0.33125 0.96228,-1.40146 v -1.22297 l 2.7119,-0.93456 c 6.45757,-2.22537 15.31188,-7.61892 18.27602,-11.13273 l 0.97741,-1.15865 -7.04604,-0.0232 c -3.87532,-0.0126 -7.6759,-0.16757 -8.44571,-0.34415 -1.32346,-0.30356 -1.40546,-0.39501 -1.50544,-1.67893 -0.10059,-1.29171 -0.007,-1.43624 1.91934,-2.96627 1.11381,-0.88461 2.94795,-2.5022 4.07586,-3.59464 2.37478,-2.30007 7.39756,-8.06482 7.19434,-8.25708 -0.0759,-0.0719 -1.08246,-0.2548 -2.23685,-0.40673 -2.67655,-0.35224 -2.7236,-0.61121 -0.88667,-4.88089 0.7767,-1.80533 1.41218,-3.38094 1.41218,-3.50136 0,-0.12037 -0.45376,-0.15596 -1.00833,-0.079 -0.55458,0.0769 -1.11192,-0.0186 -1.23856,-0.21242 -0.20355,-0.31158 0.54439,-8.36853 1.04109,-11.21492 0.10325,-0.59173 0.0625,-1.07428 -0.0906,-1.07232 -0.15306,0.002 -2.21482,1.56614 -4.58168,3.47594 -2.36686,1.90981 -4.50672,3.47238 -4.75526,3.47238 -0.24852,0 -0.6432,-0.39725 -0.87704,-0.88277 l -0.42513,-0.88278 -1.993,2.76568 c -1.09614,1.52113 -2.41559,3.22185 -2.93211,3.77938 l -0.93911,1.01372 -1.3924,-1.28047 -1.39241,-1.28045 -0.85011,1.28045 c -1.32543,1.99647 -1.56586,2.49063 -2.87029,5.89975 -1.51071,3.94824 -2.9292,5.88446 -4.97868,6.79585 -0.84933,0.37769 -1.69186,0.60038 -1.87229,0.49489 -0.18042,-0.10548 -0.79584,-0.83502 -1.36755,-1.62116 l -1.03951,-1.42936 0.32457,-7.07808 c 0.48578,-10.59393 0.47695,-10.88508 -0.33057,-10.88508 -0.77544,0 -0.93713,-0.39747 -1.2785,-3.14291 l -0.24675,-1.98427 -2.7232,2.77368 c -1.6344,1.66471 -2.91347,2.70459 -3.19912,2.6009 -0.26177,-0.0949 -1.39953,-2.49859 -2.52838,-5.34123 -1.12883,-2.84265 -2.12362,-5.16846 -2.21063,-5.16846 -0.087,0 -0.62605,0.37243 -1.19785,0.82761 -0.571799,0.45517 -1.2437,0.82761 -1.493114,0.82761 -0.249402,0 -1.13381,-0.70761 -1.965333,-1.57245 -4.262764,-4.43359 -6.311057,-6.44932 -6.434663,-6.33238 -0.121914,0.11535 -1.590501,9.9068 -1.590501,10.60433 0,0.15393 -0.78732,0.27987 -1.749605,0.27987 -0.962284,0 -1.749609,0.0938 -1.749609,0.20856 0,0.11474 0.661917,2.64169 1.470928,5.61549 0.80901,2.97381 1.360102,5.51176 1.224651,5.63992 -0.135451,0.12813 -1.860257,-0.0914 -3.8329,-0.48763 -1.972643,-0.39633 -3.703254,-0.71912 -3.8458,-0.71733 -0.142545,0.001 0.247349,0.97504 0.866431,2.16273 0.909017,1.74392 1.049394,2.27489 0.729539,2.75943 -0.339627,0.5145 0.397062,1.57953 5.169723,7.47402 l 5.565785,6.87404 v 2.26022 2.26021 l -1.897884,0.22434 c -2.642776,0.31237 -4.924961,-0.47757 -8.589367,-2.97307 -2.642197,-1.79937 -6.008154,-3.49342 -6.941149,-3.49342 -0.180099,0 -0.431896,0.74485 -0.559548,1.6552 -0.290137,2.06916 -0.411993,2.07675 -5.324573,0.33106 -2.049502,-0.72831 -3.874346,-1.32418 -4.055209,-1.32418 -0.180864,0 -0.277608,0.48416 -0.214989,1.07589 l 0.113857,1.07589 -1.749608,-0.10687 c -0.962285,-0.0588 -3.166794,-0.2424 -4.898908,-0.40807 -1.732113,-0.16568 -3.67047,-0.30383 -4.307461,-0.30698 l -1.158165,-0.006 4.219982,4.51452 c 2.320989,2.48297 4.21998,4.77381 4.21998,5.09076 0,0.31694 -0.354295,0.8016 -0.787324,1.07701 -0.433028,0.27541 -0.708591,0.56779 -0.612363,0.64971 0.09622,0.082 1.710243,1.08184 3.5867,2.222 1.876455,1.14016 3.411739,2.23882 3.411739,2.44143 0,0.20262 -0.724757,1.06451 -1.61057,1.91532 l -1.61057,1.54694 1.173168,0.3476 c 6.08006,1.80151 12.114285,3.03659 14.835861,3.03659 4.548324,0 5.605184,1.70511 2.696155,4.3499 -2.536232,2.30585 -6.300457,4.9974 -8.919894,6.37801 -1.297371,0.68381 -2.433754,1.35794 -2.525294,1.49805 -0.09155,0.14012 1.179976,0.52209 2.825591,0.8488 4.766171,0.94623 14.781064,0.30361 20.2545,-1.29968 2.343049,-0.68633 2.954844,-0.65239 3.934385,0.21819 l 0.830188,0.73783 1.991738,-0.98612 c 2.82522,-1.39878 5.64752,-4.19758 6.68155,-6.62585 1.14929,-2.69901 1.31433,-2.85091 2.97216,-2.73546 l 1.42391,0.0991 1.1246,2.64833 c 0.61854,1.45658 2.41153,5.6277 3.98444,9.26917 1.5729,3.64147 2.9946,6.95602 3.15932,7.36568 0.30917,0.76892 0.59406,0.87748 1.4691,0.55982 z M 19.349008,126.0926 c -1.001205,-0.66307 -1.820374,-1.4213 -1.820374,-1.68496 0,-0.26367 1.546551,-2.81226 3.436779,-5.66354 6.914894,-10.43067 6.866043,-10.30815 4.820957,-12.09139 -2.283301,-1.99095 -6.798878,-7.801654 -7.561711,-9.730506 -1.019983,-2.57906 -1.745791,-5.304426 -1.745791,-6.555349 0,-1.465178 0.659602,-3.081068 1.41349,-3.462776 1.708061,-0.864801 5.745882,0.151099 8.500316,2.138657 0.646137,0.466238 1.281029,0.84771 1.410872,0.84771 0.463989,0 -0.218793,-1.872668 -1.870839,-5.131146 -5.827906,-11.494908 -6.546149,-13.408758 -5.957993,-15.875857 0.472588,-1.982333 1.415026,-2.950696 3.195693,-3.283592 1.376236,-0.257286 1.793962,-0.174303 3.696711,0.734377 1.179831,0.563444 3.098402,1.859369 4.263489,2.879836 l 2.118341,1.855392 0.230749,-0.869771 c 0.297646,-1.121928 5.21e-4,-2.807617 -0.869341,-4.932066 -0.381714,-0.932248 -1.131399,-2.96123 -1.665968,-4.508851 -2.356768,-6.823037 -0.377513,-12.864993 3.962082,-12.094806 2.189968,0.388675 4.256135,1.443556 6.073694,3.100926 l 1.79866,1.640137 0.69305,-1.040476 c 0.6116,-0.918196 0.668063,-1.410064 0.480444,-4.185371 -0.279908,-4.140423 0.248135,-7.453814 1.588086,-9.96502 1.20071,-2.250256 2.372915,-2.946509 4.957131,-2.944374 1.891494,0.0015 3.381969,0.849885 4.88251,2.778942 0.640685,0.823649 1.32902,1.503353 1.529634,1.510455 0.200613,0.0071 0.9844,-1.290567 1.74175,-2.883707 2.720613,-5.723007 6.191795,-7.09903 10.231683,-4.055976 l 1.73306,1.305432 1.816451,-2.611257 c 2.426385,-3.488076 3.759816,-4.426822 6.524603,-4.593371 1.65188,-0.09951 2.452542,0.02317 3.510758,0.537929 2.516356,1.224055 4.388583,2.731047 4.937762,3.974499 1.023627,2.31771 0.05274,6.111096 -2.409188,9.412988 -0.838771,1.124945 -0.633133,1.456589 1.417761,2.286483 2.63633,1.066794 3.198545,1.752392 3.196275,3.897753 -0.0033,2.751339 -0.494487,3.912485 -2.802535,6.619845 -1.15193,1.35122 -2.094419,2.556354 -2.094419,2.678076 0,0.121728 1.124512,0.411432 2.498914,0.643799 1.976732,0.334203 2.75872,0.647735 3.742233,1.500424 1.13203,0.981449 1.255435,1.266922 1.378706,3.189231 0.125964,1.964394 0.0543,2.217072 -1.030344,3.631576 -1.76658,2.303902 -3.402011,3.484475 -7.078571,5.109844 -1.841755,0.814218 -3.478788,1.480398 -3.637854,1.480398 -0.45571,0 -2.556479,2.052781 -2.439765,2.384032 0.05771,0.163815 1.186372,0.655336 2.508117,1.092271 1.394488,0.460982 3.081046,1.337124 4.018193,2.087393 1.559725,1.248697 1.61858,1.362365 1.719009,3.319919 0.103009,2.007875 0.08924,2.040911 -1.463286,3.509665 -0.861999,0.815491 -2.157468,1.716004 -2.878817,2.001142 -1.282621,0.506997 -7.501632,1.598115 -11.335533,1.988798 -1.934131,0.197093 -4.669233,1.370834 -4.636236,1.989605 0.0097,0.182074 1.003907,0.657965 2.209329,1.057526 2.344079,0.777014 5.643323,2.749251 6.47246,3.869145 0.828974,1.119668 0.641978,3.448717 -0.378517,4.714453 -1.40001,1.736474 -4.073266,2.352014 -10.488391,2.415024 -9.868063,0.097 -12.238873,0.21283 -13.049682,0.6379 -0.776012,0.40684 -0.734017,0.45302 1.276256,1.40335 1.14327,0.54048 2.724709,1.64574 3.51431,2.45613 1.277771,1.31143 1.435639,1.65364 1.435639,3.11204 0,1.36319 -0.15035,1.75046 -0.894604,2.30431 -1.271116,0.9459 -3.695386,1.6228 -7.287321,2.03474 -2.850365,0.3269 -3.474132,0.28435 -7.523322,-0.51312 -2.428393,-0.47826 -5.081613,-1.09998 -5.896041,-1.38158 -2.571738,-0.88924 -2.840511,-0.63891 -8.2578,7.69076 -3.274173,5.0344 -5.034022,7.44152 -5.440506,7.44152 -0.330458,0 -1.420002,-0.5425 -2.421208,-1.20557 z m 4.851393,-5.50102 c 1.456217,-2.22875 3.424527,-5.26901 4.374025,-6.75616 0.949496,-1.48712 2.144316,-2.93956 2.655153,-3.22765 1.03351,-0.58283 4.180929,-0.70608 5.175217,-0.20267 0.993345,0.50295 8.663977,1.99619 10.254169,1.99619 3.53279,0 8.163486,-1.37938 8.571362,-2.55323 0.246448,-0.70927 -2.478145,-3.09351 -4.963779,-4.3437 -2.874638,-1.44586 -3.417275,-2.33346 -2.156034,-3.52665 1.287424,-1.21797 2.873311,-1.42753 12.428964,-1.64244 9.731222,-0.21888 11.20784,-0.491782 12.462511,-2.303331 0.540509,-0.780418 0.545374,-0.929708 0.05343,-1.63999 -0.715054,-1.032424 -3.413658,-2.701675 -5.438967,-3.364327 -3.31181,-1.083566 -4.065017,-1.568798 -4.18035,-2.693045 -0.198146,-1.931502 2.7574,-3.615621 7.173626,-4.087653 4.576256,-0.489136 7.547139,-0.976815 9.328001,-1.531219 1.987806,-0.618829 4.775909,-2.971472 4.775909,-4.029984 0,-0.979986 -3.011593,-3.172685 -5.329143,-3.880074 -3.512719,-1.072195 -4.095109,-1.932048 -2.850636,-4.208747 0.801057,-1.465491 1.643168,-2.03985 5.021838,-3.425122 4.592031,-1.882757 6.893906,-3.494772 8.460362,-5.924837 0.90813,-1.408801 0.809582,-2.069743 -0.490994,-3.292844 -0.877098,-0.824847 -1.657555,-1.165171 -3.41174,-1.487701 -1.25097,-0.230008 -2.471324,-0.571404 -2.711896,-0.758656 -0.24057,-0.187253 -0.437402,-0.99215 -0.437402,-1.788659 0,-1.174513 0.221416,-1.682989 1.171599,-2.690561 2.131992,-2.260763 3.317263,-4.06401 3.558254,-5.413454 0.285545,-1.598945 -0.199365,-2.236567 -2.37825,-3.127229 -3.46067,-1.414616 -3.794723,-2.631848 -1.621979,-5.910191 3.098541,-4.675227 2.933166,-6.540174 -0.781359,-8.811451 -2.8177,-1.722906 -3.487439,-1.86471 -5.104899,-1.080868 -1.262819,0.611979 -3.78549,3.438287 -5.062306,5.671619 -0.513855,0.898805 -0.787092,1.042641 -1.980629,1.042641 -1.086893,0 -1.765212,-0.284667 -3.155277,-1.324166 -0.973907,-0.728291 -2.042471,-1.324167 -2.374587,-1.324167 -1.507559,0 -3.167603,1.661776 -4.625523,4.630344 -1.7388,3.540493 -2.161134,3.978665 -3.826701,3.970207 -1.14568,-0.0059 -1.461429,-0.215113 -2.871693,-1.903489 -0.871465,-1.043323 -2.034602,-2.101048 -2.584746,-2.3505 -1.599381,-0.725202 -3.042724,0.118175 -4.279198,2.500426 -0.951295,1.83281 -1.007899,2.198092 -1.174427,7.578887 -0.165231,5.338855 -0.223614,5.722124 -1.049766,6.891339 -0.78698,1.113778 -0.99776,1.222587 -2.099532,1.083819 -0.890336,-0.112144 -1.757261,-0.646964 -3.175175,-1.958837 -2.14861,-1.987923 -4.901733,-3.250799 -5.851409,-2.684081 -0.304211,0.181538 -0.854651,0.879772 -1.2232,1.551632 -1.08058,1.969879 -0.836609,4.0582 1.141887,9.774216 2.550502,7.368587 2.417567,10.972098 -0.404766,10.972098 -0.838792,0 -1.587934,-0.457897 -3.411031,-2.084922 -2.17353,-1.939769 -4.941694,-3.542789 -6.117839,-3.542789 -0.276814,0 -0.845769,0.409664 -1.264343,0.910364 -1.161514,1.389407 -0.755226,3.322299 1.706583,8.118974 1.142324,2.225748 2.191008,4.40467 2.330406,4.842051 0.1394,0.43738 0.679829,1.480161 1.200956,2.317293 1.769798,2.84298 2.605553,6.397144 1.908422,8.115814 -0.406373,1.001859 -2.286204,0.622413 -4.429277,-0.894058 -2.494817,-1.765363 -4.946171,-2.684405 -5.888069,-2.207511 -1.084912,0.549292 -0.996161,2.335038 0.301953,6.075644 0.741956,2.137989 1.41853,3.226715 3.702986,5.958765 1.537338,1.83853 3.487605,4.05487 4.333925,4.92519 l 1.538766,1.5824 -0.246838,1.89353 c -0.243477,1.86776 -1.995765,4.93151 -7.297866,12.75984 -1.255086,1.85307 -1.424233,2.87529 -0.474731,2.86895 0.246613,-0.001 1.639835,-1.82652 3.096051,-4.05527 z m 139.128859,3.80998 c -0.087,-0.13656 -0.81609,-2.25936 -1.62028,-4.71734 -1.09865,-3.35795 -1.62778,-5.77501 -2.12817,-9.72171 -0.36629,-2.88894 -0.85533,-5.46848 -1.08677,-5.73229 -0.69486,-0.79208 -2.13319,-1.36113 -6.12434,-2.42293 -4.30543,-1.14542 -10.65373,-2.355681 -16.56746,-3.158465 -3.6817,-0.499798 -4.20948,-0.663277 -6.20279,-1.921235 -2.69342,-1.699805 -2.7752,-2.274663 -0.59409,-4.176657 0.88068,-0.767985 1.54991,-1.433298 1.48717,-1.478472 -0.0626,-0.04514 -1.18266,-0.480104 -2.48867,-0.9665 -2.76158,-1.028491 -5.14873,-2.379662 -5.14873,-2.91427 0,-0.205227 0.26703,-0.557875 0.5934,-0.783647 0.52883,-0.36582 0.44098,-0.484063 -0.80702,-1.086399 -1.39327,-0.67244 -3.98544,-3.818675 -3.98544,-4.837306 0,-0.604687 3.21708,-1.518271 5.34642,-1.518271 0.86049,0 2.04603,-0.09111 2.63453,-0.202455 0.97054,-0.183634 1.03943,-0.278535 0.74109,-1.020904 -0.18092,-0.450149 -0.25478,-0.93195 -0.16416,-1.070671 0.0906,-0.138721 1.7845,-0.342682 3.76418,-0.453249 6.0254,-0.336522 10.95771,1.293316 15.82923,5.230636 1.79174,1.448132 2.74315,1.806474 3.14857,1.185883 0.61795,-0.945914 -1.95067,-3.446454 -9.5501,-9.296951 -2.43026,-1.870968 -4.08713,-3.55181 -6.72342,-6.820693 -3.46895,-4.301338 -4.17877,-5.599082 -4.17877,-7.639918 0,-0.999884 0.0862,-1.070015 1.57465,-1.28118 0.86606,-0.122866 1.57312,-0.318204 1.57126,-0.434086 -0.001,-0.115885 -0.55284,-0.864591 -1.22439,-1.663797 -0.67153,-0.799208 -1.38869,-2.065443 -1.59365,-2.813856 -0.20496,-0.748413 -0.51918,-1.882142 -0.69824,-2.519399 -0.17906,-0.637255 -0.32645,-1.558444 -0.32752,-2.047089 -0.002,-1.021492 -0.45458,-1.040238 5.80796,0.240706 3.95629,0.809226 4.07736,0.86191 8.28797,3.606903 2.35016,1.532125 5.05443,3.541413 6.00947,4.465083 0.95506,0.923671 1.86049,1.679402 2.01206,1.679402 0.45372,0 0.33277,-0.978121 -0.96941,-7.839848 -0.94564,-4.98305 -1.24177,-7.436036 -1.23159,-10.201933 l 0.0134,-3.641459 1.7143,-3.144898 c 0.94287,-1.729693 1.96848,-3.192882 2.27916,-3.251529 0.8853,-0.167126 3.66255,2.200199 5.31497,4.530486 l 1.50356,2.120339 0.20702,-1.285846 c 0.11387,-0.707214 0.68601,-2.836823 1.27145,-4.732464 1.55616,-5.038859 3.50874,-7.373635 4.86945,-5.822553 0.2396,0.273111 0.55891,0.496563 0.70961,0.496563 0.15069,0 1.31024,-1.340719 2.57678,-2.979376 1.26655,-1.638657 2.52265,-2.979376 2.79136,-2.979376 0.35653,0 0.54999,0.693278 0.71591,2.565574 0.42057,4.745467 0.52201,5.102955 1.375,4.845666 1.69126,-0.510145 1.79796,-0.406952 1.92112,1.857932 0.1325,2.436679 -0.42944,5.933036 -1.36863,8.515557 -0.3494,0.960707 -0.52652,1.746739 -0.39364,1.746739 0.13291,0 1.93595,-0.471088 4.00679,-1.046862 2.07082,-0.575776 3.87236,-0.945427 4.00341,-0.821448 0.13107,0.123979 -0.0948,2.460178 -0.50187,5.191556 l -0.74015,4.966141 -1.84702,2.227862 c -1.01586,1.225323 -3.07393,3.551218 -4.57349,5.168656 -2.43275,2.623956 -3.08245,3.514521 -2.56396,3.514521 0.28593,0 3.35619,-1.680517 5.77744,-3.162291 1.29044,-0.789748 4.06418,-2.04952 6.16386,-2.799493 3.33431,-1.190962 4.30095,-1.388489 7.63567,-1.560292 l 3.81807,-0.196706 -0.2208,3.280068 -0.22081,3.280068 -2.19758,1.8742 c -1.20866,1.030811 -2.11885,1.941688 -2.0226,2.024171 0.0962,0.08248 0.52925,0.324357 0.96227,0.537499 0.43302,0.213142 0.78733,0.630756 0.78733,0.928032 0,1.158436 -4.31725,7.067479 -6.46999,8.8555 -2.24399,1.863819 -7.04241,4.766988 -11.11064,6.722243 -2.0544,0.987374 -3.06476,1.824925 -3.06476,2.540562 0,0.781593 2.92483,-0.506487 8.21564,-3.618139 3.32173,-1.953582 3.74673,-2.107698 8.05572,-2.921281 2.50195,-0.472391 5.62956,-0.962046 6.95027,-1.088122 l 2.40126,-0.229228 -0.23092,0.994672 c -0.22989,0.990213 -0.22261,0.995616 1.62283,1.205294 1.01956,0.115846 2.44424,0.211915 3.16596,0.213498 1.91394,0.0042 1.70888,0.763574 -0.8748,3.239539 -1.91939,1.839366 -2.11208,2.136159 -1.57466,2.42541 0.97532,0.524925 0.74181,1.025593 -1.39968,3.00116 -2.16133,1.993856 -4.37837,3.428332 -5.83212,3.773518 -0.49714,0.118036 -0.90388,0.324113 -0.90388,0.457954 0,0.13383 0.78731,0.87139 1.74961,1.63902 0.96228,0.76763 1.74962,1.612787 1.74962,1.878119 0,0.265322 -1.61494,1.489354 -3.58877,2.720066 -3.8683,2.411962 -5.24801,2.879396 -13.38246,4.533931 -7.89912,1.606665 -11.12855,2.819505 -12.94475,4.861485 -0.67577,0.75978 -0.85318,1.26083 -0.72461,2.04663 0.0937,0.5723 0.27056,2.35926 0.39317,3.97104 0.14699,1.9324 0.7444,4.66503 1.75403,8.02322 0.84213,2.80097 1.44013,5.31703 1.32892,5.59122 -0.11127,0.27417 -1.00175,0.72314 -1.97895,0.99768 -2.03107,0.57061 -2.24866,0.59274 -2.46636,0.25088 z m 2.21634,-2.42449 c 0,-0.19551 -0.5382,-2.16935 -1.19601,-4.3863 -1.08073,-3.64241 -1.95328,-9.66042 -1.95328,-13.47203 0,-2.79958 4.94552,-5.33378 13.55148,-6.944056 7.09005,-1.32663 10.2016,-2.300585 13.04258,-4.082506 1.44342,-0.905349 2.68173,-1.690314 2.75177,-1.744376 0.0701,-0.05408 -0.83538,-0.941505 -2.01206,-1.972119 -1.17666,-1.030613 -2.13939,-2.071214 -2.13939,-2.312435 0,-0.451269 0.13855,-0.50889 2.77733,-1.155028 1.72667,-0.422799 4.66497,-2.104931 5.90221,-3.378937 0.68211,-0.702368 0.72252,-0.860678 0.26243,-1.027703 -0.97362,-0.353457 -0.57815,-1.323201 1.25626,-3.080461 l 1.80013,-1.724414 -1.18777,-0.186218 c -0.65325,-0.102425 -1.73887,-0.224932 -2.41246,-0.272246 -1.03925,-0.07299 -1.21211,-0.198844 -1.14139,-0.830873 0.10648,-0.951574 0.0524,-0.949331 -5.6761,0.235176 -4.08552,0.844788 -5.0648,1.178918 -7.09671,2.421421 -4.84662,2.963676 -7.10453,3.980821 -9.83334,4.429748 -1.55939,0.256536 -2.77536,0.313561 -2.96008,0.138813 -0.3526,-0.333576 0.61063,-3.380419 1.45927,-4.615876 0.29616,-0.431143 1.17741,-1.043121 1.95834,-1.35995 2.77343,-1.125202 9.50099,-5.115352 11.66518,-6.918687 1.25979,-1.049731 2.93337,-2.927888 3.92296,-4.402477 l 1.72587,-2.57172 -1.21107,-0.543682 c -0.72019,-0.32331 -1.21106,-0.785243 -1.21106,-1.139648 0,-0.327781 1.25273,-1.688769 2.78385,-3.024417 2.69625,-2.352012 2.78711,-2.480549 2.88686,-4.08366 l 0.10303,-1.655208 -2.35572,0.111731 c -3.08764,0.146439 -8.44588,2.067046 -12.47783,4.472546 -4.01719,2.396689 -8.74197,4.606258 -9.3656,4.379865 -0.37473,-0.136043 -0.44566,-0.501956 -0.27692,-1.428614 0.38181,-2.096569 1.5818,-4.083245 3.92611,-6.499956 4.17974,-4.308849 6.26095,-7.169181 6.66465,-9.159589 0.74547,-3.675711 0.83801,-4.956909 0.34685,-4.802397 -2.5567,0.80428 -7.65619,2.167557 -8.108,2.167557 -0.79482,0 -0.72844,-0.525304 0.47351,-3.746946 0.97258,-2.606816 2.10221,-6.922121 2.10221,-8.030593 0,-0.371206 -0.30681,-0.432418 -1.36502,-0.272335 l -1.36501,0.206497 -0.25101,-2.850918 c -0.13807,-1.568007 -0.3505,-2.846958 -0.47208,-2.842115 -0.12155,0.0048 -0.89468,0.904925 -1.71798,2.00018 -0.8233,1.095256 -1.73674,2.078437 -2.02985,2.184848 -0.29762,0.10804 -0.89285,-0.126403 -1.34804,-0.530953 l -0.8151,-0.724425 -0.70159,1.096347 c -1.00835,1.575693 -2.48173,6.649587 -2.75424,9.484843 -0.15594,1.622586 -0.39717,2.489151 -0.72613,2.608574 -0.64894,0.235585 -2.35043,-1.303732 -3.83127,-3.466115 -1.60062,-2.337266 -3.26653,-4.094993 -3.66195,-3.863792 -0.17787,0.103998 -0.87059,1.217058 -1.5394,2.473476 -1.06529,2.001249 -1.21603,2.59209 -1.21603,4.766808 0,1.401527 0.59325,5.693334 1.36249,9.856758 1.09241,5.912697 1.30462,7.702424 1.07062,9.029557 -0.16052,0.910365 -0.30124,1.841421 -0.3127,2.069012 -0.0517,1.025543 -1.62239,0.200801 -4.46436,-2.344157 -1.69391,-1.516877 -4.82522,-3.894492 -6.95846,-5.28359 -3.47642,-2.26373 -4.19306,-2.591917 -6.91095,-3.164846 -2.85749,-0.602355 -3.03234,-0.605959 -3.03234,-0.06248 0,1.205056 0.88181,2.874592 2.68343,5.080551 1.02606,1.256333 1.86555,2.486558 1.86555,2.733835 0,0.251217 -0.65618,0.609982 -1.48717,0.813098 -2.58203,0.631122 -2.71189,0.68882 -2.71189,1.205001 0,0.277885 1.5807,2.481579 3.51265,4.897097 2.73557,3.420269 4.26145,4.969641 6.89743,7.003647 9.20113,7.099867 9.8854,7.865175 9.8854,11.056134 0,1.407118 -0.4384,1.640036 -3.10179,1.647917 -1.32825,0.0039 -1.78397,-0.205943 -3.49922,-1.611583 -2.40223,-1.968604 -6.05626,-3.910418 -8.53158,-4.53382 -1.01124,-0.25468 -2.98738,-0.464822 -4.39142,-0.466983 l -2.55278,-0.0039 0.22976,1.158646 c 0.12643,0.637255 0.0941,1.16807 -0.0717,1.179586 -0.16577,0.01151 -1.99069,0.132415 -4.05543,0.268662 -2.06473,0.136247 -3.86268,0.350502 -3.99546,0.476122 -0.54551,0.516067 0.85502,1.99777 2.9219,3.091272 2.19507,1.161316 2.66358,1.864837 1.79139,2.689963 -0.42208,0.399302 0.95771,1.095352 5.08251,2.563967 0.93301,0.332193 1.78134,0.813461 1.88518,1.069474 0.11162,0.275211 -0.58182,1.203874 -1.69636,2.271775 -1.14919,1.101073 -1.73956,1.898589 -1.51218,2.042729 2.21714,1.405503 3.09542,1.689549 6.80039,2.199378 8.2636,1.13711 17.39286,3.097513 20.685,4.441843 2.53955,1.03703 2.72985,1.41358 3.30915,6.54828 0.57114,5.06247 3.10328,14.355 3.91213,14.35688 0.24057,5.8e-4 0.43739,-0.15894 0.43739,-0.35445 z"
       id="path1" /></g></svg>
