<?xml version="1.0" encoding="UTF-8" standalone="no"?>
<!-- Created with Inkscape (http://www.inkscape.org/) -->

<svg
   width="210mm"
   height="297mm"
   viewBox="0 0 210 297"
   version="1.1"
   id="svg1"
   xml:space="preserve"
   xmlns="http://www.w3.org/2000/svg"
   xmlns:svg="http://www.w3.org/2000/svg"><defs
     id="defs1" /><g
     id="layer1"><path
       style="fill:none;stroke:#000000;stroke-opacity:1"
       d="m 140.41461,266.13188 c -2.40631,-1.30796 -2.45761,-1.80337 -0.4942,-4.77228 2.0696,-3.1295 3.38276,-5.42822 5.81438,-10.17823 2.53903,-4.95985 2.68922,-4.56968 -2.5428,-6.60602 -3.55571,-1.38391 -4.07959,-1.72665 -10.66205,-6.97558 -1.27789,-1.01901 -3.134,-2.6218 -4.12469,-3.56176 -1.78278,-1.69149 -1.79984,-1.72639 -1.66374,-3.40429 0.12915,-1.59237 0.0408,-1.82491 -1.4564,-3.83095 -0.87664,-1.17461 -1.69652,-2.66905 -1.82195,-3.32096 -0.20721,-1.07694 -0.11906,-1.27282 0.96423,-2.14266 0.89074,-0.71525 1.11251,-1.08025 0.87689,-1.44323 -0.17346,-0.26722 -0.3177,-1.10702 -0.32054,-1.86622 -0.003,-0.7592 -0.23284,-2.23184 -0.5111,-3.27254 -0.94691,-3.54146 -0.49156,-4.71118 1.83399,-4.71118 h 1.27987 l 0.89004,-2.3821 c 0.48952,-1.31015 1.10671,-3.39438 1.37152,-4.63163 0.26482,-1.23725 0.74294,-2.53097 1.06249,-2.87494 0.63271,-0.68106 1.85003,-0.81162 2.82554,-0.30304 0.52383,0.27309 0.69712,0.13052 1.13391,-0.9329 0.28357,-0.69039 0.70977,-2.17111 0.94712,-3.2905 0.23734,-1.11938 0.70957,-2.32597 1.04941,-2.68131 0.75315,-0.78751 2.18991,-0.83392 3.25785,-0.10525 0.7705,0.52573 0.82414,0.50508 1.92089,-0.73927 0.62054,-0.70405 2.15691,-2.71427 3.41416,-4.46716 2.63146,-3.66884 3.49062,-4.14049 5.24315,-2.87828 1.01582,0.7316 1.03705,0.73287 2.1856,0.13033 0.63789,-0.33465 2.17017,-1.42888 3.40505,-2.43162 4.27196,-3.46888 5.11142,-4.01697 6.41296,-4.18703 1.09428,-0.14298 1.47009,-0.0139 2.48372,0.85306 l 1.19433,1.02153 3.83468,-1.17739 c 10.19017,-3.12876 11.69978,-3.66073 13.24574,-4.66769 0.91331,-0.5949 1.88729,-1.03846 2.16438,-0.9857 0.33479,0.0637 0.82742,1.30839 1.46847,3.71014 0.53056,1.98782 1.48588,4.68615 2.12292,5.99631 1.10579,2.27415 1.21064,2.38209 2.31409,2.38209 0.63571,0 1.31282,0.18482 1.50471,0.41071 0.19188,0.22588 0.52878,1.66746 0.74867,3.2035 0.75263,5.25763 1.01018,6.24273 1.63219,6.24273 0.31659,0 0.93383,0.24441 1.37165,0.54314 0.78225,0.53375 0.79206,0.6078 0.56685,4.27737 -0.31559,5.14224 -0.1319,5.92643 1.48778,6.35129 1.90765,0.50039 2.10497,1.45736 1.00522,4.875 -0.87114,2.70719 -0.85134,3.22299 0.13298,3.46365 0.48965,0.11972 0.86225,0.49727 0.95445,0.96713 0.14115,0.71929 -1.44866,5.17903 -2.14674,6.02206 -0.202,0.24394 -0.16415,0.4273 0.10632,0.51512 0.68592,0.22273 0.41995,2.31419 -0.52542,4.13155 -1.08507,2.08592 -1.08484,2.1701 0.007,2.65479 0.77511,0.34403 0.86169,0.53533 0.69503,1.53578 -0.10603,0.63646 -1.09377,2.40759 -2.22934,3.99745 l -2.03898,2.85465 0.66938,0.69409 c 1.23814,1.28387 0.58724,2.58264 -2.11105,4.21229 -0.50894,0.30738 -1.75228,1.53548 -2.76297,2.72911 -1.76929,2.08953 -1.81816,2.19917 -1.31415,2.94851 0.66018,0.9815 0.3601,2.27289 -0.65104,2.80178 -0.99581,0.52087 -4.47545,1.24085 -6.06716,1.25538 -0.69565,0.006 -1.26482,0.1594 -1.26482,0.34011 0,0.18071 -0.30356,0.62427 -0.67457,0.98569 -0.57134,0.55656 -1.12428,0.65713 -3.61315,0.65713 -2.79475,0 -2.97443,0.0438 -3.67116,0.89499 l -0.73258,0.89499 -2.14702,-0.44303 c -1.18085,-0.24367 -3.24673,-0.63398 -4.59083,-0.86735 -3.93405,-0.68306 -8.45149,-2.37405 -10.62644,-3.97774 -1.06692,-0.78668 -2.07011,-1.43033 -2.22932,-1.43033 -0.15921,0 -2.26135,4.02902 -4.67141,8.95339 -4.98256,10.18061 -4.63364,9.82733 -7.93415,8.03332 z m -77.159273,-3.50927 c -3.17029,-1.89088 -5.08791,-4.1393 -7.50139,-8.79539 l -2.08631,-4.02492 -1.36161,-0.007 c -2.66494,-0.0139 -7.27433,-1.25329 -9.92588,-2.66886 -6.4866,-3.46298 -15.45487,-11.28771 -19.59829,-17.09934 -4.23679,-5.94258 -7.47246,-13.3037 -8.92732,-20.30958 -1.0189,-4.90649 -1.58123,-10.74804 -1.36553,-14.18518 0.0944,-1.50474 0.338,-5.54512 0.54126,-8.97862 0.30839,-5.20936 0.55973,-6.9876 1.51838,-10.74256 1.54676,-6.05858 2.6081,-9.24824 4.51209,-13.56025 0.8804,-1.99385 1.95379,-4.47535 2.38531,-5.51443 0.48845,-1.17616 0.98395,-1.88776 1.31278,-1.88529 0.2905,0.002 1.21118,0.39572 2.04597,0.87455 0.83478,0.47883 3.15226,1.72631 5.14996,2.77218 10.36919,5.42865 15.75401,9.83917 25.62869,20.99158 8.77359,9.90883 13.80834,21.70355 14.58914,34.17737 0.51048,8.15527 -1.77509,20.37896 -5.06712,27.10001 -0.72168,1.47338 -2.00184,3.22339 -3.56206,4.86943 l -2.43552,2.56948 1.48163,2.85184 c 1.6474,3.17092 4.51642,6.27392 7.06456,7.64071 0.98897,0.53048 1.54146,1.06401 1.6139,1.55853 0.14863,1.01466 -2.08376,3.67389 -3.08398,3.67363 -0.40497,-10e-5 -1.72287,-0.5886 -2.92866,-1.30778 z m 51.531133,-78.77966 c -2.56006,-6.27926 -5.99559,-14.64094 -6.37841,-15.52433 -0.34185,-0.78885 -0.38699,-0.74638 -1.151,1.08296 -1.20929,2.89552 -3.2526,4.9668 -6.91387,7.00852 -1.740883,0.97081 -3.495013,1.76511 -3.898063,1.76511 -0.41697,0 -0.98043,-0.36815 -1.30733,-0.85417 -0.45775,-0.68054 -0.75701,-0.81486 -1.47226,-0.66082 -7.83777,1.68804 -15.4491,2.26196 -20.123,1.51734 -1.11304,-0.17732 -3.43553,-0.64002 -5.16108,-1.02823 -4.27024,-0.96069 -4.18105,-1.33948 0.98836,-4.19801 3.88937,-2.1507 8.12396,-5.09239 9.72909,-6.75861 1.12876,-1.17172 0.72609,-1.35509 -3.47651,-1.58321 -3.23843,-0.17578 -5.57825,-0.68858 -13.91768,-3.05024 -1.02671,-0.29075 -1.95348,-0.74884 -2.05949,-1.01796 -0.12124,-0.30776 0.4741,-1.14709 1.60459,-2.2622 0.98854,-0.9751 1.73035,-1.82693 1.64847,-1.89296 -0.0819,-0.066 -1.62872,-1.04595 -3.43741,-2.17758 -3.57528,-2.23693 -3.91741,-2.80315 -2.36108,-3.90755 l 0.92746,-0.65814 -0.69307,-0.76566 c -0.38119,-0.42112 -2.46811,-2.71459 -4.6376,-5.09661 -2.33045,-2.55875 -3.94453,-4.60906 -3.94453,-5.01061 0,-0.83795 0.35059,-0.84711 7.25164,-0.18954 2.7826,0.26515 5.28804,0.48512 5.56764,0.48882 0.39625,0.005 0.48174,-0.31933 0.38764,-1.4718 -0.0954,-1.16835 -0.0108,-1.47854 0.40331,-1.47854 0.2882,0 2.35964,0.66535 4.60319,1.47854 2.24354,0.8132 4.20425,1.47855 4.35713,1.47855 0.15288,0 0.3778,-0.7332 0.49983,-1.62932 0.12203,-0.89613 0.38151,-1.72543 0.57663,-1.8429 0.65885,-0.39667 6.52001,2.23851 9.40593,4.22892 4.64214,3.20166 7.08403,4.01121 7.08403,2.34855 0,-0.81907 -1.40503,-2.75229 -8.5849,-11.81222 -2.77265,-3.49867 -3.28194,-4.57251 -2.52045,-5.31431 0.25829,-0.25161 -0.0323,-1.11767 -1.01185,-3.01551 -0.75582,-1.46438 -1.37422,-2.88757 -1.37422,-3.16265 0,-0.67807 0.89439,-0.63908 4.8067,0.20952 1.8089,0.39237 3.36614,0.63815 3.46054,0.54619 0.0944,-0.092 -0.43699,-2.42571 -1.18087,-5.18612 -0.74389,-2.76041 -1.35252,-5.24039 -1.35252,-5.51107 0,-0.40871 0.36148,-0.45444 2.1321,-0.26972 l 2.1321,0.22242 0.81915,-6.34473 c 0.76294,-5.909345 0.86804,-6.351535 1.53163,-6.443805 0.54321,-0.0755 1.70122,0.95879 4.87408,4.353485 2.28889,2.4489 4.2231,4.45254 4.29827,4.45254 0.0752,0 0.71157,-0.44356 1.41423,-0.98569 0.70267,-0.54213 1.50442,-0.98569 1.781673,-0.98569 0.34053,0 1.14553,1.65216 2.4811,5.09219 1.08736,2.8007 2.0529,5.09139 2.14566,5.09041 0.0927,-9.7e-4 1.3049,-1.26159 2.69366,-2.80137 1.40059,-1.5529 2.74705,-2.75795 3.02361,-2.70607 0.56032,0.10512 0.83659,0.99108 1.38527,4.4425 0.3557,2.23753 0.43086,2.3821 1.23836,2.3821 h 0.85967 l -0.22179,5.33917 c -0.12199,2.93655 -0.30187,7.18735 -0.39974,9.44624 -0.16534,3.81607 -0.12856,4.1626 0.51911,4.89111 0.68565,0.77122 0.70856,0.77391 1.39962,0.16468 1.08849,-0.9596 2.15478,-2.98726 3.17707,-6.04149 1.05015,-3.13749 4.2856,-8.54268 5.1135,-8.54268 0.29374,0 1.02828,0.55445 1.63231,1.23212 0.60403,0.67766 1.16461,1.15819 1.24575,1.06783 0.0811,-0.0904 1.25895,-1.76744 2.61735,-3.72685 1.35841,-1.95942 2.69514,-3.6468 2.97052,-3.74974 0.47642,-0.17809 0.77687,0.0906 1.61644,1.44573 0.33161,0.53524 0.86672,0.17706 5.14673,-3.44498 4.98425,-4.21801 5.96993,-4.68963 5.9296,-2.83711 -0.0332,1.5269 -1.17404,12.4096 -1.36822,13.05222 -0.14757,0.48839 0.0583,0.57499 1.36677,0.57499 1.35848,0 1.54052,0.0847 1.54052,0.71691 0,0.39431 -0.61306,2.1733 -1.36236,3.95334 -0.74929,1.78003 -1.28034,3.36567 -1.18012,3.52364 0.10023,0.15798 0.9789,0.3857 1.9526,0.50606 2.54884,0.31505 2.95087,0.47182 2.95087,1.15059 0,0.66279 -6.61555,8.70736 -9.32713,11.34188 -0.92998,0.90355 -2.33521,2.06737 -3.12274,2.58626 -1.0628,0.70026 -1.33387,1.03901 -1.05166,1.31426 0.46445,0.45298 9.71024,0.50437 14.76635,0.0821 3.2636,-0.27258 3.45704,-0.25418 3.4547,0.32857 -0.004,0.97657 -5.63067,6.81327 -8.5983,8.91912 -3.64019,2.58311 -8.11576,5.04107 -11.89634,6.53341 -3.06994,1.21182 -3.13066,1.25717 -3.33283,2.48878 -0.11326,0.68996 -0.31961,1.32292 -0.45857,1.40657 -0.13895,0.0837 -1.96495,0.29849 -4.05777,0.47739 -4.37959,0.37439 -7.515,-0.10945 -9.58745,-1.47949 -0.65525,-0.43317 -1.19137,-0.66702 -1.19137,-0.51966 0,0.14736 1.114,2.76731 2.47556,5.82212 3.15013,7.06764 5.3637,12.7852 5.223,13.49076 -0.12357,0.61962 -2.91099,1.6909 -4.50302,1.73063 -0.99384,0.0248 -1.06166,-0.0755 -2.59451,-3.83517 z M 20.478657,123.29083 c -1.14526,-0.745 -2.08229,-1.55735 -2.08229,-1.80522 0,-0.24788 0.96342,-1.899 2.14094,-3.66917 3.81921,-5.74146 7.30305,-11.50909 7.30305,-12.09047 0,-0.31227 -0.50508,-1.03127 -1.12242,-1.59777 -0.61733,-0.56651 -2.39422,-2.58248 -3.94864,-4.479945 -2.44615,-2.98598 -2.97518,-3.86969 -3.93385,-6.57129 -1.14435,-3.22489 -1.45554,-6.30964 -0.80474,-7.97713 0.87311,-2.23706 5.39193,-1.79493 9.11093,0.89143 0.63599,0.4594 1.22029,0.77298 1.29844,0.69685 0.25323,-0.24668 -0.65615,-2.60784 -1.58878,-4.12522 -0.49982,-0.8132 -1.32765,-2.51352 -1.83961,-3.778493 -0.51197,-1.264974 -1.51843,-3.368052 -2.2366,-4.673506 -2.33891,-4.251591 -2.59106,-8.271372 -0.64607,-10.299656 0.93844,-0.978625 1.11313,-1.032371 2.933,-0.902384 2.24659,0.160465 5.09431,1.718638 7.30615,3.997676 l 1.32359,1.363802 0.24561,-1.114001 c 0.17182,-0.779322 0.0456,-1.667716 -0.42021,-2.957082 -0.3662,-1.013694 -1.00805,-2.961548 -1.42634,-4.328564 -0.41829,-1.367015 -0.86977,-2.657683 -1.0033,-2.86815 -0.13353,-0.210467 -0.37568,-1.531592 -0.53811,-2.935833 -0.25329,-2.189785 -0.1987,-2.833747 0.38356,-4.524555 0.81554,-2.368209 1.06753,-2.692571 2.56542,-3.302248 1.93651,-0.788207 5.3876,0.505723 7.92923,2.972934 0.88749,0.861507 1.66377,1.509819 1.72506,1.440693 0.68486,-0.772399 0.87784,-2.144567 0.88104,-6.264672 0.004,-5.059979 0.30217,-6.558624 1.82891,-9.189935 0.6531,-1.125605 1.24231,-1.667591 2.23246,-2.053529 2.75976,-1.075686 4.92233,-0.45507 6.90842,1.982584 0.71705,0.880084 1.4105,1.726335 1.541,1.880559 0.13049,0.154223 0.86572,-1.026014 1.63383,-2.622751 0.76812,-1.596737 1.7288,-3.247651 2.13486,-3.668699 2.36752,-2.454951 5.13944,-2.787086 7.5045,-0.899201 0.77873,0.621607 1.56676,1.173946 1.7512,1.22742 0.18443,0.05347 1.05861,-0.937753 1.94262,-2.202727 2.45548,-3.513674 4.25531,-4.764187 6.85696,-4.764187 1.67762,0 5.16824,1.685932 6.81798,3.293017 2.25406,2.195783 2.06973,5.51147 -0.54833,9.86301 -1.36475,2.268377 -1.27913,2.578681 0.90531,3.280969 3.97098,1.276658 4.02231,5.947762 0.11668,10.617917 -1.03413,1.236556 -1.80644,2.320174 -1.71624,2.40804 0.0902,0.08787 1.19958,0.389867 2.46529,0.671113 3.11994,0.693261 4.34438,1.859654 4.67733,4.455602 0.21064,1.642333 0.13798,2.028398 -0.6151,3.268071 -1.52215,2.505674 -3.51252,4.047889 -7.76089,6.013433 -3.72018,1.721179 -5.28918,2.726836 -5.28918,3.390128 0,0.152106 0.64505,0.464288 1.43346,0.693736 2.23835,0.651425 3.70953,1.48852 5.24523,2.984511 1.25696,1.224456 1.41591,1.550642 1.41393,2.901567 -0.003,1.78828 -0.71189,2.986361 -2.65449,4.483851 -1.65881,1.27873 -3.76172,1.89992 -8.81099,2.60273 -2.13333,0.29695 -4.42272,0.61682 -5.08754,0.71083 -1.4522,0.20536 -3.55466,1.38232 -3.13666,1.75591 0.1639,0.14648 1.11055,0.52326 2.10369,0.83728 2.18691,0.69148 5.79515,3.03267 6.3685,4.13217 1.12381,2.15511 0.0252,4.72718 -2.53738,5.94052 -1.47272,0.69731 -2.22073,0.77204 -10.19017,1.01803 -8.98567,0.27735 -10.79314,0.42465 -10.79314,0.879595 0,0.1506 0.47565,0.46574 1.05699,0.70031 2.8776,1.16112 5.36542,4.00751 5.34022,6.10989 -0.0308,2.57064 -4.4763,4.39492 -10.67788,4.38183 -1.84136,-0.004 -9.38239,-1.49297 -11.23446,-2.21841 -1.29157,-0.5059 -2.43981,0.35174 -4.03864,3.01654 -3.46188,5.76995 -7.74001,12.19271 -8.17928,12.27955 -0.26497,0.0524 -1.4188,-0.5143 -2.56406,-1.2593 z M 158.02619,118.2943 c -0.57595,-1.85228 -1.25811,-4.03313 -1.51591,-4.84633 -0.25781,-0.81319 -0.71801,-3.62242 -1.02268,-6.24272 -0.30466,-2.6203 -0.71624,-5.09527 -0.91461,-5.49992 -0.71313,-1.45467 -9.05285,-3.715925 -19.63606,-5.324175 -6.27138,-0.95301 -6.38282,-0.98422 -8.49384,-2.37875 -1.43199,-0.94596 -2.13974,-1.63115 -2.14106,-2.07281 -0.001,-0.37333 0.69169,-1.26444 1.59589,-2.05268 l 1.59786,-1.39294 -1.51157,-0.56663 c -0.83136,-0.31165 -2.42224,-1.01908 -3.53528,-1.57208 -1.63711,-0.81338 -2.0441,-1.17655 -2.13044,-1.90107 -0.068,-0.57071 0.0543,-0.89932 0.33729,-0.90586 0.24421,-0.006 -0.12567,-0.35148 -0.82195,-0.76853 -1.42062,-0.85091 -4.05113,-4.27743 -3.89398,-5.07233 0.1474,-0.745581 3.71873,-1.696092 6.39267,-1.701409 l 2.24458,-0.0045 -0.18096,-1.314259 -0.18096,-1.314258 h 4.12747 c 6.33552,0 9.84469,1.183319 14.72852,4.966577 2.19864,1.703179 3.15639,2.002139 3.15639,0.985258 0,-0.690414 -2.91615,-3.457324 -7.15267,-6.78663 -4.45662,-3.502277 -5.15371,-4.196228 -8.69642,-8.657335 -2.40969,-3.034359 -3.44896,-4.627256 -3.6937,-5.66138 -0.56351,-2.381027 -0.47146,-2.881101 0.57048,-3.099007 2.22665,-0.465672 2.2503,-0.516829 0.98178,-2.123238 -0.82315,-1.042396 -1.37165,-2.285548 -1.87385,-4.247008 -0.91138,-3.559601 -0.90637,-3.965059 0.0489,-3.951931 0.41739,0.0057 2.65612,0.41848 4.97496,0.91721 4.17254,0.89742 4.2561,0.933645 8.09485,3.509456 2.13333,1.431472 4.75263,3.407942 5.82066,4.392156 1.06804,0.984213 2.00326,1.728967 2.07827,1.655007 0.075,-0.07396 -0.47484,-3.50704 -1.2219,-7.629067 -1.23639,-6.822056 -1.33707,-7.797715 -1.12193,-10.872497 0.22633,-3.234729 0.30719,-3.505456 1.90783,-6.387262 0.97607,-1.75732 1.88457,-3.009359 2.18364,-3.009359 0.8967,0 3.53059,2.391588 5.06209,4.596397 1.37961,1.986138 1.48104,2.065023 1.48104,1.151828 0,-1.925021 2.09713,-8.148937 3.29303,-9.773142 1.24461,-1.690357 1.99863,-1.924128 2.93951,-0.911349 0.59154,0.636748 0.64549,0.592172 2.78381,-2.299952 2.10103,-2.84169 3.14434,-3.575557 3.56501,-2.507649 0.0957,0.2429 0.2829,1.938413 0.41604,3.767807 0.22352,3.071217 0.28881,3.301804 0.8518,3.008292 0.33535,-0.174833 0.94158,-0.317878 1.34719,-0.317878 0.7272,0 0.73518,0.05599 0.5737,4.024916 -0.11328,2.784207 -0.37485,4.657933 -0.84856,6.078446 -0.45709,1.370675 -0.55637,2.05212 -0.29857,2.04929 0.21243,-0.0023 1.3728,-0.305523 2.5786,-0.67376 3.53612,-1.079893 4.74576,-1.286803 4.92107,-0.841751 0.0848,0.215378 -0.15291,2.42779 -0.52834,4.91647 -0.37543,2.488681 -0.68259,4.65702 -0.68259,4.818532 0,0.348609 -4.70432,6.103107 -6.71414,8.21298 -0.77463,0.813198 -1.56358,1.74507 -1.75323,2.070827 -0.31036,0.53313 -0.20437,0.522497 1.06121,-0.106459 0.7733,-0.38431 2.4767,-1.367295 3.78532,-2.184412 1.30862,-0.817116 4.0626,-2.123811 6.11996,-2.903766 3.41448,-1.294444 4.04947,-1.427703 7.28215,-1.528235 l 3.5415,-0.110136 v 3.352127 3.352127 l -1.93939,1.683761 c -1.06667,0.926069 -1.93939,1.796057 -1.93939,1.933306 0,0.13725 0.37944,0.417962 0.84321,0.623805 0.46377,0.205843 0.84294,0.636174 0.84261,0.956292 -0.001,1.124839 -4.54483,7.268244 -6.77393,9.158924 -2.09532,1.777214 -8.90742,5.95117 -10.94306,6.705109 -1.09018,0.403768 -2.18225,1.2495 -2.18225,1.690002 0,0.867397 2.8203,-0.422483 8.13214,-3.719284 2.35349,-1.460698 2.97048,-1.672639 7.42028,-2.548952 2.66934,-0.525682 5.72608,-1.052799 6.79274,-1.171372 l 1.9394,-0.215587 v 0.974183 c 0,1.132443 0.4271,1.359743 2.64154,1.405805 1.96365,0.04085 3.16972,0.35775 3.34835,0.879809 0.0756,0.220873 -0.76073,1.3257 -1.85847,2.455172 -1.89184,1.946527 -1.97259,2.096407 -1.54894,2.874996 0.42459,0.780333 0.35011,0.913706 -1.48938,2.666937 -2.14766,2.04695 -4.94547,3.90436 -5.88113,3.90436 -0.96335,0 -0.72287,0.50324 0.90924,1.90274 0.83478,0.71581 1.51779,1.59295 1.51779,1.9492 0,0.45535 -0.99638,1.29398 -3.35466,2.82353 -3.69115,2.39405 -5.81487,3.12322 -13.56681,4.65815 -6.34443,1.25624 -9.51883,2.43751 -11.52081,4.287175 l -0.95352,0.88097 0.2404,3.65959 c 0.17889,2.72324 0.58666,4.87856 1.59372,8.42377 0.74433,2.62031 1.42022,5.29354 1.50198,5.94052 0.14268,1.12912 0.0895,1.19835 -1.32606,1.72497 -0.81108,0.30174 -1.8805,0.54863 -2.37648,0.54863 -0.85074,0 -0.96102,-0.19057 -1.94895,-3.36779 z"
       id="path1" /></g></svg>
