<?xml version="1.0" encoding="UTF-8" standalone="no"?>
<!-- Created with Inkscape (http://www.inkscape.org/) -->

<svg
   width="130mm"
   height="104.00007mm"
   viewBox="0 0 130 104.00007"
   version="1.1"
   id="svg1"
   xml:space="preserve"
   xmlns="http://www.w3.org/2000/svg"
   xmlns:svg="http://www.w3.org/2000/svg"><defs
     id="defs1" /><g
     id="layer1"
     transform="translate(-2.0091184,-59.597481)"><path
       style="fill:none;stroke:#000000;stroke-width:0.100368;stroke-dasharray:none;stroke-opacity:1"
       d="m 63.676375,163.46181 c -0.09973,-0.0998 -0.181332,-0.81377 -0.181332,-1.58643 0,-1.65736 -0.431913,-2.7586 -1.081937,-2.7586 -0.25631,0 -0.505824,0.11074 -0.554474,0.2461 -0.04865,0.13536 -0.4085,0.3256 -0.799668,0.42278 -0.62623,0.15556 -0.693876,0.11027 -0.566119,-0.37899 0.112682,-0.43152 0.02241,-0.55565 -0.404133,-0.55565 -0.376478,0 -0.693021,0.31346 -1.006395,0.99657 -0.251443,0.54811 -0.492147,1.04266 -0.534897,1.099 -0.04276,0.0564 -0.379989,-0.0959 -0.74942,-0.3383 -0.960283,-0.63014 -0.914064,-1.81399 0.09902,-2.53643 0.423894,-0.30226 0.901549,-0.54958 1.061456,-0.54958 0.501123,0 0.320176,-0.46115 -0.505351,-1.28788 -0.43785,-0.43849 -0.796092,-0.9673 -0.796092,-1.17514 0,-1.29371 -4.009804,-2.4144 -8.624327,-2.4104 -2.786912,0.002 -3.432777,0.0923 -5.174597,0.72022 -1.094626,0.3946 -2.16935,0.77478 -2.388275,0.84484 -0.254173,0.0814 -0.68103,-0.29845 -1.180966,-1.05077 -0.430606,-0.648 -1.436482,-1.6092 -2.235283,-2.13603 -2.116347,-1.39574 -3.911294,-1.86153 -7.203887,-1.86937 -2.631707,-0.006 -2.894485,0.0439 -4.579749,0.8748 l -1.787846,0.88143 -0.721973,-0.85926 c -0.867716,-1.03273 -3.347525,-2.20824 -5.49846,-2.60644 -3.554985,-0.65814 -7.961292,-0.22358 -10.026063,0.98877 -0.5627315,0.33041 -0.7986485,0.35534 -1.0433706,0.11026 -0.2447222,-0.24508 -0.077043,-0.54454 0.7415824,-1.32442 1.6481164,-1.57012 4.4233102,-3.57165 7.4546662,-5.37649 6.186764,-3.68356 9.753591,-4.72427 18.137413,-5.29204 3.825689,-0.25907 5.314202,-0.67256 5.818525,-1.61627 0.243477,-0.4556 0.21861,-0.70476 -0.122351,-1.22589 -0.677479,-1.03547 -0.296242,-1.26186 1.821129,-1.08143 3.269384,0.27862 7.274487,1.93117 12.474768,5.14726 2.903744,1.79581 4.290084,2.4034 6.150443,2.69555 1.554981,0.24421 1.774441,0.0568 0.973964,-0.83156 -0.395875,-0.43936 -0.451802,-0.95167 -0.379091,-3.47253 0.04691,-1.62643 0.133222,-3.00513 0.1918,-3.0638 0.187891,-0.18816 1.939818,1.28089 2.668502,2.23764 0.387929,0.50935 0.78082,1.29575 0.873091,1.74754 l 0.167763,0.82147 2.747997,0.0186 2.747997,0.0186 0.330236,-0.77724 c 0.181631,-0.42749 0.673618,-1.11813 1.093306,-1.53477 0.750859,-0.74541 2.71773,-1.89828 2.910032,-1.7057 0.05409,0.0541 -0.0073,0.51097 -0.136481,1.01512 -0.330036,1.28823 -0.803127,4.59911 -0.675441,4.72698 0.05843,0.0585 0.957831,-0.0862 1.998671,-0.32161 2.204642,-0.4986 5.272687,-1.88735 8.924452,-4.03967 4.370315,-2.57582 7.020274,-3.60224 10.238384,-3.96567 1.607056,-0.18149 1.997536,0.0969 0.862433,0.61482 -0.43559,0.19877 -0.663409,0.51868 -0.663409,0.93161 0,1.7775 3.302454,2.81261 10.747242,3.36858 5.05197,0.37727 5.85533,0.64592 10.72024,3.58505 4.22474,2.55236 7.65468,5.00052 9.77913,6.97996 2.25931,2.1051 2.20284,2.79158 -0.13652,1.65967 -1.77397,-0.85834 -4.00361,-1.32868 -6.29856,-1.32868 -3.79802,0 -6.86481,1.15273 -8.87384,3.33546 -1.15163,1.25119 -1.16018,1.2549 -1.8469,0.80535 -2.27414,-1.48874 -3.52746,-1.85496 -6.39523,-1.86863 -2.454275,-0.0118 -2.939067,0.0648 -4.067976,0.64235 -1.387237,0.70965 -2.965593,2.28589 -3.378793,3.37427 -0.289703,0.76309 -0.302831,0.7617 -2.838173,-0.30072 -2.965894,-1.24285 -5.531331,-1.77801 -8.688588,-1.8125 -3.319383,-0.0363 -5.335266,0.39628 -8.023419,1.72159 -1.948437,0.96061 -2.621562,1.69907 -3.030206,3.32431 -0.226922,0.90251 -0.547078,1.34191 -1.451866,1.99262 -0.638413,0.45914 -1.160749,0.93708 -1.160749,1.06208 0,0.125 0.298533,0.34095 0.663409,0.47988 0.566491,0.21569 0.66341,0.4205 0.66341,1.40191 0,2.411 -1.764645,2.46506 -1.949404,0.0598 -0.04243,-0.55246 -1.234963,-0.95524 -1.234963,-0.4171 0,0.15632 -0.17492,0.28422 -0.388709,0.28422 -0.444795,0 -0.920596,-0.77958 -0.755564,-1.23796 0.06096,-0.16931 -0.02241,-0.3903 -0.185261,-0.4911 -0.515946,-0.31933 -1.32176,0.70801 -1.757696,2.24091 -0.450134,1.58282 -0.687458,1.99741 -0.977261,1.70718 z M 2.0685667,128.82967 c -0.087304,-0.14147 0.5491488,-1.12807 1.4143382,-2.19245 1.9689687,-2.42229 3.0112258,-4.30243 3.7981914,-6.85164 0.5121857,-1.65911 0.6116751,-2.54983 0.5936669,-5.31503 -0.0269,-4.13053 -0.5442638,-6.58621 -2.0155805,-9.56705 -0.6132352,-1.24238 -1.1211099,-2.35562 -1.1286102,-2.47385 -0.0075,-0.11824 0.7625524,-0.54448 1.7112285,-0.9472 4.61607,-1.959561 7.506792,-5.128734 8.491279,-9.309205 0.456049,-1.936534 0.189205,-4.98069 -0.652782,-7.446946 -0.370519,-1.085284 -0.673672,-1.994898 -0.673672,-2.021364 0,-0.02647 0.950092,-0.12747 2.111316,-0.224455 2.645709,-0.220965 6.094801,-1.210079 8.566659,-2.456703 1.045343,-0.527196 3.881026,-2.245719 6.301516,-3.818941 2.420489,-1.573223 5.172897,-3.251145 6.116463,-3.728717 4.027994,-2.038712 9.314863,-3.271456 13.515302,-3.151377 2.216661,0.06337 2.292622,0.04465 3.591378,-0.884984 1.342979,-0.961289 3.407689,-1.804441 4.418714,-1.804441 0.467388,0 0.525927,-0.112458 0.38042,-0.730816 -0.485216,-2.062019 -0.453768,-2.858995 0.159307,-4.037149 0.684326,-1.315083 1.607456,-2.097244 2.600893,-2.20372 0.629191,-0.06744 0.668217,0.01212 0.839346,1.711091 0.115353,1.145231 0.427537,2.238255 0.873812,3.059407 l 0.694341,1.277595 2.737695,-0.0033 c 3.116968,-0.0037 3.064202,0.02203 4.882618,-2.382963 0.668101,-0.883617 1.256666,-1.659725 1.307923,-1.724687 0.05126,-0.06497 0.358558,0.14764 0.682891,0.472447 0.503421,0.504156 0.589698,0.879145 0.589698,2.563025 0,1.223636 -0.125928,2.098577 -0.331704,2.304654 -0.182438,0.182704 -0.331706,0.410438 -0.331706,0.506077 0,0.256516 3.513838,1.234616 6.10337,1.698912 5.606539,1.005237 11.953664,1.196676 17.202456,0.51885 1.903113,-0.245767 3.875686,-0.352462 4.672656,-0.25274 2.18292,0.273134 4.14408,1.741059 2.32608,1.741059 -0.96487,0 -1.37989,0.440526 -1.37989,1.464673 0,1.19735 0.65053,1.744589 4.438,3.733309 9.07168,4.763334 12.71556,7.058207 15.82523,9.966529 2.6627,2.490303 5.07309,5.528436 6.47164,8.157064 1.20269,2.260497 2.98589,6.921116 2.98589,7.803996 0,1.02353 -0.89736,0.39107 -2.15917,-1.5218 -2.42564,-3.677211 -5.84413,-6.790792 -10.16021,-9.254009 -4.21555,-2.405844 -10.68437,-3.129923 -17.24243,-1.930009 -0.1502,0.02748 -0.43028,-0.724839 -0.62243,-1.671822 -0.73742,-3.63446 -2.454564,-6.048594 -5.777673,-8.122821 -3.45198,-2.154665 -6.726077,-3.023579 -9.44628,-2.50695 -1.733859,0.3293 -4.436052,1.564198 -5.813536,2.656779 l -1.01637,0.806155 -0.878613,-1.667968 c -1.133396,-2.151651 -3.142673,-4.170768 -5.0479,-5.072624 -1.931475,-0.914279 -2.869095,-0.946433 -2.869095,-0.09838 0,0.338857 -0.417855,1.086281 -0.928566,1.660946 -0.638966,0.718977 -0.928631,1.303032 -0.928774,1.872694 -1.14e-4,0.455319 -0.258932,1.157248 -0.575151,1.559843 -0.52826,0.672554 -0.681976,0.719295 -1.893097,0.575646 -0.827343,-0.09813 -1.441692,-0.332601 -1.649942,-0.629713 -0.182485,-0.260353 -0.563221,-0.759149 -0.846079,-1.108437 l -0.514289,-0.635067 -1.757554,0.704159 c -1.335056,0.534887 -2.132789,0.687549 -3.318509,0.635067 -2.144881,-0.09494 -3.416067,0.581508 -3.645206,1.939751 -0.14462,0.857249 -0.291945,1.011749 -1.234416,1.294532 -0.588609,0.176609 -1.102103,0.282921 -1.1411,0.236251 -0.03899,-0.04668 -0.21164,-0.355706 -0.383654,-0.686743 -0.256802,-0.494207 -0.239496,-0.630034 0.09673,-0.759246 0.542791,-0.208594 0.526632,-0.897755 -0.02105,-0.897755 -0.363011,0 -0.375747,-0.06611 -0.08121,-0.421537 0.236529,-0.285413 0.593044,-0.372721 1.104047,-0.270371 0.51277,0.102704 0.800562,0.03151 0.897731,-0.222078 0.446253,-1.164611 -1.866073,-2.407345 -3.279373,-1.762463 -0.667184,0.304432 -0.688725,0.358943 -0.264581,0.669537 0.502545,0.368005 0.621831,1.344953 0.196371,1.608284 -0.145948,0.09034 -0.265363,0.03759 -0.265363,-0.117191 0,-0.15479 -0.187168,-0.281435 -0.415928,-0.281435 -0.295168,0 -0.367021,0.154316 -0.247481,0.531502 0.146266,0.461518 0.04769,0.531502 -0.748678,0.531502 -0.840049,0 -0.931936,-0.07908 -1.093387,-0.940941 -0.117881,-0.629273 -0.03977,-1.214957 0.235831,-1.768214 0.521002,-1.045896 0.528365,-1.011362 -0.215661,-1.011362 -1.262662,0 -4.492067,1.899138 -6.307778,3.709459 -1.456701,1.452376 -1.997524,2.259276 -3.130285,4.670342 -0.753138,1.603047 -1.65117,3.51257 -1.995621,4.243386 l -0.626279,1.328757 -0.426481,-0.996568 c -0.234564,-0.548112 -0.546678,-0.996567 -0.693585,-0.996567 -0.146908,0 -1.138265,0.867014 -2.203017,1.926697 -2.123982,2.113872 -3.128487,3.860764 -5.845113,10.165002 -2.066279,4.79501 -3.764663,7.99921 -5.676179,10.70875 -5.336331,7.56416 -11.1849034,13.51194 -16.8641656,17.15023 -1.6090248,1.03078 -1.9143615,1.13179 -2.1698367,0.71782 z m 72.2735353,-3.4766 c -0.01807,-0.0658 -0.07291,-0.70839 -0.121878,-1.42803 -0.11001,-1.61706 -0.653269,-2.30522 -1.304762,-1.65278 -0.543498,0.54429 -0.928773,0.56003 -0.928773,0.038 0,-0.71082 -0.919483,-0.42672 -1.283365,0.39654 -0.301141,0.68132 -0.426682,0.75486 -0.876774,0.51363 -0.796061,-0.42666 -0.554303,-1.59174 0.435273,-2.09767 0.437851,-0.22385 0.846318,-0.43737 0.907706,-0.4745 0.06139,-0.0372 -0.147586,-0.34379 -0.464386,-0.6815 -0.3168,-0.33771 -0.576002,-0.73726 -0.576002,-0.8879 0,-1.77863 -7.647749,-2.92297 -11.039958,-1.65193 -1.46404,0.54857 -1.514346,0.55045 -1.774114,0.0664 -0.599401,-1.11685 -2.59167,-2.72473 -4.077876,-3.29111 -2.215532,-0.84432 -5.356287,-0.85089 -6.972342,-0.0146 l -1.175675,0.60841 -0.511821,-0.70365 c -1.550022,-2.13095 -7.198552,-3.03423 -11.229726,-1.79579 -1.037387,0.3187 -1.962842,0.57944 -2.05657,0.57944 -1.096778,0 4.086199,-3.58579 8.094945,-5.60041 4.569727,-2.29654 6.045971,-2.67022 11.418127,-2.8902 5.390557,-0.22075 6.24,-0.49135 5.959012,-1.89835 -0.140265,-0.70235 -0.08855,-0.77224 0.568823,-0.76866 2.380038,0.013 6.229402,1.51982 9.460965,3.70364 2.462164,1.66388 4.53424,2.66435 5.525462,2.66787 0.776147,0.003 0.917842,-0.23424 0.431333,-0.72146 -0.206369,-0.20667 -0.238532,-1.01882 -0.10427,-2.63298 l 0.194147,-2.33412 1.165726,1.23561 c 0.64115,0.67957 1.165727,1.48548 1.165727,1.7909 0,0.66986 0.150661,0.72314 2.531427,0.89499 1.834173,0.1324 1.873843,0.12167 2.189479,-0.59245 0.378008,-0.85523 1.560316,-1.7911 2.589561,-2.0498 0.538285,-0.1353 0.677304,-0.0986 0.530143,0.13983 -0.27376,0.4436 -0.962753,3.80752 -0.810981,3.95952 0.0674,0.0675 0.812025,-0.0155 1.654715,-0.18433 1.48238,-0.29708 2.731462,-0.855 7.499375,-3.34975 2.315677,-1.21164 5.627985,-2.26565 7.120035,-2.26565 0.87243,0 1.147275,0.43178 0.446316,0.70115 -0.590433,0.2269 -0.482276,1.06951 0.199023,1.55051 1.046971,0.73918 3.948991,1.48989 7.288731,1.88549 1.78307,0.21121 3.57428,0.52855 3.98047,0.70521 0.91067,0.39606 5.8806,3.76883 8.56675,5.81371 2.0862,1.58814 4.43557,3.85881 4.218,4.07669 -0.0701,0.0702 -0.71939,-0.16144 -1.44294,-0.51469 -3.87966,-1.89411 -9.65439,-1.44905 -11.91946,0.91863 l -0.71516,0.74755 -1.68149,-0.87774 c -3.71747,-1.94049 -7.517224,-1.26327 -9.426064,1.68001 l -0.394679,0.60857 -1.061455,-0.51245 c -3.910747,-1.88804 -8.612854,-2.3442 -12.20674,-1.18422 -2.140145,0.69076 -3.291611,1.58154 -3.308611,2.55955 -0.0087,0.50354 -1.176886,1.82786 -1.868538,2.11839 -0.320455,0.1346 -0.28221,0.24983 0.201574,0.60734 0.654231,0.48348 0.804026,1.65735 0.278633,2.18351 -0.535906,0.53669 -0.91985,0.35961 -1.181148,-0.54478 -0.205889,-0.71261 -0.381168,-0.8637 -1.002007,-0.8637 -0.548436,0 -0.815688,-0.17036 -0.985638,-0.62827 -0.189095,-0.5095 -0.305351,-0.56828 -0.614992,-0.31094 -0.209999,0.17454 -0.521765,0.75624 -0.692813,1.29266 -0.286116,0.89729 -0.732066,1.64597 -0.81047,1.36065 z"
       id="path1" /></g></svg>
