<?xml version="1.0" encoding="UTF-8" standalone="no"?>
<!-- Created with Inkscape (http://www.inkscape.org/) -->

<svg
   width="350mm"
   height="350mm"
   viewBox="0 0 350 350"
   version="1.1"
   id="svg2452"
   xmlns="http://www.w3.org/2000/svg"
   xmlns:svg="http://www.w3.org/2000/svg">
  <defs
     id="defs2449" />
  <g
     id="layer1">
    <path
       style="color:#000000;fill:#000000;-inkscape-stroke:none"
       d="m 13.882813,68.582031 c -2.798488,0 -5.0898442,2.2894 -5.0898442,5.087891 V 213.66992 c 0,2.7985 2.2913562,5.08985 5.0898442,5.08985 H 153.88281 c 2.79853,0 5.08789,-2.29135 5.08789,-5.08985 V 73.669922 c 0,-2.798492 -2.28936,-5.087891 -5.08789,-5.087891 z m 0,0.177735 H 153.88281 c 2.70155,0 4.91016,2.208645 4.91016,4.910156 V 213.66992 c 0,2.70152 -2.20861,4.91211 -4.91016,4.91211 H 13.882813 c -2.701508,0 -4.9121099,-2.21059 -4.9121099,-4.91211 V 73.669922 c 0,-2.701512 2.2106029,-4.910156 4.9121099,-4.910156 z m 2.410156,7.322265 v 0.08789 2.089844 h 9.177734 v -2.177735 z m 18,0 v 0.08789 2.089844 h 9.177734 v -2.177735 z m 18,0 v 0.08789 2.089844 h 9.177734 v -2.177735 z m 18,0 v 0.08789 2.089844 h 9.177734 v -2.177735 z m 18,0 v 0.08789 2.089844 h 9.177734 v -2.177735 z m 18.000001,0 v 0.08789 2.089844 h 9.17773 v -2.177735 z m 18,0 v 0.08789 2.089844 h 9.17773 v -2.177735 z m 18,0 v 0.08789 2.089844 h 9.17773 V 76.082031 Z M 16.470703,76.259766 h 8.822266 v 1.822265 h -8.822266 z m 18,0 h 8.822266 v 1.822265 h -8.822266 z m 18,0 h 8.822266 v 1.822265 h -8.822266 z m 18,0 h 8.822266 v 1.822265 h -8.822266 z m 18,0 h 8.822266 v 1.822265 h -8.822266 z m 17.999997,0 h 8.82227 v 1.822265 h -8.82227 z m 18,0 h 8.82227 v 1.822265 h -8.82227 z m 18,0 h 8.82227 v 1.822265 H 142.4707 Z M 16.292969,85.082031 v 9.177735 h 2.177734 v -9.177735 h -0.08789 z m 133.000001,0 v 9.177735 h 2.17773 v -9.177735 h -0.0879 z M 16.470703,85.259766 h 1.822266 v 8.822265 h -1.822266 z m 132.999997,0 h 1.82227 v 8.822265 H 149.4707 Z M 16.292969,103.08203 v 9.17774 h 2.177734 v -9.17774 h -0.08789 z m 133.000001,0 v 9.17774 h 2.17773 v -9.17774 h -0.0879 z m -132.822267,0.17774 h 1.822266 v 8.82226 h -1.822266 z m 132.999997,0 h 1.82227 v 8.82226 H 149.4707 Z M 16.292969,121.08203 v 9.17774 h 2.177734 v -9.17774 h -0.08789 z m 133.000001,0 v 9.17774 h 2.17773 v -9.17774 h -0.0879 z m -132.822267,0.17774 h 1.822266 v 8.82226 h -1.822266 z m 132.999997,0 h 1.82227 v 8.82226 H 149.4707 Z M 16.292969,139.08203 v 9.17774 h 2.177734 v -9.17774 h -0.08789 z m 133.000001,0 v 9.17774 h 2.17773 v -9.17774 h -0.0879 z m -132.822267,0.17774 h 1.822266 v 8.82226 h -1.822266 z m 132.999997,0 h 1.82227 v 8.82226 H 149.4707 Z M 16.292969,157.08203 v 9.17774 h 2.177734 v -9.17774 h -0.08789 z m 133.000001,0 v 9.17774 h 2.17773 v -9.17774 h -0.0879 z m -132.822267,0.17774 h 1.822266 v 8.82226 h -1.822266 z m 132.999997,0 h 1.82227 v 8.82226 H 149.4707 Z M 16.292969,175.08203 v 9.17774 h 2.177734 v -9.17774 h -0.08789 z m 133.000001,0 v 9.17774 h 2.17773 v -9.17774 h -0.0879 z m -132.822267,0.17774 h 1.822266 v 8.82226 h -1.822266 z m 132.999997,0 h 1.82227 v 8.82226 H 149.4707 Z M 16.292969,193.08203 v 9.17774 h 2.177734 v -9.17774 h -0.08789 z m 133.000001,0 v 9.17774 h 2.17773 v -9.17774 h -0.0879 z m -132.822267,0.17774 h 1.822266 v 8.82226 h -1.822266 z m 132.999997,0 h 1.82227 v 8.82226 H 149.4707 Z M 16.292969,209.08203 v 0.0879 2.08985 h 9.177734 v -2.17774 z m 18,0 v 0.0879 2.08985 h 9.177734 v -2.17774 z m 18,0 v 0.0879 2.08985 h 9.177734 v -2.17774 z m 18,0 v 0.0879 2.08985 h 9.177734 v -2.17774 z m 18,0 v 0.0879 2.08985 h 9.177734 v -2.17774 z m 18.000001,0 v 0.0879 2.08985 h 9.17773 v -2.17774 z m 18,0 v 0.0879 2.08985 h 9.17773 v -2.17774 z m 18,0 v 0.0879 2.08985 h 9.17773 v -2.17774 z m -125.822267,0.17774 h 8.822266 v 1.82226 h -8.822266 z m 18,0 h 8.822266 v 1.82226 h -8.822266 z m 18,0 h 8.822266 v 1.82226 h -8.822266 z m 18,0 h 8.822266 v 1.82226 h -8.822266 z m 18,0 h 8.822266 v 1.82226 h -8.822266 z m 17.999997,0 h 8.82227 v 1.82226 h -8.82227 z m 18,0 h 8.82227 v 1.82226 h -8.82227 z m 18,0 h 8.82227 v 1.82226 h -8.82227 z"
       id="path27" />
    <path
       style="color:#000000;fill:#000000;-inkscape-stroke:none"
       d="m 43.070312,323.05078 c -0.598451,0 -1.08789,0.48958 -1.08789,1.08789 v 5.5 c 0,0.5983 0.489527,1.08985 1.08789,1.08985 h 1.089844 v -3.75 h 1.822266 v 3.75 h 1.08789 c 0.59838,0 1.089844,-0.49145 1.089844,-1.08985 v -5.5 c 0,-0.59841 -0.491394,-1.08789 -1.089844,-1.08789 z m 0,0.17774 h 4 c 0.50145,0 0.91211,0.40875 0.91211,0.91015 v 5.5 c 0,0.50136 -0.41075,0.91211 -0.91211,0.91211 h -0.910156 v -3.75 h -2.177734 v 3.75 h -0.91211 c -0.501315,0 -0.910156,-0.41086 -0.910156,-0.91211 v -5.5 c 0,-0.50128 0.408729,-0.91015 0.910156,-0.91015 z"
       id="path81" />
    <path
       style="color:#000000;fill:#000000;-inkscape-stroke:none"
       d="m 51.070312,323.05078 c -0.598473,0 -1.08789,0.48939 -1.08789,1.08789 v 5.5 c 0,0.59851 0.489418,1.08985 1.08789,1.08985 h 1 5.5 c 2.119095,0 3.839844,-1.72075 3.839844,-3.83985 0,-2.11909 -1.72075,-3.83789 -3.839844,-3.83789 h -3.58789 v 3.75 h -1.822266 v -3.75 h -0.08984 z m 0,0.17774 h 0.91211 v 3.75 h 2.177734 v -3.75 h 3.410156 c 2.023003,0 3.66211,1.63715 3.66211,3.66015 0,2.023 -1.639108,3.66211 -3.66211,3.66211 h -5.5 -1 c -0.501486,0 -0.910156,-0.41058 -0.910156,-0.91211 v -5.5 c 0,-0.50152 0.408671,-0.91015 0.910156,-0.91015 z m 6.5,2.12109 c -0.848847,0 -1.539062,0.69025 -1.539062,1.53906 0,0.84885 0.690215,1.53906 1.539062,1.53906 0.848848,0 1.539063,-0.69021 1.539063,-1.53906 0,-0.84882 -0.690215,-1.53906 -1.539063,-1.53906 z m 0,0.17773 c 0.752751,0 1.361329,0.60861 1.361329,1.36133 0,0.75276 -0.608578,1.36133 -1.361329,1.36133 -0.75275,0 -1.361328,-0.60857 -1.361328,-1.36133 0,-0.75272 0.608578,-1.36133 1.361328,-1.36133 z"
       id="path83" />
    <path
       style="color:#000000;fill:#000000;-inkscape-stroke:none"
       d="m 111.83008,324.78906 c -0.59844,0 -1.08789,0.48948 -1.08789,1.08789 v 5.5 c 0,0.5984 0.48955,1.08985 1.08789,1.08985 h 1.08984 v -3.75 h 1.82227 v 3.75 h 1.08789 c 0.59836,0 1.08984,-0.49155 1.08984,-1.08985 v -5.5 c 0,-0.59831 -0.49138,-1.08789 -1.08984,-1.08789 z m 0,0.17774 h 4 c 0.50144,0 0.91211,0.40887 0.91211,0.91015 v 5.5 c 0,0.50124 -0.4108,0.91211 -0.91211,0.91211 h -0.91016 v -3.75 h -2.17773 v 3.75 h -0.91211 c -0.50132,0 -0.91016,-0.41075 -0.91016,-0.91211 v -5.5 c 0,-0.5014 0.40872,-0.91015 0.91016,-0.91015 z"
       id="path85" />
    <path
       style="color:#000000;fill:#000000;-inkscape-stroke:none"
       d="m 101.33008,324.78906 c -2.119054,0 -3.837893,1.7188 -3.837893,3.83789 0,2.1191 1.718838,3.83985 3.837893,3.83985 h 5.5 1 c 0.59851,0 1.08984,-0.49134 1.08984,-1.08985 v -5.5 c 0,-0.5985 -0.49133,-1.08789 -1.08984,-1.08789 h -1.08789 v 0.0879 3.66211 h -1.82227 v -3.75 z m 0,0.17774 h 3.41211 v 3.75 h 2.17773 v -3.75 h 0.91016 c 0.50153,0 0.91211,0.40863 0.91211,0.91015 v 5.5 c 0,0.50153 -0.41058,0.91211 -0.91211,0.91211 h -1 -5.5 c -2.02296,0 -3.660158,-1.63911 -3.660158,-3.66211 0,-2.023 1.637197,-3.66015 3.660158,-3.66015 z m 0,2.12109 c -0.84881,0 -1.537111,0.69024 -1.537111,1.53906 0,0.84885 0.688301,1.53907 1.537111,1.53907 0.84886,0 1.53906,-0.69022 1.53906,-1.53907 0,-0.84882 -0.6902,-1.53906 -1.53906,-1.53906 z m 0,0.17773 c 0.75276,0 1.36133,0.60861 1.36133,1.36133 0,0.75275 -0.60857,1.36133 -1.36133,1.36133 -0.75271,0 -1.359377,-0.60858 -1.359377,-1.36133 0,-0.75272 0.606667,-1.36133 1.359377,-1.36133 z"
       id="path87" />
    <path
       style="color:#000000;fill:#000000;-inkscape-stroke:none"
       d="m 127.81445,319.87109 v 2.17774 h 2 v 14.16015 c 0,3.48592 2.85194,6.33985 6.33789,6.33985 3.48603,0 6.33985,-2.85417 6.33985,-6.33985 v -14.16015 h 2 v -2.17774 h -2.08985 -12.5 z m 0.17774,0.17774 h 1.91015 12.5 1.91211 v 1.82226 h -2 v 14.33789 c 0,3.38869 -2.77308,6.16211 -6.16211,6.16211 -3.38896,0 -6.16015,-2.77317 -6.16015,-6.16211 v -14.33789 h -2 z m 6.94726,9.32226 v 0.0879 11.08985 h 2.42774 v -11.17774 z m 0.17774,0.17774 h 2.07226 v 10.82226 h -2.07226 z"
       id="path89" />
    <path
       style="color:#000000;fill:#000000;-inkscape-stroke:none"
       d="m 75.984375,263.54883 c -2.798456,0 -5.089844,2.29127 -5.089844,5.08984 v 19.85156 h 17.972656 v -19.85156 c 0,-2.79857 -2.291358,-5.08984 -5.089843,-5.08984 z m 0,0.17773 h 7.792969 c 2.701509,0 4.912109,2.21052 4.912109,4.91211 V 288.3125 H 71.072266 v -19.67383 c 0,-2.70159 2.21063,-4.91211 4.912109,-4.91211 z m 15.292969,12.45508 c -0.255151,0 -0.462891,0.20773 -0.462891,0.46289 0,0.20625 0.187919,0.31515 0.375,0.375 -0.256425,0.0636 -0.5,0.22486 -0.5,0.5 v 4 c 0,0.27467 0.244207,0.43598 0.5,0.5 -0.187688,0.0595 -0.375,0.16829 -0.375,0.375 0,0.25514 0.207729,0.46484 0.462891,0.46484 0.255138,0 0.464844,-0.20969 0.464843,-0.46484 0,-0.20628 -0.187925,-0.31516 -0.375,-0.375 0.255157,-0.0645 0.5,-0.22579 0.5,-0.5 v -4 c 0,-0.27468 -0.244216,-0.43599 -0.5,-0.5 0.186473,-0.0602 0.375001,-0.16917 0.375,-0.375 0,-0.25517 -0.209716,-0.46289 -0.464843,-0.46289 z m 0,0.17773 c 0.159032,0 0.287109,0.12609 0.287109,0.28516 0,0.15902 -0.128088,0.28711 -0.287109,0.28711 -0.159058,0 -0.285157,-0.12808 -0.285157,-0.28711 0,-0.15908 0.126088,-0.28516 0.285157,-0.28516 z m 0,0.75 c 0.22655,0 0.412109,0.18362 0.412109,0.41016 v 4 c 0,0.2265 -0.18558,0.41211 -0.412109,0.41211 -0.226518,0 -0.410156,-0.18561 -0.410157,-0.41211 v -4 c 0,-0.22653 0.183618,-0.41015 0.410157,-0.41016 z m 0,5 c 0.159029,0 0.287109,0.12611 0.287109,0.28516 0,0.15903 -0.128088,0.28711 -0.287109,0.28711 -0.159058,0 -0.285157,-0.12807 -0.285157,-0.28711 0,-0.15907 0.12609,-0.28516 0.285157,-0.28516 z m -20.382813,8.70313 v 0.0898 5.08789 h 17.972656 v -5.17773 z m 0.177735,0.17773 h 17.617187 v 4.82227 H 71.072266 Z"
       id="path91" />
    <path
       style="color:#000000;fill:#000000;-inkscape-stroke:none"
       d="m 14.292969,223.3125 v 12.5 h -2 v 12.67773 h 2 v 12.32227 h -2 v 12.67773 h 2 v 12.32227 h -2 v 12.5 0.0898 2.08789 h 9.177734 v -2 h 8.822266 v 2 h 9.177734 v -2 h 8.822266 v 2 h 9.177734 v -2 h 8.820313 v 2 h 9.179687 v -2 h 8.820313 v 2 h 9.177734 v -2 h 8.82227 v 2 h 9.17773 v -2 h 8.82227 v 2 h 9.17773 v -2 h 8.82227 v 2 h 9.17773 v -2.08789 -12.58984 h -2 v -12.32227 h 2 V 260.8125 h -2 v -12.32227 h 2 V 235.8125 h -2 v -12.5 H 92.291016 v 5.08984 c 0,1.32653 -1.083628,2.41016 -2.410157,2.41016 h -20 c -1.326559,0 -2.412109,-1.08389 -2.412109,-2.41016 v -5.08984 z m 0.177734,0.17773 h 52.820313 v 4.91211 c 0,1.42327 1.166285,2.58789 2.589843,2.58789 h 20 c 1.423509,0 2.587891,-1.16438 2.587891,-2.58789 v -4.91211 h 52.82227 v 12.5 h 2 v 12.32227 h -2 v 12.67773 h 2 v 12.32227 h -2 v 12.67773 h 2 v 12.41211 1.91016 h -8.82227 v -2 h -9.17773 v 2 h -8.82227 v -2 h -9.17773 v 2 h -8.82227 v -2 h -9.177734 v 2 H 84.46875 v -2 h -9.177734 v 2 h -8.820313 v -2 h -9.179687 v 2 h -8.820313 v -2 h -9.177734 v 2 h -8.822266 v -2 h -9.177734 v 2 h -8.822266 v -1.82227 -0.0879 -12.41211 h 2 V 273.3125 h -2 v -12.32227 h 2 V 248.3125 h -2 v -12.32227 h 2 z m 14.822266,6.32227 v 0.0898 9.58789 h 9.677734 v -9.67773 z m 11.5,0 v 0.0898 9.58789 h 9.677734 v -9.67773 z m 68.498051,0 v 0.0898 9.58789 h 9.67773 v -9.67773 z m 11.5,0 v 0.0898 9.58789 h 9.67773 v -9.67773 z m -91.320317,0.17773 h 9.322266 v 9.32227 h -9.322266 z m 11.5,0 h 9.322266 v 9.32227 h -9.322266 z m 68.498047,0 h 9.32227 v 9.32227 h -9.32227 z m 11.5,0 h 9.32227 v 9.32227 h -9.32227 z m -42.302734,5.07227 v 0.0898 5.08789 h 2.427734 v -5.17773 z m 0.177734,0.17773 h 2.072266 v 4.82227 H 78.84375 Z m -49.550781,6.07227 v 0.0898 9.58789 h 9.677734 v -9.67773 z m 11.5,0 v 0.0898 9.58789 h 9.677734 v -9.67773 z m 68.498051,0 v 0.0898 9.58789 h 9.67773 v -9.67773 z m 11.5,0 v 0.0898 9.58789 h 9.67773 v -9.67773 z m -91.320317,0.17773 h 9.322266 v 9.32227 h -9.322266 z m 11.5,0 h 9.322266 v 9.32227 h -9.322266 z m 68.498047,0 h 9.32227 v 9.32227 h -9.32227 z m 11.5,0 h 9.32227 v 9.32227 h -9.32227 z M 29.292969,267.3125 v 0.0898 9.58789 h 9.677734 v -9.67773 z m 11.5,0 v 0.0898 9.58789 h 9.677734 v -9.67773 z m 68.498051,0 v 0.0898 9.58789 h 9.67773 v -9.67773 z m 11.5,0 v 0.0898 9.58789 h 9.67773 v -9.67773 z m -91.320317,0.17773 h 9.322266 v 9.32227 h -9.322266 z m 11.5,0 h 9.322266 v 9.32227 h -9.322266 z m 68.498047,0 h 9.32227 v 9.32227 h -9.32227 z m 11.5,0 h 9.32227 v 9.32227 h -9.32227 z M 29.292969,278.8125 v 0.0898 9.58789 h 9.677734 v -9.67773 z m 11.5,0 v 0.0898 9.58789 h 9.677734 v -9.67773 z m 68.498051,0 v 0.0898 9.58789 h 9.67773 v -9.67773 z m 11.5,0 v 0.0898 9.58789 h 9.67773 v -9.67773 z m -91.320317,0.17773 h 9.322266 v 9.32227 h -9.322266 z m 11.5,0 h 9.322266 v 9.32227 h -9.322266 z m 68.498047,0 h 9.32227 v 9.32227 h -9.32227 z m 11.5,0 h 9.32227 v 9.32227 h -9.32227 z"
       id="path93" />
    <path
       style="color:#000000;fill:#000000;-inkscape-stroke:none"
       d="m 14.035156,306.47266 v 0.0898 2.41016 h -2 v 5.17773 h 2 v 2.50195 h 53 v 4.91016 c 0,1.42349 1.164585,2.58789 2.587891,2.58789 h 20 c 1.423278,0 2.589844,-1.16464 2.589844,-2.58789 v -4.91016 h 52.999999 v -2.50195 h 2 v -5.17773 h -2 v -2.5 z m 0.177735,0.17968 H 145.03516 v 2.5 h 2 v 4.82032 h -2 v 2.5 H 92.035156 v 5.08984 c 0,1.32623 -1.08585,2.41016 -2.412109,2.41016 h -20 c -1.326311,0 -2.410156,-1.08367 -2.410156,-2.41016 v -5.08984 h -53 v -2.5 h -2 v -4.82032 h 2 z m 64.322265,2.32032 v 0.0898 5.08789 h 2.177735 v -5.17773 z m 0.177735,0.17968 h 1.822265 v 4.82032 h -1.822265 z m -7.427735,3.82032 v 0.0898 7.58789 h 2.177735 v -7.67773 z m 14.5,0 v 0.0898 7.58789 h 2.177735 v -7.67773 z m -14.322265,0.17968 h 1.822265 v 7.32032 h -1.822265 z m 14.5,0 h 1.822265 v 7.32032 h -1.822265 z"
       id="path95" />
    <path
       style="color:#000000;fill:#000000;-inkscape-stroke:none"
       d="m 23.210937,320.54687 c -2.257135,0 -4.08789,1.83076 -4.08789,4.0879 0,2.25715 1.831274,4.08984 4.08789,4.08984 h 5.089844 v -1.5 h 2 v -5.17774 h -2 v -1.5 z m 0,0.17774 h 4.91211 v 1.5 h 2 v 4.82226 h -2 v 1.5 h -4.91211 c -2.160498,0 -3.910156,-1.75108 -3.910156,-3.9121 0,-2.16104 1.749116,-3.91016 3.910156,-3.91016 z m 0,1.32226 c -1.428744,0 -2.58789,1.15915 -2.58789,2.5879 0,1.42874 1.159146,2.58984 2.58789,2.58984 1.428745,0 2.589844,-1.1611 2.589844,-2.58984 0,-1.42875 -1.161099,-2.5879 -2.589844,-2.5879 z m 0,0.17774 c 1.332654,0 2.41211,1.0775 2.41211,2.41016 0,1.33265 -1.079456,2.4121 -2.41211,2.4121 -1.332653,0 -2.410156,-1.07945 -2.410156,-2.4121 0,-1.33266 1.077503,-2.41016 2.410156,-2.41016 z"
       id="path97" />
  </g>
</svg>
