<?xml version="1.0" encoding="UTF-8" standalone="no"?>
<!-- Created with Inkscape (http://www.inkscape.org/) -->

<svg
   width="350mm"
   height="350mm"
   viewBox="0 0 350 350"
   version="1.1"
   id="svg2452"
   xmlns="http://www.w3.org/2000/svg"
   xmlns:svg="http://www.w3.org/2000/svg">
  <defs
     id="defs2449" />
  <g
     id="layer1">
    <path
       style="color:#000000;fill:#000000;-inkscape-stroke:none"
       d="M 4.6660156,6.9472656 V 9.0351563 105.99414 c 0,1.42347 1.1663666,2.58984 2.5898438,2.58984 H 147.25586 c 1.42351,0 2.58789,-1.16637 2.58789,-2.58984 V 8.9472656 h -14.5 v -2 h -14.67773 v 2 h -14.32227 v -2 H 91.666016 v 2 H 77.34375 v -2 H 62.666016 v 2 H 48.34375 v -2 H 33.666016 v 2 H 19.34375 v -2 z M 4.84375,7.125 h 14.322266 v 2 h 0.08984 14.587891 v -2 h 14.322266 v 2 H 62.84375 v -2 h 14.322266 v 2 H 91.84375 v -2 h 14.32227 v 2 h 14.67773 v -2 h 14.32227 v 2 h 14.5 v 96.86914 c 0,1.32649 -1.08363,2.41211 -2.41016,2.41211 H 7.2558594 c -1.3264901,0 -2.4121094,-1.08562 -2.4121094,-2.41211 V 9.0351563 Z M 9.6660156,18.947266 V 19.035156 34.125 H 11.84375 V 18.947266 Z m 133.0000044,0 V 19.035156 34.125 h 2.17773 V 18.947266 Z M 9.84375,19.125 h 1.822266 V 33.947266 H 9.84375 Z m 133,0 h 1.82227 v 14.822266 h -1.82227 z M 19.755859,38.197266 c -1.423438,0 -2.589843,1.1644 -2.589843,2.58789 0,1.42349 1.166405,2.589844 2.589843,2.589844 H 134.75586 c 1.42343,0 2.58789,-1.166355 2.58789,-2.589844 0,-1.423489 -1.16446,-2.58789 -2.58789,-2.58789 z m 0,0.177734 H 134.75586 c 1.32645,0 2.41016,1.083644 2.41016,2.410156 0,1.326513 -1.08371,2.41211 -2.41016,2.41211 H 19.755859 c -1.326457,0 -2.412109,-1.085599 -2.412109,-2.41211 0,-1.326511 1.085652,-2.410156 2.412109,-2.410156 z M 9.6660156,79.40625 v 0.08789 15.089843 H 11.84375 V 79.40625 Z m 133.0000044,0 v 0.08789 15.089843 h 2.17773 V 79.40625 Z M 9.84375,79.583984 h 1.822266 V 94.40625 H 9.84375 Z m 133,0 h 1.82227 V 94.40625 h -1.82227 z M 76.166016,92.90625 v 0.08789 7.589839 h 2.177734 v -7.67773 z m 0.177734,0.177734 h 1.822266 v 7.322266 H 76.34375 Z"
       id="path55" />
    <path
       style="color:#000000;fill:#000000;-inkscape-stroke:none"
       d="m 170.16602,6.9472656 v 2 h -14.5 V 105.99414 c 0,1.42347 1.16636,2.58984 2.58984,2.58984 h 140 c 1.42347,0 2.58789,-1.16637 2.58789,-2.58984 V 9.0351563 6.9472656 h -14.67773 v 2 h -14.32227 v -2 h -14.67773 v 2 h -14.32227 v -2 h -14.67773 v 2 h -14.32227 v -2 h -14.67773 v 2 h -14.32227 v -2 z M 170.34375,7.125 h 14.32227 v 2 h 14.67773 v -2 h 14.32227 v 2 h 14.67773 v -2 h 14.32227 v 2 h 14.67773 v -2 h 14.32227 v 2 h 14.67773 V 9.0351563 7.125 h 14.32227 V 9.0351563 105.99414 c 0,1.32649 -1.08368,2.41211 -2.41016,2.41211 h -140 c -1.3265,0 -2.41211,-1.08562 -2.41211,-2.41211 V 9.125 h 14.5 z m -9.67773,11.822266 V 34.125 h 2.17773 V 18.947266 h -0.0879 z m 133,0 V 34.125 h 2.17773 V 18.947266 h -0.0879 z M 160.84375,19.125 h 1.82227 v 14.822266 h -1.82227 z m 133,0 h 1.82227 v 14.822266 h -1.82227 z M 160.66602,79.40625 v 15.177734 h 2.17773 V 79.40625 h -0.0879 z m 133,0 v 15.177734 h 2.17773 V 79.40625 h -0.0879 z m -132.82227,0.177734 h 1.82227 V 94.40625 h -1.82227 z m 133,0 h 1.82227 V 94.40625 h -1.82227 z M 227.16602,92.90625 v 7.67773 h 2.17773 v -7.67773 h -0.0879 z m 0.17773,0.177734 h 1.82227 v 7.322266 h -1.82227 z"
       id="path57" />
    <path
       style="color:#000000;fill:#000000;-inkscape-stroke:none"
       d="m 339.32617,41.222656 v 4 h -2 v 0.08984 7.587891 h 2 v 3.949218 l 1.73242,1.730469 -1.41601,1.414063 3.66211,3.660156 1.41406,-1.414063 1.76758,1.767578 1.51562,-1.513671 -6.52148,-21.271485 z m 0.17774,0.177735 h 1.8457 l 6.45117,21.042968 -1.31445,1.314453 -1.76758,-1.767578 -1.41406,1.414063 -3.41016,-3.410156 1.41406,-1.414063 -1.80468,-1.804687 v -4.052735 h -2 v -7.322265 h 2 z"
       id="path59" />
    <path
       style="color:#000000;fill:#000000;-inkscape-stroke:none"
       d="m 338.60156,10.373047 v 4 h -2 v 0.08984 7.58789 h 2 v 3.947266 l 1.73242,1.732422 -1.41406,1.414062 3.66016,3.660156 1.41406,-1.414062 1.76758,1.767578 1.51562,-1.513672 -6.51953,-21.271484 z m 0.17774,0.177734 h 1.8457 l 6.45117,21.042969 -1.31445,1.314453 -1.76758,-1.769531 -1.41406,1.416015 -3.41016,-3.410156 1.41406,-1.414062 -1.80468,-1.804688 v -4.052734 h -2 v -7.322266 h 2 z"
       id="path61" />
    <path
       style="color:#000000;fill:#000000;-inkscape-stroke:none"
       d="m 319.91797,37.150391 c -2.38042,0 -4.5562,0.325909 -6.23242,0.867187 -1.63873,0.529173 -2.78273,1.263052 -3.1836,2.132813 h -0.99414 v -2 h -2.17773 v 2 h -2 v 0.08789 2.089844 h 2 v 20.822266 h -2 v 2.177734 h 2 v 2 h 2.17773 v -2 h 20.82227 v 2 h 2.17773 v -2 h 2 v -2.177734 h -2 V 42.328125 h 2 v -2.177734 h -2 v -2 h -2.17773 v 2 h -0.99414 c -0.40087,-0.869761 -1.54487,-1.60364 -3.1836,-2.132813 -1.67621,-0.541278 -3.85397,-0.867187 -6.23437,-0.867187 z m 0,0.177734 c 2.36416,0 4.5265,0.323581 6.17969,0.857422 1.65318,0.533841 2.7898,1.284572 3.125,2.08789 l 0.0215,0.05469 h 1.26367 v -2 h 1.82227 v 2 h 2 v 1.822266 h -2 v 21.177734 h 2 v 1.822266 h -2 v 2 h -1.82227 v -2 h -21.17773 v 2 h -1.82227 v -2 h -2 v -1.822266 h 2 V 42.150391 h -2 v -1.822266 h 2 v -2 h 1.82227 v 2 h 1.26172 l 0.0234,-0.05469 c 0.3352,-0.803317 1.47181,-1.554049 3.125,-2.08789 1.65319,-0.533841 3.81356,-0.857422 6.17774,-0.857422 z m -10.58789,4.822266 v 21.177734 h 21.17773 V 42.150391 h -0.0898 z m 0.17773,0.177734 h 20.82227 v 20.822266 h -20.82227 z"
       id="path39" />
    <path
       style="color:#000000;fill:#000000;-inkscape-stroke:none"
       d="m 319.83398,69.542969 c -2.3804,0 -4.5562,0.325911 -6.23242,0.867187 -1.63869,0.529161 -2.7827,1.263061 -3.18359,2.132813 h -0.99414 v -2 h -2.17774 v 2 h -2 v 0.08789 2.089844 h 2 v 20.822266 h -2 v 2.177734 h 2 v 2 h 2.17774 v -2 h 20.82226 v 2 h 2.17774 v -2 h 2 v -2.177734 h -2 V 74.720703 h 2 v -2.177734 h -2 v -2 h -2.17774 v 2 h -0.99414 c -0.40088,-0.869752 -1.54489,-1.603652 -3.18359,-2.132813 -1.67622,-0.541276 -3.85395,-0.867187 -6.23438,-0.867187 z m 0,0.177734 c 2.36418,0 4.5265,0.323582 6.17969,0.857422 1.65319,0.53384 2.78981,1.284558 3.125,2.087891 l 0.0215,0.05469 h 1.26367 v -2 h 1.82226 v 2 h 2 v 1.822266 h -2 v 21.177734 h 2 v 1.822266 h -2 v 2 h -1.82226 v -2 h -21.17774 v 2 h -1.82226 v -2 h -2 v -1.822266 h 2 V 74.542969 h -2 v -1.822266 h 2 v -2 h 1.82226 v 2 h 1.26172 l 0.0234,-0.05469 c 0.33519,-0.803333 1.47181,-1.554051 3.125,-2.087891 1.65319,-0.53384 3.81357,-0.857422 6.17773,-0.857422 z m -10.58789,4.822266 v 21.177734 h 21.17774 V 74.542969 h -0.0899 z m 0.17774,0.177734 h 20.82226 v 20.822266 h -20.82226 z"
       id="path41" />
    <path
       style="color:#000000;fill:#000000;-inkscape-stroke:none"
       d="m 319.67187,6.0644531 c -2.38041,0 -4.5562,0.3259108 -6.23242,0.8671875 -1.6387,0.5291609 -2.7827,1.2630605 -3.18359,2.1328125 h -0.99414 v -2 h -2.17774 v 2 h -2 v 0.087891 2.0898442 h 2 v 20.822265 h -2 v 2.177734 h 2 v 2 h 2.17774 v -2 h 20.82226 v 2 h 2.17774 v -2 h 2 v -2.177734 h -2 V 11.242188 h 2 V 9.0644531 h -2 v -2 h -2.17774 v 2 h -0.99414 c -0.40089,-0.8697516 -1.54489,-1.6036516 -3.18359,-2.1328125 -1.67622,-0.5412767 -3.85397,-0.8671875 -6.23438,-0.8671875 z m 0,0.1777344 c 2.36417,0 4.52651,0.3235821 6.17969,0.8574219 1.65319,0.5338398 2.7898,1.2845574 3.125,2.0878906 L 329,9.2421875 h 1.26172 v -2 h 1.82226 v 2 h 2 v 1.8222655 h -2 v 21.177734 h 2 v 1.822266 h -2 v 2 h -1.82226 v -2 h -21.17774 v 2 h -1.82226 v -2 h -2 v -1.822266 h 2 V 11.064453 h -2 V 9.2421875 h 2 v -2 h 1.82226 v 2 h 1.26172 l 0.0234,-0.054687 c 0.33519,-0.8033329 1.47181,-1.5540508 3.125,-2.0878906 1.65319,-0.5338398 3.81356,-0.8574219 6.17773,-0.8574219 z m -10.58789,4.8222655 v 21.177734 h 21.17774 V 11.064453 h -0.0899 z m 0.17774,0.177735 h 20.82226 v 20.822265 h -20.82226 z"
       id="path43" />
    <path
       style="color:#000000;fill:#000000;-inkscape-stroke:none"
       d="m 319.96484,101.25586 c -2.3804,0 -4.55816,0.32591 -6.23437,0.86719 -1.6387,0.52916 -2.78271,1.26307 -3.1836,2.13281 h -0.99414 v -2 H 307.375 v 2 h -2 v 0.0898 2.08789 h 2 v 20.82227 h -2 v 2.17773 h 2 v 2 h 2.17773 v -2 H 330.375 v 2 h 2.17773 v -2 h 2 v -2.17773 h -2 v -20.82227 h 2 v -2.17773 h -2 v -2 H 330.375 v 2 h -0.99414 c -0.40089,-0.86974 -1.54489,-1.60365 -3.18359,-2.13281 -1.67623,-0.54128 -3.852,-0.86719 -6.23243,-0.86719 z m 0,0.17773 c 2.36418,0 4.52455,0.32554 6.17774,0.85938 1.65319,0.53384 2.78981,1.28262 3.125,2.08594 l 0.0234,0.0547 h 1.26171 v -2 h 1.82227 v 2 h 2 v 1.82227 h -2 v 21.17773 h 2 v 1.82227 h -2 v 2 h -1.82227 v -2 H 309.375 v 2 h -1.82227 v -2 h -2 v -1.82227 h 2 v -21.17773 h -2 v -1.82227 h 2 v -2 h 1.82227 v 2 h 1.26172 l 0.0234,-0.0547 c 0.33519,-0.80332 1.47181,-1.5521 3.125,-2.08594 1.65318,-0.53384 3.81552,-0.85938 6.17968,-0.85938 z m -10.58984,4.82227 v 21.17773 h 21.17773 v -21.17773 h -0.0879 z m 0.17773,0.17773 H 330.375 v 20.82227 h -20.82227 z"
       id="path45" />
    <path
       style="color:#000000;fill:#000000;-inkscape-stroke:none"
       d="m 320.50391,134.13477 c -2.38043,0 -4.55816,0.32591 -6.23438,0.86718 -1.6387,0.52916 -2.78271,1.26308 -3.18359,2.13282 h -0.99414 v -2 h -2.17774 v 2 h -2 v 0.0898 2.08789 h 2 v 9.32227 h -2 v 2.17773 h 2 v 2 h 2.17774 v -2 h 20.82226 v 2 h 2.17774 v -2 h 2 v -2.17773 h -2 v -9.32227 h 2 v -2.17773 h -2 v -2 h -2.17774 v 2 h -0.99414 c -0.40089,-0.86974 -1.5449,-1.60366 -3.18359,-2.13282 -1.67622,-0.54127 -3.85202,-0.86718 -6.23242,-0.86718 z m 0,0.17773 c 2.36416,0 4.52454,0.32554 6.17773,0.85937 1.65319,0.53384 2.78981,1.28262 3.125,2.08594 l 0.0234,0.0547 h 1.26172 v -2 h 1.82226 v 2 h 2 v 1.82227 h -2 v 9.67773 h 2 v 1.82227 h -2 v 2 h -1.82226 v -2 h -21.17774 v 2 h -1.82226 v -2 h -2 v -1.82227 h 2 v -9.67773 h -2 v -1.82227 h 2 v -2 h 1.82226 v 2 h 1.26367 l 0.0215,-0.0547 c 0.33519,-0.80332 1.47181,-1.5521 3.125,-2.08594 1.65319,-0.53383 3.81551,-0.85937 6.17969,-0.85937 z m -10.58985,4.82227 v 9.67773 h 21.17774 v -9.67773 h -0.0879 z m 0.17774,0.17773 h 20.82226 v 9.32227 H 310.0918 Z"
       id="path47" />
    <path
       style="color:#000000;fill:#000000;-inkscape-stroke:none"
       d="m 8.421875,112.56641 v 0.0898 2.41016 h -2 v 5.17773 h 2 v 2.5 H 139.59766 v -2.5 h 2 v -5.17773 h -2 v -2.5 z m 0.1777344,0.17773 H 139.41992 v 2.5 h 2 v 4.82227 h -2 v 2.5 H 8.5996094 v -2.5 h -2 v -4.82227 h 2 z m 64.3222656,2.32227 v 0.0898 5.08789 h 2.177734 v -5.17773 z m 0.177734,0.17773 h 1.822266 v 4.82227 h -1.822266 z"
       id="path53" />
    <path
       style="color:#000000;fill:#000000;-inkscape-stroke:none"
       d="m 6.421875,126.56641 v 2.17773 h 2 v 10.32227 h -2 v 12.67773 h 2 v 12.32227 h -2 v 12.67773 h 2 v 12.32227 h -2 v 12.58984 2.08789 h 9.177734 v -2 h 8.822266 v 2 h 9.177734 v -2 h 8.822266 v 2 h 9.177734 v -2 h 8.822266 v 2 h 9.177734 v -2 h 8.820313 v 2 h 9.179687 v -2 h 8.820313 v 2 h 9.179688 v -2 h 8.82031 v 2 h 9.17774 v -2 h 8.82226 v 2 h 9.17774 v -2.08789 -0.0898 -12.5 h -2 v -12.32227 h 2 v -12.67773 h -2 v -12.32227 h 2 v -12.67773 h -2 v -10.32227 h 2 v -2.17773 H 139.50977 8.5097656 Z m 0.1777344,0.17773 h 1.9101562 131.0000044 1.91015 v 1.82227 h -2 v 10.67773 h 2 v 12.32227 h -2 v 12.67773 h 2 v 12.32227 h -2 v 12.67773 h 2 v 12.41211 0.0879 1.82227 h -8.82226 v -2 h -9.17774 v 2 h -8.82031 v -2 h -9.17969 v 2 h -8.820311 v -2 h -9.179687 v 2 h -8.820313 v -2 h -9.177734 v 2 h -8.822266 v -2 h -9.177734 v 2 h -8.822266 v -2 h -9.177734 v 2 h -8.822266 v -2 h -9.177734 v 2 H 6.5996094 v -1.91016 -12.41211 h 2 v -12.67773 h -2 v -12.32227 h 2 v -12.67773 h -2 v -12.32227 h 2 v -10.67773 h -2 z m 16.8222656,6.32227 v 0.0898 9.58789 h 9.677734 v -9.67773 z m 11.5,0 v 0.0898 9.58789 h 9.677734 v -9.67773 z m 28.498047,0 v 0.0898 9.58789 h 9.679687 v -9.67773 z m 11.5,0 v 0.0898 9.58789 h 9.679687 v -9.67773 z m 28.499998,0 v 0.0898 9.58789 h 9.67774 v -9.67773 z m 11.5,0 v 0.0898 9.58789 h 9.67774 v -9.67773 z m -91.320311,0.17773 h 9.322266 v 9.32227 h -9.322266 z m 11.5,0 h 9.320313 v 9.32227 h -9.320313 z m 28.5,0 h 9.320313 v 9.32227 h -9.320313 z m 11.5,0 h 9.320313 v 9.32227 h -9.320313 z m 28.498051,0 h 9.32226 v 9.32227 h -9.32226 z m 11.5,0 h 9.32226 v 9.32227 h -9.32226 z m -91.675785,11.32227 v 0.0898 9.58789 h 9.677734 v -9.67773 z m 11.5,0 v 0.0898 9.58789 h 9.677734 v -9.67773 z m 68.498045,0 v 0.0898 9.58789 h 9.67774 v -9.67773 z m 11.5,0 v 0.0898 9.58789 h 9.67774 v -9.67773 z m -91.320311,0.17773 h 9.322266 v 9.32227 h -9.322266 z m 11.5,0 h 9.320313 v 9.32227 h -9.320313 z m 68.498051,0 h 9.32226 v 9.32227 h -9.32226 z m 11.5,0 h 9.32226 v 9.32227 h -9.32226 z m -91.675785,25.82227 v 0.0898 9.58789 h 9.677734 v -9.67773 z m 11.5,0 v 0.0898 9.58789 h 9.677734 v -9.67773 z m 68.498045,0 v 0.0898 9.58789 h 9.67774 v -9.67773 z m 11.5,0 v 0.0898 9.58789 h 9.67774 v -9.67773 z m -91.320311,0.17773 h 9.322266 v 9.32227 h -9.322266 z m 11.5,0 h 9.320313 v 9.32227 h -9.320313 z m 68.498051,0 h 9.32226 v 9.32227 h -9.32226 z m 11.5,0 h 9.32226 v 9.32227 h -9.32226 z m -91.675785,11.32227 v 0.0898 9.58789 h 9.677734 v -9.67773 z m 11.5,0 v 0.0898 9.58789 h 9.677734 v -9.67773 z m 68.498045,0 v 0.0898 9.58789 h 9.67774 v -9.67773 z m 11.5,0 v 0.0898 9.58789 h 9.67774 v -9.67773 z m -91.320311,0.17773 h 9.322266 v 9.32227 h -9.322266 z m 11.5,0 h 9.320313 v 9.32227 h -9.320313 z m 68.498051,0 h 9.32226 v 9.32227 h -9.32226 z m 11.5,0 h 9.32226 v 9.32227 h -9.32226 z"
       id="path77" />
    <path
       style="color:#000000;fill:#000000;-inkscape-stroke:none"
       d="m 309.96484,189.14062 v 2 h -2 v 2.17774 h 2 v 0.99414 c -0.86975,0.40089 -1.60365,1.54489 -2.13281,3.18359 -0.54127,1.67622 -0.86719,3.85395 -0.86719,6.23438 0,2.3804 0.32592,4.5562 0.86719,6.23242 0.52916,1.6387 1.26306,2.78271 2.13281,3.18359 v 0.99414 h -2 v 2.17774 h 2 v 2 h 0.0879 2.08985 v -2 h 20.82226 v 2 h 2.17774 v -2 h 2 v -2.17774 h -2 v -20.82226 h 2 v -2.17774 h -2 v -2 h -2.17774 v 2 h -20.82226 v -2 z m 0.17774,0.17774 h 1.82226 v 2 h 21.17774 v -2 h 1.82226 v 2 h 2 v 1.82226 h -2 v 21.17774 h 2 v 1.82226 h -2 v 2 h -1.82226 v -2 h -21.17774 v 2 h -1.82226 v -2 h -2 v -1.82226 h 2 v -1.26172 l -0.0547,-0.0234 c -0.80334,-0.33519 -1.55405,-1.47181 -2.08789,-3.125 -0.53384,-1.65318 -0.85742,-3.81357 -0.85742,-6.17773 0,-2.36418 0.32358,-4.5265 0.85742,-6.17969 0.53384,-1.65319 1.28455,-2.78981 2.08789,-3.125 l 0.0547,-0.0234 v -1.26172 h -2 v -1.82226 h 2 z m 1.82226,3.82226 v 0.0898 21.08789 h 21.17774 v -21.17774 z m 0.17774,0.17774 h 20.82226 v 20.82226 h -20.82226 z"
       id="path49" />
    <path
       style="color:#000000;fill:#000000;-inkscape-stroke:none"
       d="m 309.40039,156.37109 v 2 h -2 v 2.17774 h 2 v 0.99414 c -0.86974,0.40089 -1.60365,1.54489 -2.13281,3.18359 -0.54128,1.67622 -0.86719,3.85395 -0.86719,6.23438 0,2.3804 0.32591,4.5562 0.86719,6.23242 0.52916,1.6387 1.26307,2.78271 2.13281,3.18359 v 0.99414 h -2 v 2.17774 h 2 v 2 h 0.0879 2.08984 v -2 h 20.82227 v 2 h 2.17773 v -2 h 2 v -2.17774 h -2 v -20.82226 h 2 v -2.17774 h -2 v -2 h -2.17773 v 2 h -20.82227 v -2 z m 0.17773,0.17774 h 1.82227 v 2 h 21.17773 v -2 h 1.82227 v 2 h 2 v 1.82226 h -2 v 21.17774 h 2 v 1.82226 h -2 v 2 h -1.82227 v -2 h -21.17773 v 2 h -1.82227 v -2 h -2 v -1.82226 h 2 v -1.26172 l -0.0547,-0.0234 c -0.80333,-0.33519 -1.55406,-1.47181 -2.08789,-3.125 -0.53384,-1.65318 -0.85742,-3.81357 -0.85743,-6.17773 0,-2.36418 0.32359,-4.5265 0.85743,-6.17969 0.53383,-1.65319 1.28456,-2.78981 2.08789,-3.125 l 0.0547,-0.0215 v -1.26368 h -2 v -1.82226 h 2 z m 1.82227,3.82226 v 0.0898 21.08789 h 21.17773 v -21.17774 z m 0.17773,0.17774 h 20.82227 v 20.82226 h -20.82227 z"
       id="path51" />
    <path
       style="color:#000000;fill:#000000;-inkscape-stroke:none"
       d="m 84.279297,205.31836 c -1.331235,0 -2.435435,0.81709 -2.867188,2 h -0.607422 l -0.06055,2 h -4.824219 v -2 h -2.677735 v 0.0527 l -6.96289,6.96289 -1.414063,-1.41406 -10.732422,10.73242 1.414063,1.41407 -32.039063,32.03906 -1.414062,-1.41602 -10.732422,10.73242 1.414063,1.41407 -7.0703129,7.07226 7.0507809,7.05078 -1.414062,1.41407 10.732422,10.73242 1.414062,-1.41406 32.039063,32.03906 -1.414063,1.41406 10.732422,10.73242 1.414063,-1.41406 7.160156,7.16016 v -0.12696 h 2.5 v -2 h 4.822265 v 2 h 2.677735 v -119.27148 -4.29883 -0.88476 c 0,-0.59369 0.180703,-1.12887 0.505859,-1.51368 0.325157,-0.3848 0.791253,-0.62304 1.378906,-0.62304 0.636163,0 1.159244,-0.26173 1.515625,-0.6836 0.356382,-0.42186 0.548829,-0.99918 0.548829,-1.6289 v -1.22461 -3.95899 c 0,-1.7049 -1.384971,-3.08984 -3.089844,-3.08984 z m 0,0.17773 c 1.608783,0 2.912109,1.3033 2.912109,2.91211 v 3.95899 1.22461 c 0,0.59332 -0.18265,1.12876 -0.507812,1.51367 -0.325163,0.38491 -0.79127,0.62109 -1.378907,0.62109 -0.636144,0 -1.157279,0.26378 -1.513671,0.68555 -0.356393,0.42177 -0.548828,0.99884 -0.548829,1.62891 v 0.88476 4.29883 119.09375 h -2.322265 v -2 h -5.177735 v 2 h -2.376953 l -7.105468,-7.10742 -1.414063,1.41406 -10.482422,-10.48047 1.414063,-1.41406 -32.289063,-32.29102 -0.0625,0.0645 -1.351562,1.34961 -10.480469,-10.48047 1.414063,-1.41407 -7.0527349,-7.05078 7.0722659,-7.07226 -1.414063,-1.41407 10.480469,-10.48046 1.414062,1.41406 32.289063,-32.28906 -1.414063,-1.41407 10.480469,-10.48047 1.416016,1.41407 7.089844,-7.08985 h 2.373046 v 2 h 5.173829 l 0.06055,-2 h 0.539063 l 0.01953,-0.0605 c 0.387281,-1.15247 1.458023,-1.93946 2.744141,-1.93946 z m 0,1.37305 c -0.848901,0 -1.53711,0.69021 -1.53711,1.53906 0,0.84884 0.688206,1.53907 1.53711,1.53907 0.848885,0 1.539062,-0.69023 1.539062,-1.53907 0,-0.84885 -0.69018,-1.53906 -1.539062,-1.53906 z m 0,0.17773 c 0.752796,0 1.361328,0.60857 1.361328,1.36133 0,0.75276 -0.608535,1.36133 -1.361328,1.36133 -0.752815,0 -1.359375,-0.60857 -1.359375,-1.36133 0,-0.75276 0.606557,-1.36133 1.359375,-1.36133 z m -36.359375,55.30469 -0.09766,0.008 c -6.149114,0.48672 -11.054262,5.39189 -11.541016,11.54102 l -0.0078,0.0957 h 0.0957 11.550781 z m 1.822265,0 v 0.0957 11.54882 h 11.644532 l -0.0078,-0.0957 c -0.486773,-6.14913 -5.391903,-11.05426 -11.541015,-11.54102 z m -2,0.21094 v 11.25586 H 36.484375 c 0.522754,-5.98118 5.276647,-10.73316 11.257812,-11.25586 z m 2.177735,0 c 5.980256,0.52359 10.733142,5.27533 11.255859,11.25586 H 49.919922 Z m -13.646485,13.25586 0.0078,0.0957 c 0.486753,6.14917 5.391903,11.05622 11.541016,11.54297 l 0.09766,0.008 v -11.64648 z m 13.46875,0 v 11.64648 l 0.0957,-0.008 c 6.149152,-0.48675 11.054242,-5.39384 11.541015,-11.54297 l 0.0078,-0.0957 h -0.0957 z m -13.257812,0.17773 h 11.257812 v 11.25782 C 41.761006,286.73117 37.00711,281.97732 36.484375,275.99609 Z m 13.435547,0 h 11.255859 c -0.522697,5.98056 -5.27555,10.73422 -11.255859,11.25782 z"
       id="path63" />
    <path
       style="color:#000000;fill:#000000;-inkscape-stroke:none"
       d="m 35.738281,318.05469 c -2.687691,0 -5.204638,0.73193 -7.367187,2 h -5.220703 v 5.21875 c -1.269443,2.16343 -2,4.68179 -2,7.37109 0,2.68929 0.730557,5.20766 2,7.37109 v 5.2168 h 5.216796 c 2.163433,1.26942 4.681856,2 7.371094,2 2.68922,0 5.207663,-0.73062 7.371094,-2 h 5.21875 v -5.2207 c 1.26809,-2.16257 2.00005,-4.67952 2,-7.36719 0,-2.68775 -0.731912,-5.20448 -2,-7.36719 v -5.22265 h -5.222656 c -2.162598,-1.26807 -4.679517,-2 -7.367188,-2 z m 0,0.17773 c 2.667576,0 5.165932,0.7252 7.308594,1.98828 l 0.01953,0.0117 h 5.083985 v 5.08399 l 0.01172,0.0195 c 1.263104,2.14277 1.988282,4.64093 1.988282,7.30859 4.9e-5,2.66758 -0.72518,5.16596 -1.988282,7.30859 l -0.01172,0.0195 v 5.08203 h -5.083985 l -0.01953,0.0137 c -2.142663,1.26304 -4.641019,1.98633 -7.308594,1.98633 -2.667595,0 -5.165931,-0.72325 -7.308594,-1.98633 l -0.01953,-0.0137 h -5.082031 v -5.08203 l -0.01367,-0.0195 c -1.263102,-2.14266 -1.986328,-4.64094 -1.986328,-7.30859 0,-2.66766 0.723226,-5.16593 1.986328,-7.30859 l 0.01367,-0.0195 v -5.08399 h 5.082031 l 0.01953,-0.0117 c 2.142612,-1.26308 4.640999,-1.98828 7.308594,-1.98828 z m 0,1.82227 c -6.951638,0 -12.58789,5.63826 -12.58789,12.58984 0,6.95157 5.636252,12.58789 12.58789,12.58789 6.951618,0 12.589844,-5.63632 12.589844,-12.58789 0,-6.95158 -5.638226,-12.58984 -12.589844,-12.58984 z m 0,0.17773 c 6.855528,0 12.41211,5.55662 12.41211,12.41211 0,6.85548 -5.556582,12.41016 -12.41211,12.41016 -6.855548,0 -12.410156,-5.55468 -12.410156,-12.41016 0,-6.85549 5.554608,-12.41211 12.410156,-12.41211 z"
       id="path65" />
    <path
       style="color:#000000;fill:#000000;-inkscape-stroke:none"
       d="m 96.349609,206.94727 v 5.04687 1.22461 c 0,0.59332 -0.18265,1.12876 -0.507812,1.51367 -0.325163,0.38491 -0.789317,0.62305 -1.376953,0.62305 -0.636145,0 -1.159232,0.26377 -1.515625,0.68555 -0.356393,0.42177 -0.548828,0.99884 -0.548828,1.6289 V 342.125 h 12.677739 v -2 h 12.32226 v 2 h 12.67773 v -2 h 12.32227 v 2 h 12.67773 v -2 h 12.5 v -7 h 2 v -9.17773 h -2 V 315.125 h 2 v -9.17773 h -2 V 297.125 h 2 v -9.17773 h -2 V 279.125 h 2 v -9.17773 h -2 V 261.125 h 2 v -9.17773 h -2 V 243.125 h 2 v -9.17773 h -2 V 225.125 h 2 v -9.17773 h -2 v -7 h -12.5 v -2 h -12.67773 v 2 h -12.32227 v -2 h -12.67773 v 2 h -12.32226 v -2 h -0.0898 c -4.06529,7e-5 -8.25141,-1.8e-4 -8.548827,0 z m 0.177735,0.17773 c 0.368177,-1.7e-4 4.389276,6e-5 8.373046,0 v 2 h 12.67774 v -2 h 12.32226 v 2 h 12.67773 v -2 h 12.32227 v 2 h 12.5 v 7 h 0.0879 1.91211 v 8.82227 h -2 v 9.17773 h 2 v 8.82227 h -2 v 9.17773 h 2 v 8.82227 h -2 v 9.17773 h 2 v 8.82227 h -2 v 9.17773 h 2 v 8.82227 h -2 v 9.17773 h 2 v 8.82227 h -2 v 9.17773 h 2 v 8.82227 h -2 v 7 h -12.5 v 2 h -12.32227 v -2 h -12.67773 v 2 h -12.32226 v -2 h -12.67774 v 2 H 92.578125 V 217.66992 c 0,-0.59368 0.182656,-1.12886 0.507812,-1.51367 0.325157,-0.38481 0.791253,-0.62305 1.378907,-0.62305 0.636162,0 1.15729,-0.26368 1.513672,-0.68554 0.356381,-0.42187 0.548828,-0.99919 0.548828,-1.62891 v -1.22461 z m 2.373047,56.82227 v 9.67773 h 0.08789 9.589849 v -9.67773 z m 11.499999,0 v 9.67773 h 0.0879 9.58985 v -9.67773 z m 26,0 v 9.67773 h 0.0879 9.58984 v -9.67773 z m 11.5,0 v 9.67773 h 0.0879 9.58984 v -9.67773 z M 99.078125,264.125 h 9.322265 v 9.32227 h -9.322265 z m 11.500005,0 h 9.32226 v 9.32227 h -9.32226 z m 25.99999,0 h 9.32227 v 9.32227 h -9.32227 z m 11.5,0 h 9.32227 v 9.32227 h -9.32227 z m -49.177729,11.32227 v 9.67773 h 0.08789 9.589849 v -9.67773 z m 11.499999,0 v 9.67773 h 0.0879 9.58985 v -9.67773 z m 26,0 v 9.67773 h 0.0879 9.58984 v -9.67773 z m 11.5,0 v 9.67773 h 0.0879 9.58984 v -9.67773 z M 99.078125,275.625 h 9.322265 v 9.32227 h -9.322265 z m 11.500005,0 h 9.32226 v 9.32227 h -9.32226 z m 25.99999,0 h 9.32227 v 9.32227 h -9.32227 z m 11.5,0 h 9.32227 v 9.32227 h -9.32227 z"
       id="path71" />
    <path
       style="color:#000000;fill:#000000;-inkscape-stroke:none"
       d="m 286.42187,203.03906 c -2.38042,0 -4.55815,0.32396 -6.23437,0.86524 -1.63873,0.52916 -2.78273,1.265 -3.18359,2.13476 h -0.99414 v -2 h -2.17774 v 2 h -2 v 0.0879 2.08985 h 2 v 20.82226 h -2 v 2.17774 h 2 v 2 h 2.17774 v -2 h 20.82226 v 2 h 2.17774 v -2 h 2 v -2.17774 h -2 V 208.2168 h 2 v -2.17774 h -2 v -2 h -2.17774 v 2 h -0.99414 c -0.40087,-0.86976 -1.54487,-1.6056 -3.18359,-2.13476 -1.67622,-0.54128 -3.85202,-0.86524 -6.23243,-0.86524 z m 0,0.17774 c 2.36417,0 4.52455,0.32358 6.17774,0.85742 1.65318,0.53383 2.7898,1.28457 3.125,2.08789 l 0.0234,0.0547 h 1.26172 v -2 h 1.82226 v 2 h 2 v 1.82226 h -2 v 21.17774 h 2 v 1.82226 h -2 v 2 h -1.82226 v -2 h -21.17774 v 2 h -1.82226 v -2 h -2 v -1.82226 h 2 v -21.17774 h -2 v -1.82226 h 2 v -2 h 1.82226 v 2 h 1.26172 l 0.0234,-0.0547 c 0.33519,-0.80332 1.47181,-1.55406 3.125,-2.08789 1.65319,-0.53384 3.8155,-0.85742 6.17968,-0.85742 z m -10.58984,4.82226 v 21.17774 h 21.17774 v -21.17774 h -0.0879 z m 0.17774,0.17774 h 20.82226 v 20.82226 h -20.82226 z"
       id="path29" />
    <path
       style="color:#000000;fill:#000000;-inkscape-stroke:none"
       d="m 323.91797,284.51172 c -2.38042,0 -4.55621,0.32592 -6.23242,0.86719 -1.6387,0.52915 -2.78271,1.26307 -3.1836,2.13281 h -0.99414 v -2 h -2.17773 v 2 h -2 v 0.0898 2.08789 h 2 v 20.82227 h -2 v 2.17773 h 2 v 2 h 2.17773 v -2 h 20.82227 v 2 h 2.17773 v -2 h 2 v -2.17773 h -2 v -20.82227 h 2 v -2.17773 h -2 v -2 h -2.17773 v 2 h -0.99414 c -0.40087,-0.86974 -1.5449,-1.60366 -3.1836,-2.13281 -1.67621,-0.54127 -3.85395,-0.86719 -6.23437,-0.86719 z m 0,0.17773 c 2.36418,0 4.5265,0.32554 6.17969,0.85938 1.65318,0.53383 2.78982,1.28262 3.125,2.08594 l 0.0215,0.0547 h 1.26367 v -2 h 1.82227 v 2 h 2 v 1.82227 h -2 v 21.17773 h 2 v 1.82227 h -2 v 2 h -1.82227 v -2 h -21.17773 v 2 h -1.82227 v -2 h -2 v -1.82227 h 2 v -21.17773 h -2 v -1.82227 h 2 v -2 h 1.82227 v 2 h 1.26172 l 0.0234,-0.0547 c 0.3352,-0.80332 1.47182,-1.55211 3.125,-2.08594 1.65319,-0.53384 3.81356,-0.85938 6.17774,-0.85938 z m -10.58789,4.82227 v 21.17773 h 21.17773 v -21.17773 h -0.0898 z m 0.17773,0.17773 h 20.82227 v 20.82227 h -20.82227 z"
       id="path31" />
    <path
       style="color:#000000;fill:#000000;-inkscape-stroke:none"
       d="m 21.037109,210.44727 c -2.380424,0 -4.558154,0.32591 -6.234375,0.86718 -1.6387,0.52916 -2.782706,1.26308 -3.183593,2.13282 H 10.625 v -2 H 8.4472656 v 2 h -2 v 0.0898 2.08789 h 2 v 20.82227 h -2 v 2.17773 h 2 v 2 H 10.625 v -2 h 20.822266 v 2 H 33.625 v -2 h 2 v -2.17773 h -2 V 215.625 h 2 v -2.17773 h -2 v -2 h -2.177734 v 2 h -0.994141 c -0.400892,-0.86974 -1.544899,-1.60366 -3.183594,-2.13282 -1.676215,-0.54127 -3.852017,-0.86718 -6.232422,-0.86718 z m 0,0.17773 c 2.364161,0 4.52455,0.32554 6.177735,0.85937 1.653184,0.53384 2.789803,1.28262 3.125,2.08594 l 0.02344,0.0547 H 31.625 v -1.99805 h 1.822266 v 1.99805 h 2 v 1.82227 h -2 V 236.625 h 2 v 1.82227 h -2 v 2 H 31.625 v -2 H 10.447266 v 2 H 8.625 v -2 h -2 V 236.625 h 2 v -21.17773 h -2 V 213.625 h 2 v -1.99805 h 1.822266 v 1.99805 h 1.263672 l 0.02148,-0.0547 c 0.335192,-0.80331 1.471809,-1.5521 3.125,-2.08594 1.653191,-0.53383 3.815507,-0.85937 6.179687,-0.85937 z m -10.589843,4.82227 V 236.625 H 31.625 v -21.17773 h -0.08789 z M 10.625,215.625 h 20.822266 v 20.82227 H 10.625 Z"
       id="path33" />
    <path
       style="color:#000000;fill:#000000;-inkscape-stroke:none"
       d="m 323.9668,316.95898 c -2.38042,0 -4.55621,0.32592 -6.23243,0.86719 -1.63869,0.52916 -2.7827,1.26308 -3.18359,2.13281 h -0.99414 v -2 h -2.17773 v 2 h -2 v 0.0899 2.08789 h 2 v 20.82226 h -2 v 2.17774 h 2 v 2 h 2.17773 v -2 h 20.82227 v 2 h 2.17773 v -2 h 2 v -2.17774 h -2 v -20.82226 h 2 v -2.17774 h -2 v -2 h -2.17773 v 2 h -0.99414 c -0.40087,-0.86974 -1.5449,-1.60365 -3.1836,-2.13281 -1.67621,-0.54127 -3.85395,-0.86719 -6.23437,-0.86719 z m 0,0.17774 c 2.36418,0 4.5265,0.32554 6.17968,0.85937 1.65319,0.53384 2.78983,1.28263 3.125,2.08594 l 0.0234,0.0547 h 1.26172 v -2 h 1.82227 v 2 h 2 v 1.82226 h -2 v 21.17774 h 2 v 1.82226 h -2 v 2 h -1.82227 v -2 h -21.17773 v 2 h -1.82227 v -2 h -2 v -1.82226 h 2 v -21.17774 h -2 v -1.82226 h 2 v -2 h 1.82227 v 2 h 1.26171 l 0.0234,-0.0547 c 0.33519,-0.80332 1.47182,-1.5521 3.125,-2.08594 1.65318,-0.53383 3.81356,-0.85937 6.17774,-0.85937 z m -10.58789,4.82226 v 21.17774 h 21.17773 v -21.17774 h -0.0898 z m 0.17773,0.17774 h 20.82227 v 20.82226 h -20.82227 z"
       id="path35" />
    <path
       style="color:#000000;fill:#000000;-inkscape-stroke:none"
       d="m 195.27344,205.44336 c -2.38041,0 -5.67673,0.32648 -8.47266,0.86523 -1.39796,0.26938 -2.6705,0.59128 -3.64258,0.95508 -0.92904,0.3477 -1.54016,0.72919 -1.77148,1.17969 h -1.02539 v -2 h -2.17774 v 2 h -2 v 2.17773 h 2 v 37.82227 h -2 v 2.17773 h 4.17774 V 220.5332 c 0,-5.4515 4.46063,-9.91211 9.91211,-9.91211 h 10 c 5.45148,0 9.91015,4.46061 9.91015,9.91211 v 30.08789 h 4.17774 v -0.0879 -2.08984 h -2 v -37.82227 h 2 v -2.17773 h -2 v -2 h -2.17774 v 2 h -1.02539 c -0.23134,-0.45048 -0.84052,-0.832 -1.76953,-1.17969 -0.97207,-0.3638 -2.24461,-0.6857 -3.64258,-0.95508 -2.79593,-0.53875 -6.09223,-0.86523 -8.47265,-0.86523 z m 0,0.17773 c 2.36417,0 5.65598,0.32498 8.43945,0.86133 1.39174,0.26818 2.65665,0.58924 3.61328,0.94727 0.95663,0.35802 1.59527,0.76589 1.75,1.13672 l 0.0234,0.0547 h 1.26172 v -2 h 1.82226 v 2 h 2 v 1.82227 h -2 v 38.17773 h 2 v 1.82227 h -3.82226 V 220.5332 c 0,-5.54848 -4.53943,-10.08984 -10.08789,-10.08984 h -10 c -5.54846,0 -10.08985,4.54136 -10.08985,10.08984 v 29.91016 h -3.82226 v -1.82227 h 2 v -38.17773 h -2 v -1.82227 h 2 v -2 h 1.82226 v 2 h 1.26368 l 0.0215,-0.0547 c 0.15473,-0.37083 0.79532,-0.7787 1.75195,-1.13672 0.95663,-0.35803 2.22155,-0.67909 3.61328,-0.94727 2.78347,-0.53635 6.07529,-0.86133 8.43946,-0.86133 z"
       id="path37" />
    <path
       style="color:#000000;fill:#000000;-inkscape-stroke:none"
       d="m 310.81445,220.5625 v 2 h -2 v 2.17773 h 2 v 20.82227 h -2 v 2.17773 h 2 v 2 h 2.17774 v -2 h 20.82226 v 2 h 2.17774 v -0.0879 -1.91211 h 2 v -2.17773 h -2 v -0.99414 c 0.86973,-0.40089 1.60365,-1.5449 2.13281,-3.18359 0.54127,-1.67622 0.86719,-3.852 0.86719,-6.23243 0,-2.38042 -0.32592,-4.55816 -0.86719,-6.23437 -0.52916,-1.63869 -1.26307,-2.78271 -2.13281,-3.1836 v -0.99414 h 2 v -2.17773 h -2 v -2 h -2.17774 v 2 h -20.82226 v -2 z m 0.17774,0.17773 h 1.82226 v 2 h 21.17774 v -2 h 1.82226 v 2 h 2 v 1.82227 h -2 v 1.26172 l 0.0547,0.0234 c 0.80332,0.33519 1.5521,1.47181 2.08594,3.125 0.53383,1.65318 0.85937,3.81551 0.85937,6.17968 0,2.36418 -0.32554,4.52456 -0.85937,6.17774 -0.53384,1.65318 -1.28262,2.7898 -2.08594,3.125 l -0.0547,0.0234 v 1.26171 h 2 v 1.82227 h -2 v 2 h -1.82226 v -2 h -21.17774 v 2 h -1.82226 v -2 h -2 v -1.82227 h 2 V 224.5625 h -2 v -1.82227 h 2 z m 1.82226,3.82227 v 21.17773 h 21.17774 V 224.5625 h -0.0899 z m 0.17774,0.17773 h 20.82226 v 20.82227 h -20.82226 z"
       id="path73" />
    <path
       style="color:#000000;fill:#000000;-inkscape-stroke:none"
       d="m 311.29102,251.50195 v 2 h -2 v 2.17774 h 2 v 20.82226 h -2 v 2.17774 h 2 v 2 h 2.17773 v -2 h 20.82227 v 2 h 2.17773 v -0.0879 -1.91211 h 2 v -2.17774 h -2 v -0.99414 c 0.86974,-0.40089 1.60366,-1.5449 2.13281,-3.18359 0.54127,-1.67621 0.86719,-3.852 0.86719,-6.23242 0,-2.38042 -0.32592,-4.55817 -0.86719,-6.23438 -0.52915,-1.63869 -1.26307,-2.78271 -2.13281,-3.18359 v -0.99414 h 2 v -2.17774 h -2 v -2 h -2.17773 v 2 h -20.82227 v -2 z m 0.17773,0.17774 h 1.82227 v 2 h 21.17773 v -2 h 1.82227 v 2 h 2 v 1.82226 h -2 v 1.26172 l 0.0547,0.0234 c 0.80332,0.33519 1.55211,1.47182 2.08594,3.125 0.53383,1.65318 0.85938,3.81551 0.85938,6.17969 0,2.36418 -0.32555,4.52455 -0.85938,6.17773 -0.53383,1.65318 -1.28262,2.7898 -2.08594,3.125 l -0.0547,0.0234 v 1.26172 h 2 v 1.82226 h -2 v 2 h -1.82227 v -2 h -21.17773 v 2 h -1.82227 v -2 h -2 v -1.82226 h 2 v -21.17774 h -2 v -1.82226 h 2 z m 1.82227,3.82226 v 21.17774 h 21.17773 v -21.17774 h -0.0898 z m 0.17773,0.17774 h 20.82227 v 20.82226 h -20.82227 z"
       id="path75" />
    <path
       style="color:#000000;fill:#000000;-inkscape-stroke:none"
       d="m 227.02539,202.97461 c -1.70486,0 -3.08984,1.383 -3.08984,3.08789 v 3.95898 1.22461 c 0,0.62972 0.1944,1.20705 0.55078,1.62891 0.35638,0.42186 0.87752,0.68555 1.51367,0.68555 0.58766,0 1.05374,0.23628 1.37891,0.62109 0.32516,0.38481 0.50781,0.92195 0.50781,1.51563 v 0.88281 4.29883 119.27343 h 2.67773 v -2 h 4.82227 v 2 h 2.5 v 0.125 l 7.16015,-7.16015 1.41211,1.41406 10.73243,-10.73242 -1.41407,-1.41406 32.03907,-32.03907 1.41406,1.41602 10.73242,-10.73242 -1.41406,-1.41407 7.05078,-7.05273 -7.07031,-7.07031 1.41406,-1.41407 -10.73242,-10.73242 -1.41407,1.41407 -32.03906,-32.03907 1.41406,-1.41406 -10.73242,-10.73242 -1.41406,1.41406 -6.96094,-6.96094 v -0.0527 h -2.67773 v 2 h -4.82617 l -0.0606,-2 h -0.60742 c -0.43174,-1.18295 -1.53592,-2 -2.86719,-2 z m 0,0.17773 c 1.28613,0 2.35686,0.78699 2.74414,1.93946 l 0.0215,0.0605 h 0.5371 l 0.0605,2 h 5.17578 v -2 h 2.375 l 7.08594,7.08789 1.41406,-1.41406 10.48242,10.48047 -1.41406,1.41406 32.28906,32.29102 1.41407,-1.41406 10.48047,10.48046 -1.41407,1.41407 7.07227,7.07031 -7.05274,7.05273 1.41407,1.41407 -10.48047,10.48047 -1.41406,-1.41407 -0.0625,0.0625 -32.22657,32.22657 1.41407,1.41406 -10.48243,10.48242 -1.41406,-1.41406 -7.10742,7.10742 h -2.37305 v -2 h -5.17773 v 2 h -2.32227 v -119.0957 -4.29883 -0.88281 c 0,-0.63006 -0.19438,-1.20714 -0.55078,-1.62891 -0.3564,-0.42177 -0.87752,-0.68555 -1.51367,-0.68555 -0.58763,0 -1.05374,-0.23813 -1.37891,-0.62304 -0.32516,-0.38491 -0.50781,-0.92036 -0.50781,-1.51368 v -1.22461 -3.95898 c 0,-1.6088 1.30334,-2.91016 2.91211,-2.91016 z m 0,1.3711 c -0.84888,0 -1.53906,0.69022 -1.53906,1.53906 0,0.84885 0.69018,1.53906 1.53906,1.53906 0.84891,0 1.53906,-0.69021 1.53906,-1.53906 0,-0.84884 -0.69015,-1.53906 -1.53906,-1.53906 z m 0,0.17773 c 0.75283,0 1.36133,0.60857 1.36133,1.36133 0,0.75277 -0.6085,1.36133 -1.36133,1.36133 -0.75279,0 -1.36133,-0.60856 -1.36133,-1.36133 0,-0.75276 0.60853,-1.36133 1.36133,-1.36133 z m 34.53906,55.30469 -0.0977,0.008 c -6.14914,0.48676 -11.05427,5.39384 -11.54102,11.54297 l -0.008,0.0957 h 11.64648 z m 1.82227,0 v 11.64648 h 11.64453 l -0.008,-0.0957 c -0.48676,-6.14913 -5.39192,-11.05624 -11.54102,-11.54297 z m -2,0.21094 v 11.25781 h -11.25781 c 0.52275,-5.98118 5.27662,-10.73508 11.25781,-11.25781 z m 2.17773,0 c 5.98024,0.52356 10.73316,5.27727 11.25586,11.25781 h -11.25586 z m -13.64648,13.25781 0.008,0.0957 c 0.48675,6.14913 5.39185,11.05426 11.54102,11.54102 l 0.0977,0.008 v -11.64453 z m 13.46875,0 v 11.64453 l 0.0957,-0.008 c 6.14909,-0.48676 11.05426,-5.39185 11.54102,-11.54102 l 0.008,-0.0957 h -0.0957 z m -13.25781,0.17773 h 11.25781 v 11.25782 c -5.98122,-0.52273 -10.73506,-5.27663 -11.25781,-11.25782 z m 13.43554,0 h 11.25586 c -0.5227,5.98057 -5.27561,10.73423 -11.25586,11.25782 z"
       id="path67" />
    <path
       style="color:#000000;fill:#000000;-inkscape-stroke:none"
       d="m 275.56641,315.71094 c -2.68923,0 -5.20767,0.73058 -7.3711,2 h -5.21679 v 5.21875 c -1.26946,2.16353 -2,4.67985 -2,7.36914 -4e-5,2.68922 0.73054,5.2077 2,7.37109 v 5.21875 h 5.21679 c 2.16343,1.26939 4.68187,2 7.3711,2 2.68924,0 5.20766,-0.73058 7.37109,-2 h 5.21875 v -5.22265 c 1.2681,-2.1626 2,-4.67945 2,-7.36719 0,-2.68774 -0.7319,-5.20264 -2,-7.36524 v -5.22265 h -5.21875 c -2.16339,-1.26942 -4.68185,-2 -7.37109,-2 z m 0,0.17773 c 2.6676,0 5.16597,0.7252 7.30859,1.98828 l 0.0195,0.0117 h 5.08399 l -0.002,5.08203 0.0137,0.0215 c 1.26312,2.14266 1.98633,4.63899 1.98633,7.30664 0,2.66764 -0.72321,5.16593 -1.98633,7.30859 l -0.0137,0.0215 v 0.0234 5.0586 h -5.08203 l -0.0195,0.0117 c -2.14266,1.26308 -4.64099,1.98828 -7.30859,1.98828 -2.66759,0 -5.16593,-0.72523 -7.3086,-1.98828 l -0.0195,-0.0117 h -5.08203 v -5.08203 l -0.0137,-0.0215 c -1.26311,-2.14262 -1.98637,-4.64102 -1.98633,-7.30859 0,-2.66765 0.72322,-5.16388 1.98633,-7.30664 l 0.0137,-0.0215 v -5.08203 h 5.08203 l 0.0195,-0.0117 c 2.14266,-1.26308 4.64101,-1.98828 7.3086,-1.98828 z m 0,1.82227 c -6.95161,0 -12.58789,5.63632 -12.58789,12.58789 0,6.95157 5.63628,12.58984 12.58789,12.58984 6.95163,0 12.58984,-5.63827 12.58984,-12.58984 0,-6.95157 -5.63821,-12.58789 -12.58984,-12.58789 z m 0,0.17773 c 6.85554,0 12.41015,5.55468 12.41015,12.41016 0,6.85548 -5.55461,12.41211 -12.41015,12.41211 -6.85552,0 -12.41016,-5.55663 -12.41016,-12.41211 0,-6.85548 5.55464,-12.41016 12.41016,-12.41016 z"
       id="path69" />
    <path
       style="color:#000000;fill:#000000;-inkscape-stroke:none"
       d="m 171.16211,118.69336 v 2 h -7 v 12.5 h -2 v 12.67773 h 2 v 12.32227 h -2 v 12.67773 h 2 v 12.32227 h -2 v 12.67773 h 124.45508 c 0.63006,0 1.20713,-0.19243 1.6289,-0.54882 0.42178,-0.3564 0.68555,-0.87949 0.68555,-1.51563 0,-0.58765 0.23619,-1.05179 0.62109,-1.37695 0.38491,-0.32517 0.92035,-0.50782 1.51368,-0.50782 h 1.22656 5.04687 v -0.0898 c 1.8e-4,-0.29739 -7e-5,-4.48354 0,-8.54883 v -0.0898 h -2 v -12.32227 h 2 v -12.67773 h -2 v -12.32227 h 2 v -12.67773 h -2 v -12.5 h -7 v -2 h -9.17773 v 2 h -8.82227 v -2 h -9.17773 v 2 h -8.82227 v -2 h -9.17773 v 2 h -8.82227 v -2 h -9.17773 v 2 h -8.82227 v -2 h -9.17773 v 2 h -8.82227 v -2 h -9.17773 v 2 h -8.82227 v -2 z m 0.17773,0.17773 h 8.82227 v 2 h 9.17773 v -2 h 8.82227 v 2 h 9.17773 v -2 h 8.82227 v 2 h 9.17773 v -2 h 8.82227 v 2 h 9.17773 v -2 h 8.82227 v 2 h 9.17773 v -2 h 8.82227 v 2 h 9.17773 v -2 h 8.82227 v 2 h 7 v 12.5 h 2 v 12.32227 h -2 v 12.67773 h 2 v 12.32227 h -2 v 12.67773 h 2 c -6e-5,3.98378 1.7e-4,8.0049 0,8.37305 h -4.86914 -1.22656 c -0.62973,0 -1.20509,0.19244 -1.62696,0.54883 -0.42186,0.35639 -0.68554,0.8775 -0.68554,1.51367 0,0.58764 -0.23824,1.05375 -0.62305,1.37891 -0.38481,0.32515 -0.91999,0.50781 -1.51367,0.50781 H 162.33984 v -12.32227 h 2 v -12.67773 h -2 v -12.32227 h 2 v -12.67773 h -2 v -12.32227 h 2 v -12.5 h 7 v -0.0879 z m 47.82227,11.82227 v 9.67773 h 0.0879 9.58984 v -9.67773 z m 11.5,0 v 9.67773 h 0.0879 9.58984 v -9.67773 z m -11.32227,0.17773 h 9.32227 v 9.32227 h -9.32227 z m 11.5,0 h 9.32227 v 9.32227 h -9.32227 z m -11.67773,11.32227 v 9.67773 h 0.0879 9.58984 v -9.67773 z m 11.5,0 v 9.67773 h 0.0879 9.58984 v -9.67773 z m -11.32227,0.17773 h 9.32227 v 9.32227 h -9.32227 z m 11.5,0 h 9.32227 v 9.32227 h -9.32227 z m -11.67773,25.82227 v 9.67773 h 0.0879 9.58984 v -9.67773 z m 11.5,0 v 9.67773 h 0.0879 9.58984 v -9.67773 z m -11.32227,0.17773 h 9.32227 v 9.32227 h -9.32227 z m 11.5,0 h 9.32227 v 9.32227 h -9.32227 z m -11.67773,11.32227 v 9.67773 h 0.0879 9.58984 v -9.67773 z m 11.5,0 v 9.67773 h 0.0879 9.58984 v -9.67773 z m -11.32227,0.17773 h 9.32227 v 9.32227 h -9.32227 z m 11.5,0 h 9.32227 v 9.32227 h -9.32227 z"
       id="path79" />
  </g>
</svg>
