<?xml version="1.0" encoding="UTF-8" standalone="no"?>
<svg
   xmlns:dc="http://purl.org/dc/elements/1.1/"
   xmlns:cc="http://creativecommons.org/ns#"
   xmlns:rdf="http://www.w3.org/1999/02/22-rdf-syntax-ns#"
   xmlns:svg="http://www.w3.org/2000/svg"
   xmlns="http://www.w3.org/2000/svg"
   width="210mm"
   height="297mm"
   viewBox="0 0 210 297"
   version="1.1"
   id="svg3291">
  <defs
     id="defs3285" />
  <metadata
     id="metadata3288">
    <rdf:RDF>
      <cc:Work
         rdf:about="">
        <dc:format>image/svg+xml</dc:format>
        <dc:type
           rdf:resource="http://purl.org/dc/dcmitype/StillImage" />
        <dc:title></dc:title>
      </cc:Work>
    </rdf:RDF>
  </metadata>
  <g
     transform="translate(-2.0943104,2.1125033)"
     id="layer1">
    <path
       style="opacity:1;vector-effect:none;fill:none;fill-opacity:1;stroke:#030300;stroke-width:0.0447126;stroke-linecap:butt;stroke-linejoin:miter;stroke-miterlimit:4;stroke-dasharray:none;stroke-dashoffset:0;stroke-opacity:1"
       d="m 6.5850904,274.89981 c 0.1484006,0.004 0.5428133,0.005 0.5428133,0.005 v 5.91093 h 0.29148 v -5.91093 H 19.506394 27.06895 v 5.91093 h 0.210812 l 0.0041,-5.93424 H 46.10894 v 5.91093 h 0.250697 l 0.01754,-5.91093 c 0,0 0.368088,-3e-5 0.552133,0 3.324164,6.5e-4 5.180956,0.62992 5.180956,3.97564 v 12.0624 c 0,3.11375 -2.550348,3.96356 -5.080626,3.94055 -0.224702,-0.002 -0.674133,0 -0.674133,0 v -5.95821 H 46.10481 v 5.95821 H 27.279742 v -5.95821 H 27.06893 v 5.95821 H 7.4194237 v -5.95821 h -0.14579 -0.14579 v 5.95821 l -0.4298243,0.005 c -2.1177351,0.0117 -4.5813527,-1.98978 -4.5813527,-3.89216 0,-1.90239 0.01,-11.57586 0,-12.02645 0,-1.26091 0.4662639,-2.27696 1.2579489,-2.9767 0.7916849,-0.69973 1.9087908,-1.07439 3.2104748,-1.07006 z"
       id="rect3836" />
  </g>
  <g
     id="layer1-8"
     transform="translate(-2.0801064,-27.205977)">
    <path
       style="opacity:1;vector-effect:none;fill:none;fill-opacity:1;stroke:#030300;stroke-width:0.0447126;stroke-linecap:butt;stroke-linejoin:miter;stroke-miterlimit:4;stroke-dasharray:none;stroke-dashoffset:0;stroke-opacity:1"
       d="m 6.5850904,274.89981 c 0.1484006,0.004 0.5428133,0.005 0.5428133,0.005 v 5.91093 h 0.29148 v -5.91093 H 19.506394 27.06895 v 5.91093 h 0.210812 l 0.0041,-5.93424 H 46.10894 v 5.91093 h 0.250697 l 0.01754,-5.91093 c 0,0 0.368088,-3e-5 0.552133,0 3.324164,6.5e-4 5.180956,0.62992 5.180956,3.97564 v 12.0624 c 0,3.11375 -2.550348,3.96356 -5.080626,3.94055 -0.224702,-0.002 -0.674133,0 -0.674133,0 v -5.95821 H 46.10481 v 5.95821 H 27.279742 v -5.95821 H 27.06893 v 5.95821 H 7.4194237 v -5.95821 h -0.14579 -0.14579 v 5.95821 l -0.4298243,0.005 c -2.1177351,0.0117 -4.5813527,-1.98978 -4.5813527,-3.89216 0,-1.90239 0.01,-11.57586 0,-12.02645 0,-1.26091 0.4662639,-2.27696 1.2579489,-2.9767 0.7916849,-0.69973 1.9087908,-1.07439 3.2104748,-1.07006 z"
       id="rect3836-7" />
  </g>
  <g
     id="layer1-9"
     transform="translate(-2.0725244,-55.334407)">
    <path
       style="opacity:1;vector-effect:none;fill:none;fill-opacity:1;stroke:#030300;stroke-width:0.0447126;stroke-linecap:butt;stroke-linejoin:miter;stroke-miterlimit:4;stroke-dasharray:none;stroke-dashoffset:0;stroke-opacity:1"
       d="m 6.5850904,274.89981 c 0.1484006,0.004 0.5428133,0.005 0.5428133,0.005 v 5.91093 h 0.29148 v -5.91093 H 19.506394 27.06895 v 5.91093 h 0.210812 l 0.0041,-5.93424 H 46.10894 v 5.91093 h 0.250697 l 0.01754,-5.91093 c 0,0 0.368088,-3e-5 0.552133,0 3.324164,6.5e-4 5.180956,0.62992 5.180956,3.97564 v 12.0624 c 0,3.11375 -2.550348,3.96356 -5.080626,3.94055 -0.224702,-0.002 -0.674133,0 -0.674133,0 v -5.95821 H 46.10481 v 5.95821 H 27.279742 v -5.95821 H 27.06893 v 5.95821 H 7.4194237 v -5.95821 h -0.14579 -0.14579 v 5.95821 l -0.4298243,0.005 c -2.1177351,0.0117 -4.5813527,-1.98978 -4.5813527,-3.89216 0,-1.90239 0.01,-11.57586 0,-12.02645 0,-1.26091 0.4662639,-2.27696 1.2579489,-2.9767 0.7916849,-0.69973 1.9087908,-1.07439 3.2104748,-1.07006 z"
       id="rect3836-2" />
  </g>
  <g
     id="layer1-0"
     transform="translate(48.33618,-55.311937)">
    <path
       style="opacity:1;vector-effect:none;fill:none;fill-opacity:1;stroke:#030300;stroke-width:0.0447126;stroke-linecap:butt;stroke-linejoin:miter;stroke-miterlimit:4;stroke-dasharray:none;stroke-dashoffset:0;stroke-opacity:1"
       d="m 6.5850904,274.89981 c 0.1484006,0.004 0.5428133,0.005 0.5428133,0.005 v 5.91093 h 0.29148 v -5.91093 H 19.506394 27.06895 v 5.91093 h 0.210812 l 0.0041,-5.93424 H 46.10894 v 5.91093 h 0.250697 l 0.01754,-5.91093 c 0,0 0.368088,-3e-5 0.552133,0 3.324164,6.5e-4 5.180956,0.62992 5.180956,3.97564 v 12.0624 c 0,3.11375 -2.550348,3.96356 -5.080626,3.94055 -0.224702,-0.002 -0.674133,0 -0.674133,0 v -5.95821 H 46.10481 v 5.95821 H 27.279742 v -5.95821 H 27.06893 v 5.95821 H 7.4194237 v -5.95821 h -0.14579 -0.14579 v 5.95821 l -0.4298243,0.005 c -2.1177351,0.0117 -4.5813527,-1.98978 -4.5813527,-3.89216 0,-1.90239 0.01,-11.57586 0,-12.02645 0,-1.26091 0.4662639,-2.27696 1.2579489,-2.9767 0.7916849,-0.69973 1.9087908,-1.07439 3.2104748,-1.07006 z"
       id="rect3836-23" />
  </g>
  <g
     id="layer1-7"
     transform="translate(48.34787,-27.190177)">
    <path
       style="opacity:1;vector-effect:none;fill:none;fill-opacity:1;stroke:#030300;stroke-width:0.0447126;stroke-linecap:butt;stroke-linejoin:miter;stroke-miterlimit:4;stroke-dasharray:none;stroke-dashoffset:0;stroke-opacity:1"
       d="m 6.5850904,274.89981 c 0.1484006,0.004 0.5428133,0.005 0.5428133,0.005 v 5.91093 h 0.29148 v -5.91093 H 19.506394 27.06895 v 5.91093 h 0.210812 l 0.0041,-5.93424 H 46.10894 v 5.91093 h 0.250697 l 0.01754,-5.91093 c 0,0 0.368088,-3e-5 0.552133,0 3.324164,6.5e-4 5.180956,0.62992 5.180956,3.97564 v 12.0624 c 0,3.11375 -2.550348,3.96356 -5.080626,3.94055 -0.224702,-0.002 -0.674133,0 -0.674133,0 v -5.95821 H 46.10481 v 5.95821 H 27.279742 v -5.95821 H 27.06893 v 5.95821 H 7.4194237 v -5.95821 h -0.14579 -0.14579 v 5.95821 l -0.4298243,0.005 c -2.1177351,0.0117 -4.5813527,-1.98978 -4.5813527,-3.89216 0,-1.90239 0.01,-11.57586 0,-12.02645 0,-1.26091 0.4662639,-2.27696 1.2579489,-2.9767 0.7916849,-0.69973 1.9087908,-1.07439 3.2104748,-1.07006 z"
       id="rect3836-5" />
  </g>
  <g
     id="layer1-92"
     transform="translate(48.34787,2.1125033)">
    <path
       style="opacity:1;vector-effect:none;fill:none;fill-opacity:1;stroke:#030300;stroke-width:0.0447126;stroke-linecap:butt;stroke-linejoin:miter;stroke-miterlimit:4;stroke-dasharray:none;stroke-dashoffset:0;stroke-opacity:1"
       d="m 6.5850904,274.89981 c 0.1484006,0.004 0.5428133,0.005 0.5428133,0.005 v 5.91093 h 0.29148 v -5.91093 H 19.506394 27.06895 v 5.91093 h 0.210812 l 0.0041,-5.93424 H 46.10894 v 5.91093 h 0.250697 l 0.01754,-5.91093 c 0,0 0.368088,-3e-5 0.552133,0 3.324164,6.5e-4 5.180956,0.62992 5.180956,3.97564 v 12.0624 c 0,3.11375 -2.550348,3.96356 -5.080626,3.94055 -0.224702,-0.002 -0.674133,0 -0.674133,0 v -5.95821 H 46.10481 v 5.95821 H 27.279742 v -5.95821 H 27.06893 v 5.95821 H 7.4194237 v -5.95821 h -0.14579 -0.14579 v 5.95821 l -0.4298243,0.005 c -2.1177351,0.0117 -4.5813527,-1.98978 -4.5813527,-3.89216 0,-1.90239 0.01,-11.57586 0,-12.02645 0,-1.26091 0.4662639,-2.27696 1.2579489,-2.9767 0.7916849,-0.69973 1.9087908,-1.07439 3.2104748,-1.07006 z"
       id="rect3836-28" />
  </g>
  <g
     transform="translate(98.94196,2.1010533)"
     id="layer1-97">
    <path
       style="opacity:1;vector-effect:none;fill:none;fill-opacity:1;stroke:#030300;stroke-width:0.0447126;stroke-linecap:butt;stroke-linejoin:miter;stroke-miterlimit:4;stroke-dasharray:none;stroke-dashoffset:0;stroke-opacity:1"
       d="m 6.5850904,274.89981 c 0.1484006,0.004 0.5428133,0.005 0.5428133,0.005 v 5.91093 h 0.29148 v -5.91093 H 19.506394 27.06895 v 5.91093 h 0.210812 l 0.0041,-5.93424 H 46.10894 v 5.91093 h 0.250697 l 0.01754,-5.91093 c 0,0 0.368088,-3e-5 0.552133,0 3.324164,6.5e-4 5.180956,0.62992 5.180956,3.97564 v 12.0624 c 0,3.11375 -2.550348,3.96356 -5.080626,3.94055 -0.224702,-0.002 -0.674133,0 -0.674133,0 v -5.95821 H 46.10481 v 5.95821 H 27.279742 v -5.95821 H 27.06893 v 5.95821 H 7.4194237 v -5.95821 h -0.14579 -0.14579 v 5.95821 l -0.4298243,0.005 c -2.1177351,0.0117 -4.5813527,-1.98978 -4.5813527,-3.89216 0,-1.90239 0.01,-11.57586 0,-12.02645 0,-1.26091 0.4662639,-2.27696 1.2579489,-2.9767 0.7916849,-0.69973 1.9087908,-1.07439 3.2104748,-1.07006 z"
       id="rect3836-3" />
  </g>
  <g
     id="layer1-8-6"
     transform="translate(98.95617,-27.217427)">
    <path
       style="opacity:1;vector-effect:none;fill:none;fill-opacity:1;stroke:#030300;stroke-width:0.0447126;stroke-linecap:butt;stroke-linejoin:miter;stroke-miterlimit:4;stroke-dasharray:none;stroke-dashoffset:0;stroke-opacity:1"
       d="m 6.5850904,274.89981 c 0.1484006,0.004 0.5428133,0.005 0.5428133,0.005 v 5.91093 h 0.29148 v -5.91093 H 19.506394 27.06895 v 5.91093 h 0.210812 l 0.0041,-5.93424 H 46.10894 v 5.91093 h 0.250697 l 0.01754,-5.91093 c 0,0 0.368088,-3e-5 0.552133,0 3.324164,6.5e-4 5.180956,0.62992 5.180956,3.97564 v 12.0624 c 0,3.11375 -2.550348,3.96356 -5.080626,3.94055 -0.224702,-0.002 -0.674133,0 -0.674133,0 v -5.95821 H 46.10481 v 5.95821 H 27.279742 v -5.95821 H 27.06893 v 5.95821 H 7.4194237 v -5.95821 h -0.14579 -0.14579 v 5.95821 l -0.4298243,0.005 c -2.1177351,0.0117 -4.5813527,-1.98978 -4.5813527,-3.89216 0,-1.90239 0.01,-11.57586 0,-12.02645 0,-1.26091 0.4662639,-2.27696 1.2579489,-2.9767 0.7916849,-0.69973 1.9087908,-1.07439 3.2104748,-1.07006 z"
       id="rect3836-7-1" />
  </g>
  <g
     id="layer1-9-2"
     transform="translate(98.96375,-55.345857)">
    <path
       style="opacity:1;vector-effect:none;fill:none;fill-opacity:1;stroke:#030300;stroke-width:0.0447126;stroke-linecap:butt;stroke-linejoin:miter;stroke-miterlimit:4;stroke-dasharray:none;stroke-dashoffset:0;stroke-opacity:1"
       d="m 6.5850904,274.89981 c 0.1484006,0.004 0.5428133,0.005 0.5428133,0.005 v 5.91093 h 0.29148 v -5.91093 H 19.506394 27.06895 v 5.91093 h 0.210812 l 0.0041,-5.93424 H 46.10894 v 5.91093 h 0.250697 l 0.01754,-5.91093 c 0,0 0.368088,-3e-5 0.552133,0 3.324164,6.5e-4 5.180956,0.62992 5.180956,3.97564 v 12.0624 c 0,3.11375 -2.550348,3.96356 -5.080626,3.94055 -0.224702,-0.002 -0.674133,0 -0.674133,0 v -5.95821 H 46.10481 v 5.95821 H 27.279742 v -5.95821 H 27.06893 v 5.95821 H 7.4194237 v -5.95821 h -0.14579 -0.14579 v 5.95821 l -0.4298243,0.005 c -2.1177351,0.0117 -4.5813527,-1.98978 -4.5813527,-3.89216 0,-1.90239 0.01,-11.57586 0,-12.02645 0,-1.26091 0.4662639,-2.27696 1.2579489,-2.9767 0.7916849,-0.69973 1.9087908,-1.07439 3.2104748,-1.07006 z"
       id="rect3836-2-9" />
  </g>
  <g
     id="layer1-0-3"
     transform="translate(149.37253,-55.323387)">
    <path
       style="opacity:1;vector-effect:none;fill:none;fill-opacity:1;stroke:#030300;stroke-width:0.0447126;stroke-linecap:butt;stroke-linejoin:miter;stroke-miterlimit:4;stroke-dasharray:none;stroke-dashoffset:0;stroke-opacity:1"
       d="m 6.5850904,274.89981 c 0.1484006,0.004 0.5428133,0.005 0.5428133,0.005 v 5.91093 h 0.29148 v -5.91093 H 19.506394 27.06895 v 5.91093 h 0.210812 l 0.0041,-5.93424 H 46.10894 v 5.91093 h 0.250697 l 0.01754,-5.91093 c 0,0 0.368088,-3e-5 0.552133,0 3.324164,6.5e-4 5.180956,0.62992 5.180956,3.97564 v 12.0624 c 0,3.11375 -2.550348,3.96356 -5.080626,3.94055 -0.224702,-0.002 -0.674133,0 -0.674133,0 v -5.95821 H 46.10481 v 5.95821 H 27.279742 v -5.95821 H 27.06893 v 5.95821 H 7.4194237 v -5.95821 h -0.14579 -0.14579 v 5.95821 l -0.4298243,0.005 c -2.1177351,0.0117 -4.5813527,-1.98978 -4.5813527,-3.89216 0,-1.90239 0.01,-11.57586 0,-12.02645 0,-1.26091 0.4662639,-2.27696 1.2579489,-2.9767 0.7916849,-0.69973 1.9087908,-1.07439 3.2104748,-1.07006 z"
       id="rect3836-23-1" />
  </g>
  <g
     id="layer1-7-9"
     transform="translate(149.38422,-27.201627)">
    <path
       style="opacity:1;vector-effect:none;fill:none;fill-opacity:1;stroke:#030300;stroke-width:0.0447126;stroke-linecap:butt;stroke-linejoin:miter;stroke-miterlimit:4;stroke-dasharray:none;stroke-dashoffset:0;stroke-opacity:1"
       d="m 6.5850904,274.89981 c 0.1484006,0.004 0.5428133,0.005 0.5428133,0.005 v 5.91093 h 0.29148 v -5.91093 H 19.506394 27.06895 v 5.91093 h 0.210812 l 0.0041,-5.93424 H 46.10894 v 5.91093 h 0.250697 l 0.01754,-5.91093 c 0,0 0.368088,-3e-5 0.552133,0 3.324164,6.5e-4 5.180956,0.62992 5.180956,3.97564 v 12.0624 c 0,3.11375 -2.550348,3.96356 -5.080626,3.94055 -0.224702,-0.002 -0.674133,0 -0.674133,0 v -5.95821 H 46.10481 v 5.95821 H 27.279742 v -5.95821 H 27.06893 v 5.95821 H 7.4194237 v -5.95821 h -0.14579 -0.14579 v 5.95821 l -0.4298243,0.005 c -2.1177351,0.0117 -4.5813527,-1.98978 -4.5813527,-3.89216 0,-1.90239 0.01,-11.57586 0,-12.02645 0,-1.26091 0.4662639,-2.27696 1.2579489,-2.9767 0.7916849,-0.69973 1.9087908,-1.07439 3.2104748,-1.07006 z"
       id="rect3836-5-4" />
  </g>
  <g
     id="layer1-92-7"
     transform="translate(149.38422,2.1010533)">
    <path
       style="opacity:1;vector-effect:none;fill:none;fill-opacity:1;stroke:#030300;stroke-width:0.0447126;stroke-linecap:butt;stroke-linejoin:miter;stroke-miterlimit:4;stroke-dasharray:none;stroke-dashoffset:0;stroke-opacity:1"
       d="m 6.5850904,274.89981 c 0.1484006,0.004 0.5428133,0.005 0.5428133,0.005 v 5.91093 h 0.29148 v -5.91093 H 19.506394 27.06895 v 5.91093 h 0.210812 l 0.0041,-5.93424 H 46.10894 v 5.91093 h 0.250697 l 0.01754,-5.91093 c 0,0 0.368088,-3e-5 0.552133,0 3.324164,6.5e-4 5.180956,0.62992 5.180956,3.97564 v 12.0624 c 0,3.11375 -2.550348,3.96356 -5.080626,3.94055 -0.224702,-0.002 -0.674133,0 -0.674133,0 v -5.95821 H 46.10481 v 5.95821 H 27.279742 v -5.95821 H 27.06893 v 5.95821 H 7.4194237 v -5.95821 h -0.14579 -0.14579 v 5.95821 l -0.4298243,0.005 c -2.1177351,0.0117 -4.5813527,-1.98978 -4.5813527,-3.89216 0,-1.90239 0.01,-11.57586 0,-12.02645 0,-1.26091 0.4662639,-2.27696 1.2579489,-2.9767 0.7916849,-0.69973 1.9087908,-1.07439 3.2104748,-1.07006 z"
       id="rect3836-28-8" />
  </g>
</svg>
