<?xml version="1.0" encoding="UTF-8" standalone="no"?>
<!-- Created with Inkscape (http://www.inkscape.org/) -->

<svg
   width="130.01552mm"
   height="110mm"
   viewBox="0 0 130.01552 110"
   version="1.1"
   id="svg1"
   xml:space="preserve"
   xmlns="http://www.w3.org/2000/svg"
   xmlns:svg="http://www.w3.org/2000/svg"><defs
     id="defs1" /><g
     id="layer1"
     transform="matrix(0.59308144,0,0,0.59308144,4.7521493,-14.155964)"><path
       style="fill:none;stroke:#000000;stroke-width:0.0560001"
       d="m 27.817454,61.781432 h 2.056625 l -0.03977,-37.82203 57.661246,0.03175 0.114244,37.830089 1.973228,-0.05056"
       id="path1" /><path
       style="fill:none;stroke:#000000;stroke-width:0.0560001"
       d="m 31.892696,42.563994 -2.32161,-0.02707 -14.670241,4.17512 -4.259622,14.973001 0.01458,1.816423"
       id="path2" /><path
       style="fill:none;stroke:#000000;stroke-width:0.0560001"
       d="m 85.470979,42.557796 h 2.092561 l 14.11603,4.18264 5.08437,14.862569 0.0104,1.740437"
       id="path3" /><path
       style="fill:none;stroke:#000000;stroke-width:0.0560001"
       d="m 104.71442,61.818593 20.40555,0.0209 0.0417,76.965877 -20.3467,-0.15265"
       id="path4" /><path
       style="fill:none;stroke:#000000;stroke-width:0.0560001"
       d="m 85.639515,158.06168 1.720208,-0.007 14.310397,-5.37405 5.03199,-13.75486 -0.001,-1.5826"
       id="path5" /><path
       style="fill:none;stroke:#000000;stroke-width:0.0560001"
       d="m 12.537272,61.687685 -20.521879,-0.06555 0.095979,77.074095 20.407792,0.0751"
       id="path6" /><path
       style="fill:none;stroke:#000000;stroke-width:0.0560001"
       d="m 10.365567,137.06454 -0.04778,1.6809 4.556921,14.34076 14.696345,4.7394 1.988843,0.0439"
       id="path7" /><path
       style="fill:none;stroke:#000000;stroke-width:0.0560001"
       d="m 27.628161,138.67602 2.271498,-0.0219 -0.211712,37.77696 57.817075,-0.019 -0.0089,-37.77939 h 1.929146"
       id="path8" /><path
       style="fill:none;stroke:#000000;stroke-width:0.0560001"
       d="m 29.870845,137.52336 -0.0085,1.10681 1.283482,-0.0332"
       id="path9" /><path
       style="fill:none;stroke:#000000;stroke-width:0.0560001"
       d="m 29.894328,63.048215 -0.0057,-1.270918 1.102019,0.0026"
       id="path10" /><path
       style="fill:none;stroke:#000000;stroke-width:0.0560001"
       d="m 87.599476,63.018796 -0.02371,-1.185503 -0.856378,0.01566"
       id="path11" /><path
       style="fill:none;stroke:#000000;stroke-width:0.0560001"
       d="m 87.50216,137.5663 0.01344,1.09179 -1.023362,0.0442"
       id="path12" /><path
       style="fill:none;stroke:#000000;stroke-width:0.0560001"
       d="m 131.53782,23.896533 0.11697,185.415907 79.45059,-0.16862 0.0743,-185.1536 z"
       id="path13" /><path
       style="fill:none;stroke:#000000;stroke-width:0.0560001"
       d="m 131.4994,83.355993 1.74513,0.01177"
       id="path14" /><path
       style="fill:none;stroke:#000000;stroke-width:0.0560001"
       d="m 131.6463,103.40797 1.74513,0.0118"
       id="path14-6" /><path
       style="fill:none;stroke:#000000;stroke-width:0.0560001"
       d="m 131.61539,162.56186 1.74513,0.0118"
       id="path14-2" /><path
       style="fill:none;stroke:#000000;stroke-width:0.0560001"
       d="m 131.62132,182.21247 1.74513,0.0118"
       id="path14-3" /><path
       style="fill:none;stroke:#000000;stroke-width:0.0560001"
       d="m 209.37423,182.25949 1.74513,0.0118"
       id="path14-26" /><path
       style="fill:none;stroke:#000000;stroke-width:0.0560001"
       d="m 209.37408,162.52885 1.74513,0.0118"
       id="path14-9" /><path
       style="fill:none;stroke:#000000;stroke-width:0.0560001"
       d="m 209.39683,103.40079 1.74513,0.0118"
       id="path14-37" /><path
       style="fill:none;stroke:#000000;stroke-width:0.0560001"
       d="m 209.35537,83.287544 1.74513,0.0118"
       id="path14-28" /></g></svg>
